%TF.GenerationSoftware,KiCad,Pcbnew,7.0.8*%
%TF.CreationDate,2024-04-22T21:24:50+09:00*%
%TF.ProjectId,MixedSignalKicad,4d697865-6453-4696-976e-616c4b696361,1.0*%
%TF.SameCoordinates,Original*%
%TF.FileFunction,Copper,L2,Bot*%
%TF.FilePolarity,Positive*%
%FSLAX46Y46*%
G04 Gerber Fmt 4.6, Leading zero omitted, Abs format (unit mm)*
G04 Created by KiCad (PCBNEW 7.0.8) date 2024-04-22 21:24:50*
%MOMM*%
%LPD*%
G01*
G04 APERTURE LIST*
%TA.AperFunction,ComponentPad*%
%ADD10C,1.900000*%
%TD*%
%TA.AperFunction,ComponentPad*%
%ADD11C,3.000000*%
%TD*%
%TA.AperFunction,ComponentPad*%
%ADD12C,0.800000*%
%TD*%
%TA.AperFunction,ComponentPad*%
%ADD13C,6.400000*%
%TD*%
%TA.AperFunction,ComponentPad*%
%ADD14O,1.000000X2.100000*%
%TD*%
%TA.AperFunction,ComponentPad*%
%ADD15O,1.000000X1.600000*%
%TD*%
%TA.AperFunction,ComponentPad*%
%ADD16R,1.070000X1.070000*%
%TD*%
%TA.AperFunction,ComponentPad*%
%ADD17C,1.070000*%
%TD*%
%TA.AperFunction,ViaPad*%
%ADD18C,0.700000*%
%TD*%
%TA.AperFunction,ViaPad*%
%ADD19C,0.800000*%
%TD*%
%TA.AperFunction,Conductor*%
%ADD20C,0.300000*%
%TD*%
%TA.AperFunction,Conductor*%
%ADD21C,0.500000*%
%TD*%
G04 APERTURE END LIST*
D10*
%TO.P,J300,1,In*%
%TO.N,/ADC/IN*%
X164000000Y-117000000D03*
D11*
%TO.P,J300,2,Ext*%
%TO.N,GND*%
X169080000Y-122080000D03*
D10*
X166540000Y-117000000D03*
D11*
X158920000Y-122080000D03*
%TD*%
D12*
%TO.P,H2,1,1*%
%TO.N,GND*%
X170000000Y-52600000D03*
X171697056Y-53302944D03*
X168302944Y-53302944D03*
X172400000Y-55000000D03*
D13*
X170000000Y-55000000D03*
D12*
X167600000Y-55000000D03*
X171697056Y-56697056D03*
X168302944Y-56697056D03*
X170000000Y-57400000D03*
%TD*%
D10*
%TO.P,J400,1,In*%
%TO.N,/DAC/OUT*%
X131000000Y-117000000D03*
D11*
%TO.P,J400,2,Ext*%
%TO.N,GND*%
X136080000Y-122080000D03*
D10*
X133540000Y-117000000D03*
D11*
X125920000Y-122080000D03*
%TD*%
D14*
%TO.P,J200,S1,SHIELD*%
%TO.N,GND*%
X151820000Y-55630000D03*
D15*
X151820000Y-51450000D03*
D14*
X143180000Y-55630000D03*
D15*
X143180000Y-51450000D03*
%TD*%
D16*
%TO.P,J201,1,Pin_1*%
%TO.N,unconnected-(J201-Pin_1-Pad1)*%
X134810000Y-61365000D03*
D17*
%TO.P,J201,2,Pin_2*%
%TO.N,unconnected-(J201-Pin_2-Pad2)*%
X134810000Y-62635000D03*
%TO.P,J201,3,Pin_3*%
%TO.N,+3V3*%
X133540000Y-61365000D03*
%TO.P,J201,4,Pin_4*%
%TO.N,/MCU/CONN_SWDIO*%
X133540000Y-62635000D03*
%TO.P,J201,5,Pin_5*%
%TO.N,GND*%
X132270000Y-61365000D03*
%TO.P,J201,6,Pin_6*%
%TO.N,/MCU/CONN_SWCLK*%
X132270000Y-62635000D03*
%TO.P,J201,7,Pin_7*%
%TO.N,GND*%
X131000000Y-61365000D03*
%TO.P,J201,8,Pin_8*%
%TO.N,/MCU/CONN_SWO*%
X131000000Y-62635000D03*
%TO.P,J201,9,Pin_9*%
%TO.N,unconnected-(J201-Pin_9-Pad9)*%
X129730000Y-61365000D03*
%TO.P,J201,10,Pin_10*%
%TO.N,unconnected-(J201-Pin_10-Pad10)*%
X129730000Y-62635000D03*
%TO.P,J201,11,Pin_11*%
%TO.N,GND*%
X128460000Y-61365000D03*
%TO.P,J201,12,Pin_12*%
%TO.N,/MCU/CONN_NRST*%
X128460000Y-62635000D03*
%TO.P,J201,13,Pin_13*%
%TO.N,unconnected-(J201-Pin_13-Pad13)*%
X127190000Y-61365000D03*
%TO.P,J201,14,Pin_14*%
%TO.N,unconnected-(J201-Pin_14-Pad14)*%
X127190000Y-62635000D03*
%TD*%
D12*
%TO.P,H3,1,1*%
%TO.N,GND*%
X147500000Y-122600000D03*
X149197056Y-123302944D03*
X145802944Y-123302944D03*
X149900000Y-125000000D03*
D13*
X147500000Y-125000000D03*
D12*
X145100000Y-125000000D03*
X149197056Y-126697056D03*
X145802944Y-126697056D03*
X147500000Y-127400000D03*
%TD*%
%TO.P,H1,1,1*%
%TO.N,GND*%
X122600000Y-55000000D03*
X123302944Y-53302944D03*
X123302944Y-56697056D03*
X125000000Y-52600000D03*
D13*
X125000000Y-55000000D03*
D12*
X125000000Y-57400000D03*
X126697056Y-53302944D03*
X126697056Y-56697056D03*
X127400000Y-55000000D03*
%TD*%
D18*
%TO.N,GND*%
X159250000Y-82250000D03*
D19*
X122500000Y-107500000D03*
X172500000Y-125000000D03*
X125000000Y-72500000D03*
D18*
X134750000Y-69500000D03*
D19*
X172500000Y-110000000D03*
X165000000Y-120000000D03*
X142500000Y-122500000D03*
D18*
X152250000Y-88750000D03*
D19*
X145000000Y-65000000D03*
X125000000Y-115000000D03*
D18*
X127500000Y-70199503D03*
X133250000Y-111750000D03*
D19*
X140000000Y-117500000D03*
X135000000Y-125000000D03*
X122500000Y-115000000D03*
X167500000Y-127500000D03*
X157500000Y-125000000D03*
D18*
X146862500Y-112362500D03*
D19*
X137500000Y-125000000D03*
X147500000Y-105000000D03*
X150000000Y-117500000D03*
X127500000Y-115000000D03*
X135000000Y-100000000D03*
D18*
X127250000Y-78000000D03*
X142000000Y-95250000D03*
D19*
X170000000Y-112500000D03*
X122500000Y-112500000D03*
X155000000Y-122500000D03*
X125000000Y-117500000D03*
X122500000Y-120000000D03*
X172500000Y-115000000D03*
X140000000Y-127500000D03*
X170000000Y-117500000D03*
X145000000Y-105000000D03*
X142500000Y-112500000D03*
X170000000Y-100000000D03*
X142500000Y-127500000D03*
X155000000Y-65000000D03*
X145000000Y-120000000D03*
X162500000Y-115000000D03*
X142500000Y-62500000D03*
D18*
X142000000Y-96250000D03*
D19*
X152500000Y-95000000D03*
X172500000Y-122500000D03*
X142500000Y-125000000D03*
X140000000Y-125000000D03*
D18*
X128750000Y-85750000D03*
X127750000Y-82750000D03*
D19*
X170000000Y-127500000D03*
D18*
X145000000Y-59817500D03*
D19*
X160000000Y-117500000D03*
X165000000Y-125000000D03*
D18*
X143250000Y-97250000D03*
D19*
X122500000Y-110000000D03*
X122500000Y-127500000D03*
X125000000Y-112500000D03*
X150000000Y-105000000D03*
X165000000Y-127500000D03*
X125000000Y-120000000D03*
X122500000Y-100000000D03*
X167500000Y-125000000D03*
X152500000Y-102500000D03*
D18*
X127500000Y-69500000D03*
D19*
X165000000Y-77500000D03*
X172500000Y-95000000D03*
X125000000Y-110000000D03*
D18*
X152500000Y-115250000D03*
D19*
X170000000Y-115000000D03*
X155000000Y-62500000D03*
X122500000Y-125000000D03*
X172500000Y-102500000D03*
D18*
X162250000Y-62000000D03*
D19*
X155000000Y-127500000D03*
X125000000Y-97500000D03*
X135000000Y-112500000D03*
X170000000Y-105000000D03*
X150000000Y-100000000D03*
X132500000Y-122500000D03*
X170000000Y-85000000D03*
X160000000Y-127500000D03*
D18*
X129500000Y-87250000D03*
D19*
X152500000Y-125000000D03*
X160000000Y-115000000D03*
X152500000Y-127500000D03*
X160000000Y-57500000D03*
D18*
X147500000Y-59047500D03*
D19*
X135000000Y-127500000D03*
D18*
X153000000Y-56500000D03*
X162500000Y-92000000D03*
X160750000Y-98500000D03*
D19*
X125000000Y-100000000D03*
D18*
X132000000Y-97500000D03*
D19*
X122500000Y-117500000D03*
X170000000Y-87500000D03*
X142500000Y-87500000D03*
X150000000Y-95000000D03*
D18*
X125250000Y-82650000D03*
X122250000Y-59250000D03*
X163265000Y-55000000D03*
D19*
X167500000Y-85000000D03*
X135000000Y-120000000D03*
D18*
X152500000Y-86770000D03*
X174000000Y-82250000D03*
D19*
X125000000Y-107500000D03*
D18*
X164000000Y-83000000D03*
D19*
X132500000Y-125000000D03*
D18*
X174000000Y-77500000D03*
D19*
X132500000Y-127500000D03*
X155000000Y-60000000D03*
D18*
X160750000Y-89250000D03*
X164500000Y-64750000D03*
D19*
X155000000Y-125000000D03*
X125000000Y-102500000D03*
X130000000Y-125000000D03*
X162500000Y-122500000D03*
D18*
X130000000Y-73750000D03*
D19*
X160000000Y-80000000D03*
X170000000Y-77500000D03*
X157500000Y-120000000D03*
D18*
X131000000Y-69500000D03*
D19*
X137500000Y-115000000D03*
X140000000Y-122500000D03*
X165000000Y-122500000D03*
X145000000Y-117500000D03*
D18*
X166247176Y-82508473D03*
X127000000Y-89000000D03*
D19*
X172500000Y-97500000D03*
X172500000Y-107500000D03*
X167500000Y-120000000D03*
X142500000Y-115000000D03*
D18*
X167250000Y-113000000D03*
X133250000Y-97250000D03*
D19*
X170000000Y-107500000D03*
D18*
X131250000Y-79250000D03*
D19*
X172500000Y-120000000D03*
X160000000Y-60000000D03*
D18*
X122400000Y-78900000D03*
D19*
X157500000Y-115000000D03*
D18*
X139500000Y-58000000D03*
X144250000Y-59297500D03*
D19*
X162500000Y-77500000D03*
X150000000Y-65000000D03*
X170000000Y-92500000D03*
X152500000Y-112500000D03*
X172500000Y-112500000D03*
D18*
X151000000Y-86770000D03*
D19*
X167500000Y-77500000D03*
D18*
X124000000Y-69500000D03*
X142000000Y-98250000D03*
X134250000Y-55000000D03*
X143250000Y-98250000D03*
X150250000Y-59297500D03*
D19*
X127500000Y-120000000D03*
X170000000Y-97500000D03*
X155000000Y-120000000D03*
X172500000Y-87500000D03*
X127500000Y-117500000D03*
X172500000Y-85000000D03*
D18*
X153250000Y-87250000D03*
D19*
X125000000Y-127500000D03*
X172500000Y-100000000D03*
X142500000Y-120000000D03*
X152500000Y-100000000D03*
D18*
X162500000Y-97750000D03*
D19*
X122500000Y-122500000D03*
D18*
X165250000Y-107000000D03*
D19*
X170000000Y-102500000D03*
X147500000Y-102500000D03*
X122500000Y-95000000D03*
X150000000Y-97500000D03*
X152500000Y-122500000D03*
X130000000Y-120000000D03*
D18*
X162250000Y-61250000D03*
D19*
X172500000Y-117500000D03*
X127500000Y-127500000D03*
D18*
X123900000Y-74400000D03*
D19*
X172500000Y-105000000D03*
D18*
X162250000Y-67750000D03*
D19*
X172500000Y-90000000D03*
X150000000Y-70000000D03*
X155000000Y-115000000D03*
X157500000Y-127500000D03*
X170000000Y-125000000D03*
X137500000Y-127500000D03*
D18*
X165250000Y-109750000D03*
X133750000Y-69750000D03*
D19*
X125000000Y-125000000D03*
D18*
X132000000Y-103250000D03*
X164500000Y-63750000D03*
D19*
X172500000Y-127500000D03*
X135000000Y-115000000D03*
D18*
X162250000Y-68750000D03*
D19*
X170000000Y-110000000D03*
D18*
X160265000Y-55000000D03*
D19*
X170000000Y-90000000D03*
X125000000Y-70000000D03*
X157500000Y-117500000D03*
X132500000Y-120000000D03*
X152500000Y-105000000D03*
X162500000Y-57500000D03*
X152500000Y-62500000D03*
D18*
X127750000Y-74250000D03*
X139750000Y-76125500D03*
X168500000Y-83750000D03*
D19*
X122500000Y-102500000D03*
D18*
X132250000Y-71250000D03*
D19*
X135000000Y-97500000D03*
X150000000Y-102500000D03*
X135000000Y-105000000D03*
D18*
X122750000Y-83750000D03*
D19*
X125000000Y-105000000D03*
D18*
X133750000Y-113000000D03*
D19*
X130000000Y-122500000D03*
X152500000Y-120000000D03*
X170000000Y-120000000D03*
X130000000Y-127500000D03*
X162500000Y-125000000D03*
D18*
X142000000Y-97250000D03*
D19*
X122500000Y-97500000D03*
X160000000Y-120000000D03*
X167500000Y-115000000D03*
X152500000Y-97500000D03*
D18*
X130500000Y-59750000D03*
D19*
X137500000Y-117500000D03*
X122500000Y-105000000D03*
D18*
X132750000Y-59750000D03*
D19*
X160000000Y-67500000D03*
X135000000Y-107500000D03*
D18*
X146250000Y-109750000D03*
D19*
X170000000Y-95000000D03*
D18*
X131750000Y-59750000D03*
X137250000Y-69500000D03*
D19*
X172500000Y-92500000D03*
X162500000Y-60000000D03*
X150000000Y-120000000D03*
D18*
X163250000Y-105000000D03*
D19*
X155000000Y-67500000D03*
X162500000Y-127500000D03*
X162500000Y-120000000D03*
X127500000Y-125000000D03*
X140000000Y-115000000D03*
X135000000Y-102500000D03*
D18*
X136000000Y-84750000D03*
D19*
X155000000Y-117500000D03*
X160000000Y-125000000D03*
X152500000Y-117500000D03*
X122500000Y-70000000D03*
X140000000Y-120000000D03*
D18*
X142000000Y-57047500D03*
D19*
X142500000Y-117500000D03*
D18*
%TO.N,+5V*%
X162250000Y-66500000D03*
X164250000Y-59250000D03*
%TO.N,+3V3*%
X137250000Y-55000000D03*
X121750000Y-81000000D03*
X138500000Y-82750000D03*
X129250000Y-82750000D03*
X139250000Y-66500000D03*
X152000000Y-70000000D03*
X138565516Y-74065516D03*
X137000000Y-66250000D03*
X132350497Y-69750000D03*
%TO.N,/MCU/NRST*%
X122250000Y-62500000D03*
X131500000Y-77750000D03*
%TO.N,/ADC/ADC_VREF*%
X161760050Y-81250000D03*
X160500000Y-86500000D03*
%TO.N,SPI2_NSS*%
X141000000Y-78250000D03*
X140000000Y-81500000D03*
%TO.N,SPI1_NSS*%
X133244978Y-86000698D03*
X134250000Y-87500000D03*
%TO.N,/MCU/TIM4_CH3*%
X132250000Y-72500000D03*
X130750000Y-56000000D03*
%TO.N,/MCU/TIM4_CH1*%
X134250000Y-75250000D03*
X130750000Y-54000000D03*
%TO.N,/MCU/TIM4_CH2*%
X130750000Y-52000000D03*
X133250000Y-75500000D03*
%TO.N,VCOM*%
X162000000Y-82500000D03*
X160500000Y-104500000D03*
%TO.N,DAC_NCLR*%
X135000000Y-83750000D03*
X134000000Y-94250000D03*
%TO.N,DAC_NLDAC*%
X134000000Y-95250000D03*
X135250000Y-80500000D03*
%TO.N,/Power/Buck-3.3V*%
X161250000Y-66500000D03*
X165750000Y-70250000D03*
%TO.N,Net-(R101-Pad1)*%
X146000000Y-86500000D03*
X152250000Y-76000000D03*
%TD*%
D20*
%TO.N,GND*%
X149900000Y-124005888D02*
X149900000Y-125000000D01*
X170994112Y-57400000D02*
X170000000Y-57400000D01*
X170000000Y-57400000D02*
X169005888Y-57400000D01*
X171697056Y-56697056D02*
X170994112Y-57400000D01*
X127400000Y-55994112D02*
X126697056Y-56697056D01*
X123302944Y-56697056D02*
X122600000Y-55994112D01*
X148494112Y-122600000D02*
X149197056Y-123302944D01*
X122600000Y-54005888D02*
X122600000Y-55000000D01*
X170994112Y-52600000D02*
X171697056Y-53302944D01*
X167600000Y-55994112D02*
X167600000Y-55000000D01*
X147500000Y-127400000D02*
X146505888Y-127400000D01*
X168302944Y-53302944D02*
X169005888Y-52600000D01*
X172400000Y-55994112D02*
X171697056Y-56697056D01*
X123302944Y-53302944D02*
X122600000Y-54005888D01*
X171697056Y-53302944D02*
X172400000Y-54005888D01*
X127400000Y-55000000D02*
X127400000Y-55994112D01*
X125000000Y-52600000D02*
X125994112Y-52600000D01*
X149197056Y-123302944D02*
X149900000Y-124005888D01*
X124005888Y-57400000D02*
X123302944Y-56697056D01*
X145100000Y-125000000D02*
X145100000Y-124005888D01*
X125000000Y-57400000D02*
X124005888Y-57400000D01*
X149900000Y-125000000D02*
X149900000Y-125994112D01*
X168302944Y-56697056D02*
X167600000Y-55994112D01*
X172400000Y-54005888D02*
X172400000Y-55000000D01*
X147500000Y-122600000D02*
X148494112Y-122600000D01*
X146505888Y-127400000D02*
X145802944Y-126697056D01*
X123302944Y-53302944D02*
X124005888Y-52600000D01*
X145100000Y-125994112D02*
X145100000Y-125000000D01*
X149900000Y-125994112D02*
X149197056Y-126697056D01*
X167600000Y-54005888D02*
X168302944Y-53302944D01*
X124005888Y-52600000D02*
X125000000Y-52600000D01*
X146505888Y-122600000D02*
X147500000Y-122600000D01*
X169005888Y-52600000D02*
X170000000Y-52600000D01*
X169005888Y-57400000D02*
X168302944Y-56697056D01*
X167600000Y-55000000D02*
X167600000Y-54005888D01*
X145802944Y-126697056D02*
X145100000Y-125994112D01*
X145802944Y-123302944D02*
X146505888Y-122600000D01*
X125994112Y-52600000D02*
X126697056Y-53302944D01*
X170000000Y-52600000D02*
X170994112Y-52600000D01*
X125994112Y-57400000D02*
X125000000Y-57400000D01*
X126697056Y-56697056D02*
X125994112Y-57400000D01*
X172400000Y-55000000D02*
X172400000Y-55994112D01*
X122600000Y-55994112D02*
X122600000Y-55000000D01*
X145100000Y-124005888D02*
X145802944Y-123302944D01*
%TO.N,+5V*%
X162250000Y-66500000D02*
X162950000Y-65800000D01*
X162950000Y-65800000D02*
X162950000Y-62800000D01*
X162950000Y-62800000D02*
X164000000Y-61750000D01*
X164000000Y-61750000D02*
X164250000Y-61500000D01*
X164250000Y-61500000D02*
X164250000Y-59250000D01*
D21*
%TO.N,+3V3*%
X139500000Y-66750000D02*
X139250000Y-66500000D01*
X135500000Y-66250000D02*
X137000000Y-66250000D01*
X136000000Y-60250000D02*
X134000000Y-60250000D01*
X121750000Y-81000000D02*
X122000000Y-80750000D01*
X134000000Y-60250000D02*
X133540000Y-60710000D01*
X129250000Y-82750000D02*
X129250000Y-80750000D01*
X136750000Y-61000000D02*
X136000000Y-60250000D01*
X122000000Y-80750000D02*
X129250000Y-80750000D01*
X151250000Y-66750000D02*
X139500000Y-66750000D01*
X138565516Y-74065516D02*
X138500000Y-74131032D01*
X138565516Y-74065516D02*
X131881032Y-80750000D01*
X138500000Y-74131032D02*
X138500000Y-82750000D01*
X132350497Y-69850497D02*
X136000000Y-73500000D01*
X139250000Y-59750000D02*
X137250000Y-57750000D01*
X152000000Y-67500000D02*
X151250000Y-66750000D01*
X132350497Y-69750000D02*
X132350497Y-69850497D01*
X139250000Y-66500000D02*
X139250000Y-59750000D01*
X137000000Y-66250000D02*
X136750000Y-66000000D01*
X137250000Y-57750000D02*
X137250000Y-55000000D01*
X136000000Y-73500000D02*
X138000000Y-73500000D01*
X132350497Y-69750000D02*
X132350497Y-69399503D01*
X138000000Y-73500000D02*
X138565516Y-74065516D01*
X136750000Y-66000000D02*
X136750000Y-61000000D01*
X133540000Y-60710000D02*
X133540000Y-61365000D01*
X132350497Y-69399503D02*
X135500000Y-66250000D01*
X131881032Y-80750000D02*
X129250000Y-80750000D01*
X152000000Y-70000000D02*
X152000000Y-67500000D01*
D20*
%TO.N,/MCU/NRST*%
X122250000Y-64000000D02*
X122250000Y-62500000D01*
X131500000Y-77750000D02*
X131500000Y-76500000D01*
X126500000Y-68250000D02*
X122250000Y-64000000D01*
X126500000Y-71500000D02*
X126500000Y-68250000D01*
X131500000Y-76500000D02*
X126500000Y-71500000D01*
%TO.N,/ADC/ADC_VREF*%
X161250000Y-81250000D02*
X160500000Y-82000000D01*
X161760050Y-81250000D02*
X161250000Y-81250000D01*
X160500000Y-82000000D02*
X160500000Y-86500000D01*
%TO.N,SPI2_NSS*%
X140500000Y-81000000D02*
X140000000Y-81500000D01*
X140500000Y-78750000D02*
X140500000Y-81000000D01*
X141000000Y-78250000D02*
X140500000Y-78750000D01*
%TO.N,SPI1_NSS*%
X134250000Y-87500000D02*
X134250000Y-87005720D01*
X134250000Y-87005720D02*
X133244978Y-86000698D01*
%TO.N,/MCU/TIM4_CH3*%
X129750000Y-67625000D02*
X126000000Y-63875000D01*
X128750000Y-60000000D02*
X130750000Y-58000000D01*
X126000000Y-63875000D02*
X126000000Y-61000000D01*
X127000000Y-60000000D02*
X128750000Y-60000000D01*
X129750000Y-70000000D02*
X129750000Y-67625000D01*
X132250000Y-72500000D02*
X129750000Y-70000000D01*
X130750000Y-58000000D02*
X130750000Y-56000000D01*
X126000000Y-61000000D02*
X127000000Y-60000000D01*
%TO.N,/MCU/TIM4_CH1*%
X130000000Y-54750000D02*
X130750000Y-54000000D01*
X130000000Y-57750000D02*
X130000000Y-54750000D01*
X134000000Y-75250000D02*
X129000000Y-70250000D01*
X125250000Y-64500000D02*
X125250000Y-60750000D01*
X126750000Y-59250000D02*
X128500000Y-59250000D01*
X134250000Y-75250000D02*
X134000000Y-75250000D01*
X129000000Y-70250000D02*
X129000000Y-68250000D01*
X128500000Y-59250000D02*
X130000000Y-57750000D01*
X129000000Y-68250000D02*
X125250000Y-64500000D01*
X125250000Y-60750000D02*
X126750000Y-59250000D01*
%TO.N,/MCU/TIM4_CH2*%
X128000000Y-58500000D02*
X129250000Y-57250000D01*
X126500000Y-58500000D02*
X128000000Y-58500000D01*
X129250000Y-53500000D02*
X130750000Y-52000000D01*
X124250000Y-64750000D02*
X124250000Y-60750000D01*
X128250000Y-68750000D02*
X124250000Y-64750000D01*
X124250000Y-60750000D02*
X126500000Y-58500000D01*
X133250000Y-75500000D02*
X133074620Y-75500000D01*
X133074620Y-75500000D02*
X128250000Y-70675380D01*
X128250000Y-70675380D02*
X128250000Y-68750000D01*
X129250000Y-57250000D02*
X129250000Y-53500000D01*
%TO.N,VCOM*%
X162250000Y-90000000D02*
X161500000Y-90750000D01*
X162250000Y-82750000D02*
X162250000Y-90000000D01*
X162000000Y-82500000D02*
X162250000Y-82750000D01*
X161500000Y-103500000D02*
X160500000Y-104500000D01*
X161500000Y-90750000D02*
X161500000Y-103500000D01*
%TO.N,DAC_NCLR*%
X134000000Y-94250000D02*
X125125000Y-94250000D01*
X123250000Y-88750000D02*
X127000000Y-85000000D01*
X127000000Y-85000000D02*
X133750000Y-85000000D01*
X125125000Y-94250000D02*
X123250000Y-92375000D01*
X133750000Y-85000000D02*
X135000000Y-83750000D01*
X123250000Y-92375000D02*
X123250000Y-88750000D01*
%TO.N,DAC_NLDAC*%
X122250000Y-88000000D02*
X122250000Y-92750000D01*
X134000000Y-81500000D02*
X134000000Y-83000000D01*
X133250000Y-83750000D02*
X126500000Y-83750000D01*
X135250000Y-80500000D02*
X135000000Y-80500000D01*
X135000000Y-80500000D02*
X134000000Y-81500000D01*
X124750000Y-95250000D02*
X134000000Y-95250000D01*
X126500000Y-83750000D02*
X122250000Y-88000000D01*
X134000000Y-83000000D02*
X133250000Y-83750000D01*
X122250000Y-92750000D02*
X124750000Y-95250000D01*
%TO.N,/Power/Buck-3.3V*%
X161250000Y-69750000D02*
X161250000Y-66500000D01*
X165750000Y-70250000D02*
X161750000Y-70250000D01*
X161750000Y-70250000D02*
X161250000Y-69750000D01*
D21*
%TO.N,Net-(R101-Pad1)*%
X146000000Y-80500000D02*
X150500000Y-76000000D01*
X150500000Y-76000000D02*
X152250000Y-76000000D01*
X146000000Y-86500000D02*
X146000000Y-80500000D01*
%TD*%
%TA.AperFunction,Conductor*%
%TO.N,GND*%
G36*
X128678912Y-60652396D02*
G01*
X128678961Y-60651878D01*
X128697626Y-60653642D01*
X128697380Y-60656237D01*
X128758320Y-60670524D01*
X128814549Y-60723317D01*
X128836848Y-60797151D01*
X128819328Y-60872083D01*
X128768695Y-60966809D01*
X128709483Y-61162003D01*
X128689490Y-61365001D01*
X128696766Y-61438880D01*
X128684201Y-61514978D01*
X128635271Y-61574598D01*
X128563086Y-61601766D01*
X128533880Y-61601766D01*
X128471743Y-61595646D01*
X128460000Y-61594490D01*
X128459999Y-61594490D01*
X128386119Y-61601766D01*
X128310021Y-61589201D01*
X128250401Y-61540271D01*
X128223233Y-61468086D01*
X128223234Y-61438878D01*
X128226069Y-61410090D01*
X128230510Y-61365000D01*
X128210517Y-61162007D01*
X128208957Y-61156866D01*
X128168039Y-61021977D01*
X128151306Y-60966814D01*
X128099418Y-60869739D01*
X128081904Y-60794625D01*
X128104293Y-60720818D01*
X128160585Y-60668094D01*
X128230824Y-60650500D01*
X128661734Y-60650500D01*
X128678912Y-60652396D01*
G37*
%TD.AperFunction*%
%TA.AperFunction,Conductor*%
G36*
X171001818Y-50500590D02*
G01*
X171339360Y-50517172D01*
X171346631Y-50517888D01*
X171679103Y-50567205D01*
X171686265Y-50568631D01*
X171880966Y-50617400D01*
X172012309Y-50650300D01*
X172019293Y-50652418D01*
X172335762Y-50765653D01*
X172342515Y-50768451D01*
X172646356Y-50912157D01*
X172652786Y-50915595D01*
X172941087Y-51088395D01*
X172947151Y-51092447D01*
X173210327Y-51287632D01*
X173217116Y-51292667D01*
X173222771Y-51297308D01*
X173471806Y-51523020D01*
X173476978Y-51528192D01*
X173551647Y-51610577D01*
X173702691Y-51777228D01*
X173707331Y-51782882D01*
X173868357Y-52000000D01*
X173907545Y-52052838D01*
X173911609Y-52058920D01*
X174084402Y-52347209D01*
X174087845Y-52353651D01*
X174104765Y-52389423D01*
X174231548Y-52657485D01*
X174234348Y-52664243D01*
X174347578Y-52980698D01*
X174349702Y-52987699D01*
X174431368Y-53313734D01*
X174432796Y-53320909D01*
X174482110Y-53653358D01*
X174482827Y-53660638D01*
X174499410Y-53998182D01*
X174499500Y-54001838D01*
X174499500Y-125998161D01*
X174499410Y-126001817D01*
X174482827Y-126339361D01*
X174482110Y-126346641D01*
X174432796Y-126679090D01*
X174431368Y-126686265D01*
X174349702Y-127012300D01*
X174347578Y-127019301D01*
X174234348Y-127335756D01*
X174231548Y-127342514D01*
X174087851Y-127646338D01*
X174084402Y-127652790D01*
X173911609Y-127941079D01*
X173907545Y-127947161D01*
X173707332Y-128217116D01*
X173702691Y-128222771D01*
X173476979Y-128471806D01*
X173471806Y-128476979D01*
X173222771Y-128702691D01*
X173217116Y-128707332D01*
X172947161Y-128907545D01*
X172941079Y-128911609D01*
X172652790Y-129084402D01*
X172646338Y-129087851D01*
X172342514Y-129231548D01*
X172335756Y-129234348D01*
X172019301Y-129347578D01*
X172012300Y-129349702D01*
X171686265Y-129431368D01*
X171679090Y-129432796D01*
X171346641Y-129482110D01*
X171339361Y-129482827D01*
X171001818Y-129499410D01*
X170998162Y-129499500D01*
X124001838Y-129499500D01*
X123998182Y-129499410D01*
X123660638Y-129482827D01*
X123653358Y-129482110D01*
X123320909Y-129432796D01*
X123313734Y-129431368D01*
X122987699Y-129349702D01*
X122980698Y-129347578D01*
X122664243Y-129234348D01*
X122657485Y-129231548D01*
X122505573Y-129159699D01*
X122353651Y-129087845D01*
X122347209Y-129084402D01*
X122058920Y-128911609D01*
X122052843Y-128907548D01*
X121782882Y-128707331D01*
X121777228Y-128702691D01*
X121528193Y-128476979D01*
X121523020Y-128471806D01*
X121476447Y-128420421D01*
X121297307Y-128222770D01*
X121292667Y-128217116D01*
X121191034Y-128080080D01*
X121092447Y-127947151D01*
X121088395Y-127941087D01*
X120915595Y-127652786D01*
X120912157Y-127646356D01*
X120768451Y-127342514D01*
X120765651Y-127335756D01*
X120652421Y-127019301D01*
X120650300Y-127012309D01*
X120617400Y-126880966D01*
X120568631Y-126686265D01*
X120567205Y-126679103D01*
X120517888Y-126346631D01*
X120517172Y-126339360D01*
X120500590Y-126001817D01*
X120500500Y-125998161D01*
X120500500Y-119954991D01*
X146669844Y-119954991D01*
X146679577Y-120134495D01*
X146679578Y-120134500D01*
X146727672Y-120307720D01*
X146727672Y-120307721D01*
X146811881Y-120466556D01*
X146811882Y-120466558D01*
X146928262Y-120603571D01*
X146928265Y-120603574D01*
X147071382Y-120712369D01*
X147234541Y-120787854D01*
X147410113Y-120826500D01*
X147410118Y-120826500D01*
X147544807Y-120826500D01*
X147544816Y-120826500D01*
X147678721Y-120811937D01*
X147762468Y-120783719D01*
X147849083Y-120754536D01*
X147849090Y-120754532D01*
X148003121Y-120661854D01*
X148003120Y-120661854D01*
X148003126Y-120661851D01*
X148133642Y-120538220D01*
X148234529Y-120389423D01*
X148301070Y-120222416D01*
X148330155Y-120045010D01*
X148320422Y-119865499D01*
X148272327Y-119692277D01*
X148188119Y-119533444D01*
X148188117Y-119533442D01*
X148188117Y-119533441D01*
X148071737Y-119396428D01*
X148071736Y-119396427D01*
X148071735Y-119396426D01*
X147995068Y-119338145D01*
X147928620Y-119287632D01*
X147928616Y-119287630D01*
X147765459Y-119212146D01*
X147589887Y-119173500D01*
X147455184Y-119173500D01*
X147455183Y-119173500D01*
X147321275Y-119188063D01*
X147321273Y-119188064D01*
X147150916Y-119245463D01*
X147150909Y-119245467D01*
X146996878Y-119338145D01*
X146935349Y-119396428D01*
X146866358Y-119461780D01*
X146765471Y-119610577D01*
X146765469Y-119610579D01*
X146765469Y-119610581D01*
X146698930Y-119777583D01*
X146669845Y-119954990D01*
X146669844Y-119954991D01*
X120500500Y-119954991D01*
X120500500Y-117000000D01*
X129544529Y-117000000D01*
X129564380Y-117239564D01*
X129623390Y-117472593D01*
X129719948Y-117692722D01*
X129719951Y-117692728D01*
X129816546Y-117840577D01*
X129851428Y-117893968D01*
X130014238Y-118070827D01*
X130014240Y-118070829D01*
X130109084Y-118144648D01*
X130203933Y-118218472D01*
X130415344Y-118332882D01*
X130642703Y-118410934D01*
X130879808Y-118450500D01*
X130879811Y-118450500D01*
X131120189Y-118450500D01*
X131120192Y-118450500D01*
X131357297Y-118410934D01*
X131584656Y-118332882D01*
X131796067Y-118218472D01*
X131985764Y-118070825D01*
X132148571Y-117893969D01*
X132280049Y-117692728D01*
X132376610Y-117472591D01*
X132435620Y-117239563D01*
X132455471Y-117000000D01*
X162544529Y-117000000D01*
X162564380Y-117239564D01*
X162623390Y-117472593D01*
X162719948Y-117692722D01*
X162719951Y-117692728D01*
X162816546Y-117840577D01*
X162851428Y-117893968D01*
X163014238Y-118070827D01*
X163014240Y-118070829D01*
X163109084Y-118144648D01*
X163203933Y-118218472D01*
X163415344Y-118332882D01*
X163642703Y-118410934D01*
X163879808Y-118450500D01*
X163879811Y-118450500D01*
X164120189Y-118450500D01*
X164120192Y-118450500D01*
X164357297Y-118410934D01*
X164584656Y-118332882D01*
X164796067Y-118218472D01*
X164985764Y-118070825D01*
X165148571Y-117893969D01*
X165280049Y-117692728D01*
X165376610Y-117472591D01*
X165435620Y-117239563D01*
X165455471Y-117000000D01*
X165435620Y-116760437D01*
X165376610Y-116527409D01*
X165280049Y-116307272D01*
X165148571Y-116106031D01*
X164985764Y-115929175D01*
X164985763Y-115929174D01*
X164985761Y-115929172D01*
X164985759Y-115929170D01*
X164867203Y-115836895D01*
X164796067Y-115781528D01*
X164768144Y-115766417D01*
X164584657Y-115667118D01*
X164357300Y-115589067D01*
X164357299Y-115589066D01*
X164357297Y-115589066D01*
X164120192Y-115549500D01*
X163879808Y-115549500D01*
X163642703Y-115589066D01*
X163642701Y-115589066D01*
X163642699Y-115589067D01*
X163415342Y-115667118D01*
X163203934Y-115781527D01*
X163203929Y-115781531D01*
X163014240Y-115929170D01*
X163014238Y-115929172D01*
X162851428Y-116106031D01*
X162719950Y-116307274D01*
X162719948Y-116307277D01*
X162623390Y-116527406D01*
X162564380Y-116760435D01*
X162544529Y-116999999D01*
X162544529Y-117000000D01*
X132455471Y-117000000D01*
X132435620Y-116760437D01*
X132376610Y-116527409D01*
X132280049Y-116307272D01*
X132148571Y-116106031D01*
X131985764Y-115929175D01*
X131985763Y-115929174D01*
X131985761Y-115929172D01*
X131985759Y-115929170D01*
X131867203Y-115836895D01*
X131796067Y-115781528D01*
X131768144Y-115766417D01*
X131584657Y-115667118D01*
X131357300Y-115589067D01*
X131357299Y-115589066D01*
X131357297Y-115589066D01*
X131120192Y-115549500D01*
X130879808Y-115549500D01*
X130642703Y-115589066D01*
X130642701Y-115589066D01*
X130642699Y-115589067D01*
X130415342Y-115667118D01*
X130203934Y-115781527D01*
X130203929Y-115781531D01*
X130014240Y-115929170D01*
X130014238Y-115929172D01*
X129851428Y-116106031D01*
X129719950Y-116307274D01*
X129719948Y-116307277D01*
X129623390Y-116527406D01*
X129564380Y-116760435D01*
X129544529Y-116999999D01*
X129544529Y-117000000D01*
X120500500Y-117000000D01*
X120500500Y-84954991D01*
X121169844Y-84954991D01*
X121179577Y-85134495D01*
X121179578Y-85134500D01*
X121227672Y-85307720D01*
X121227672Y-85307721D01*
X121311881Y-85466556D01*
X121311882Y-85466558D01*
X121428262Y-85603571D01*
X121428265Y-85603574D01*
X121531228Y-85681844D01*
X121547403Y-85694141D01*
X121571382Y-85712369D01*
X121734541Y-85787854D01*
X121910113Y-85826500D01*
X121910118Y-85826500D01*
X122044807Y-85826500D01*
X122044816Y-85826500D01*
X122178721Y-85811937D01*
X122262468Y-85783719D01*
X122349083Y-85754536D01*
X122349090Y-85754532D01*
X122449460Y-85694141D01*
X122503126Y-85661851D01*
X122633642Y-85538220D01*
X122734529Y-85389423D01*
X122801070Y-85222416D01*
X122830155Y-85045010D01*
X122828934Y-85022499D01*
X122820422Y-84865504D01*
X122820422Y-84865499D01*
X122772327Y-84692277D01*
X122688119Y-84533444D01*
X122688117Y-84533442D01*
X122688117Y-84533441D01*
X122571737Y-84396428D01*
X122571736Y-84396427D01*
X122571735Y-84396426D01*
X122495068Y-84338145D01*
X122428620Y-84287632D01*
X122428616Y-84287630D01*
X122265459Y-84212146D01*
X122089887Y-84173500D01*
X121955184Y-84173500D01*
X121955183Y-84173500D01*
X121821275Y-84188063D01*
X121821273Y-84188064D01*
X121650916Y-84245463D01*
X121650909Y-84245467D01*
X121496878Y-84338145D01*
X121435349Y-84396428D01*
X121366358Y-84461780D01*
X121265471Y-84610577D01*
X121265469Y-84610579D01*
X121265469Y-84610581D01*
X121198930Y-84777583D01*
X121169845Y-84954990D01*
X121169844Y-84954991D01*
X120500500Y-84954991D01*
X120500500Y-81000000D01*
X120894815Y-81000000D01*
X120913502Y-81177800D01*
X120913503Y-81177803D01*
X120968750Y-81347835D01*
X121015620Y-81429016D01*
X121058143Y-81502669D01*
X121177768Y-81635524D01*
X121177770Y-81635526D01*
X121322407Y-81740612D01*
X121322409Y-81740613D01*
X121322411Y-81740614D01*
X121485724Y-81813325D01*
X121485733Y-81813329D01*
X121634525Y-81844955D01*
X121660608Y-81850500D01*
X121660609Y-81850500D01*
X121839392Y-81850500D01*
X121862089Y-81845675D01*
X122014267Y-81813329D01*
X122177593Y-81740612D01*
X122322230Y-81635526D01*
X122399418Y-81549799D01*
X122464103Y-81507793D01*
X122510147Y-81500500D01*
X128350500Y-81500500D01*
X128425000Y-81520462D01*
X128479538Y-81575000D01*
X128499500Y-81649500D01*
X128499500Y-82308980D01*
X128479539Y-82383478D01*
X128468752Y-82402161D01*
X128468748Y-82402170D01*
X128413502Y-82572199D01*
X128394815Y-82750000D01*
X128414251Y-82934926D01*
X128402185Y-83011104D01*
X128353647Y-83071044D01*
X128281641Y-83098684D01*
X128266067Y-83099500D01*
X126588266Y-83099500D01*
X126571087Y-83097603D01*
X126571038Y-83098122D01*
X126561701Y-83097239D01*
X126491791Y-83099436D01*
X126489783Y-83099500D01*
X126459075Y-83099500D01*
X126459068Y-83099500D01*
X126459065Y-83099501D01*
X126452378Y-83100345D01*
X126445390Y-83100894D01*
X126397434Y-83102401D01*
X126397428Y-83102402D01*
X126378928Y-83107776D01*
X126356047Y-83112514D01*
X126336948Y-83114927D01*
X126336942Y-83114928D01*
X126292325Y-83132592D01*
X126285685Y-83134866D01*
X126239599Y-83148256D01*
X126223021Y-83158060D01*
X126202030Y-83168344D01*
X126184133Y-83175430D01*
X126184125Y-83175434D01*
X126145312Y-83203634D01*
X126139444Y-83207488D01*
X126098133Y-83231919D01*
X126084511Y-83245541D01*
X126066744Y-83260716D01*
X126051163Y-83272037D01*
X126020575Y-83309009D01*
X126015850Y-83314202D01*
X121852434Y-87477618D01*
X121838950Y-87488422D01*
X121839282Y-87488823D01*
X121832059Y-87494798D01*
X121782810Y-87547243D01*
X121761094Y-87568959D01*
X121761080Y-87568975D01*
X121756944Y-87574305D01*
X121752395Y-87579631D01*
X121719551Y-87614607D01*
X121710273Y-87631484D01*
X121697444Y-87651014D01*
X121685638Y-87666235D01*
X121685636Y-87666239D01*
X121666581Y-87710270D01*
X121663494Y-87716572D01*
X121640374Y-87758629D01*
X121640373Y-87758630D01*
X121635581Y-87777294D01*
X121628011Y-87799403D01*
X121620364Y-87817075D01*
X121612859Y-87864460D01*
X121611436Y-87871334D01*
X121599500Y-87917823D01*
X121599500Y-87917825D01*
X121599500Y-87937078D01*
X121597665Y-87960389D01*
X121594653Y-87979403D01*
X121599169Y-88027180D01*
X121599500Y-88034196D01*
X121599500Y-92661734D01*
X121597603Y-92678912D01*
X121598122Y-92678961D01*
X121597239Y-92688297D01*
X121599500Y-92760203D01*
X121599500Y-92790936D01*
X121600346Y-92797633D01*
X121600895Y-92804621D01*
X121602402Y-92852565D01*
X121602402Y-92852568D01*
X121607775Y-92871063D01*
X121612513Y-92893945D01*
X121614927Y-92913052D01*
X121614928Y-92913057D01*
X121632593Y-92957674D01*
X121634866Y-92964315D01*
X121648256Y-93010398D01*
X121648257Y-93010400D01*
X121658058Y-93026973D01*
X121668341Y-93047964D01*
X121675429Y-93065867D01*
X121675432Y-93065872D01*
X121703632Y-93104686D01*
X121707487Y-93110555D01*
X121723236Y-93137184D01*
X121731919Y-93151865D01*
X121731921Y-93151867D01*
X121745533Y-93165479D01*
X121760717Y-93183258D01*
X121772032Y-93198832D01*
X121772034Y-93198834D01*
X121772036Y-93198835D01*
X121772037Y-93198837D01*
X121797233Y-93219681D01*
X121809009Y-93229423D01*
X121814203Y-93234149D01*
X124227615Y-95647561D01*
X124238420Y-95661047D01*
X124238821Y-95660716D01*
X124244795Y-95667937D01*
X124297243Y-95717189D01*
X124318966Y-95738912D01*
X124318974Y-95738918D01*
X124324290Y-95743042D01*
X124329628Y-95747602D01*
X124362838Y-95778787D01*
X124364607Y-95780448D01*
X124381485Y-95789726D01*
X124401011Y-95802552D01*
X124416236Y-95814362D01*
X124449667Y-95828829D01*
X124460278Y-95833421D01*
X124466574Y-95836505D01*
X124508632Y-95859627D01*
X124527283Y-95864415D01*
X124549397Y-95871986D01*
X124567074Y-95879636D01*
X124598443Y-95884604D01*
X124614466Y-95887142D01*
X124621343Y-95888566D01*
X124636463Y-95892448D01*
X124667823Y-95900500D01*
X124687079Y-95900500D01*
X124710386Y-95902334D01*
X124729405Y-95905347D01*
X124763990Y-95902077D01*
X124777181Y-95900831D01*
X124784197Y-95900500D01*
X133399966Y-95900500D01*
X133474466Y-95920462D01*
X133487546Y-95928957D01*
X133572401Y-95990608D01*
X133572407Y-95990612D01*
X133735733Y-96063329D01*
X133884525Y-96094955D01*
X133910608Y-96100500D01*
X133910609Y-96100500D01*
X134089392Y-96100500D01*
X134112089Y-96095675D01*
X134264267Y-96063329D01*
X134427593Y-95990612D01*
X134572230Y-95885526D01*
X134646931Y-95802562D01*
X134691856Y-95752669D01*
X134691857Y-95752667D01*
X134691859Y-95752665D01*
X134781250Y-95597835D01*
X134836497Y-95427803D01*
X134855185Y-95250000D01*
X134836497Y-95072197D01*
X134781250Y-94902165D01*
X134736409Y-94824499D01*
X134716447Y-94750001D01*
X134736409Y-94675501D01*
X134736410Y-94675499D01*
X134781248Y-94597838D01*
X134781250Y-94597834D01*
X134836497Y-94427803D01*
X134855185Y-94250000D01*
X134836497Y-94072197D01*
X134781250Y-93902165D01*
X134691859Y-93747335D01*
X134691858Y-93747334D01*
X134691856Y-93747330D01*
X134572231Y-93614475D01*
X134427593Y-93509388D01*
X134427588Y-93509385D01*
X134264275Y-93436674D01*
X134264271Y-93436672D01*
X134264267Y-93436671D01*
X134147683Y-93411890D01*
X134089392Y-93399500D01*
X134089391Y-93399500D01*
X133910609Y-93399500D01*
X133910608Y-93399500D01*
X133823171Y-93418085D01*
X133735733Y-93436671D01*
X133735730Y-93436672D01*
X133735728Y-93436673D01*
X133572409Y-93509387D01*
X133572402Y-93509391D01*
X133487547Y-93571043D01*
X133415542Y-93598684D01*
X133399967Y-93599500D01*
X125456164Y-93599500D01*
X125381664Y-93579538D01*
X125350805Y-93555859D01*
X123944141Y-92149195D01*
X123905577Y-92082400D01*
X123900500Y-92043836D01*
X123900500Y-91118092D01*
X124499500Y-91118092D01*
X124536447Y-91351368D01*
X124609432Y-91575992D01*
X124716657Y-91786433D01*
X124855483Y-91977510D01*
X125022490Y-92144517D01*
X125213567Y-92283343D01*
X125424008Y-92390568D01*
X125648632Y-92463553D01*
X125881908Y-92500500D01*
X125964201Y-92500500D01*
X136934108Y-92500500D01*
X136995814Y-92500500D01*
X137004162Y-92500969D01*
X137094465Y-92511144D01*
X137126993Y-92518568D01*
X137200878Y-92544421D01*
X137230939Y-92558898D01*
X137297217Y-92600543D01*
X137323304Y-92621346D01*
X137378653Y-92676695D01*
X137399456Y-92702782D01*
X137441101Y-92769060D01*
X137455578Y-92799121D01*
X137481431Y-92873006D01*
X137488855Y-92905532D01*
X137499031Y-92995837D01*
X137499500Y-93004185D01*
X137499500Y-109934108D01*
X137499500Y-110000000D01*
X137499500Y-110118092D01*
X137536447Y-110351368D01*
X137609432Y-110575992D01*
X137716657Y-110786433D01*
X137855483Y-110977510D01*
X138022490Y-111144517D01*
X138213567Y-111283343D01*
X138424008Y-111390568D01*
X138648632Y-111463553D01*
X138881908Y-111500500D01*
X138881913Y-111500500D01*
X139118087Y-111500500D01*
X139118092Y-111500500D01*
X139351368Y-111463553D01*
X139575992Y-111390568D01*
X139786433Y-111283343D01*
X139977510Y-111144517D01*
X140144517Y-110977510D01*
X140283343Y-110786433D01*
X140390568Y-110575992D01*
X140463553Y-110351368D01*
X140500500Y-110118092D01*
X140500500Y-110000000D01*
X140500500Y-109934108D01*
X140500500Y-93077910D01*
X140500501Y-93077897D01*
X140500501Y-93004185D01*
X140500970Y-92995838D01*
X140505270Y-92957674D01*
X140511144Y-92905530D01*
X140518567Y-92873009D01*
X140544423Y-92799117D01*
X140558894Y-92769067D01*
X140600547Y-92702777D01*
X140621343Y-92676700D01*
X140676700Y-92621343D01*
X140702777Y-92600547D01*
X140769067Y-92558894D01*
X140799117Y-92544423D01*
X140873009Y-92518567D01*
X140905530Y-92511144D01*
X140964502Y-92504500D01*
X140995839Y-92500970D01*
X141004186Y-92500501D01*
X141127604Y-92500501D01*
X141127612Y-92500500D01*
X152118087Y-92500500D01*
X152118092Y-92500500D01*
X152351368Y-92463553D01*
X152575992Y-92390568D01*
X152786433Y-92283343D01*
X152977510Y-92144517D01*
X153144517Y-91977510D01*
X153283343Y-91786433D01*
X153390568Y-91575992D01*
X153463553Y-91351368D01*
X153500500Y-91118092D01*
X153500500Y-90881908D01*
X153463553Y-90648632D01*
X153390568Y-90424008D01*
X153283343Y-90213567D01*
X153144517Y-90022490D01*
X152977510Y-89855483D01*
X152786433Y-89716657D01*
X152575992Y-89609432D01*
X152351368Y-89536447D01*
X152118092Y-89499500D01*
X152118087Y-89499500D01*
X141070404Y-89499500D01*
X141070388Y-89499499D01*
X141065893Y-89499499D01*
X141004185Y-89499499D01*
X140995837Y-89499030D01*
X140905532Y-89488855D01*
X140873002Y-89481430D01*
X140799123Y-89455578D01*
X140769063Y-89441102D01*
X140702782Y-89399455D01*
X140676696Y-89378652D01*
X140621347Y-89323303D01*
X140600544Y-89297217D01*
X140558897Y-89230936D01*
X140544422Y-89200879D01*
X140518567Y-89126992D01*
X140511144Y-89094465D01*
X140509645Y-89081164D01*
X140505439Y-89043835D01*
X140500970Y-89004161D01*
X140500501Y-88995814D01*
X140500501Y-88929102D01*
X140500500Y-88929084D01*
X140500500Y-86500000D01*
X145144815Y-86500000D01*
X145163502Y-86677800D01*
X145163503Y-86677803D01*
X145218750Y-86847835D01*
X145256032Y-86912409D01*
X145308143Y-87002669D01*
X145427768Y-87135524D01*
X145427770Y-87135526D01*
X145572407Y-87240612D01*
X145735733Y-87313329D01*
X145884525Y-87344955D01*
X145910608Y-87350500D01*
X145910609Y-87350500D01*
X146089392Y-87350500D01*
X146112089Y-87345675D01*
X146264267Y-87313329D01*
X146427593Y-87240612D01*
X146572230Y-87135526D01*
X146640538Y-87059661D01*
X146691856Y-87002669D01*
X146691857Y-87002667D01*
X146691859Y-87002665D01*
X146781250Y-86847835D01*
X146836497Y-86677803D01*
X146855185Y-86500000D01*
X146836497Y-86322197D01*
X146781250Y-86152165D01*
X146770460Y-86133477D01*
X146750500Y-86058980D01*
X146750500Y-80872586D01*
X146770462Y-80798086D01*
X146794141Y-80767227D01*
X150767227Y-76794141D01*
X150834022Y-76755577D01*
X150872586Y-76750500D01*
X151812947Y-76750500D01*
X151873548Y-76763381D01*
X151985733Y-76813329D01*
X152134525Y-76844955D01*
X152160608Y-76850500D01*
X152160609Y-76850500D01*
X152339392Y-76850500D01*
X152362089Y-76845675D01*
X152514267Y-76813329D01*
X152677593Y-76740612D01*
X152822230Y-76635526D01*
X152890538Y-76559661D01*
X152941856Y-76502669D01*
X152941857Y-76502667D01*
X152941859Y-76502665D01*
X153031250Y-76347835D01*
X153086497Y-76177803D01*
X153105185Y-76000000D01*
X153086497Y-75822197D01*
X153031250Y-75652165D01*
X152941859Y-75497335D01*
X152941858Y-75497334D01*
X152941856Y-75497330D01*
X152822231Y-75364475D01*
X152754391Y-75315186D01*
X152677593Y-75259388D01*
X152677588Y-75259385D01*
X152514275Y-75186674D01*
X152514271Y-75186672D01*
X152514267Y-75186671D01*
X152397683Y-75161890D01*
X152339392Y-75149500D01*
X152339391Y-75149500D01*
X152160609Y-75149500D01*
X152160608Y-75149500D01*
X152073171Y-75168085D01*
X151985733Y-75186671D01*
X151985730Y-75186672D01*
X151985728Y-75186673D01*
X151985726Y-75186674D01*
X151873549Y-75236618D01*
X151812947Y-75249500D01*
X150565528Y-75249500D01*
X150543933Y-75247927D01*
X150521978Y-75244711D01*
X150521977Y-75244711D01*
X150512227Y-75245563D01*
X150470478Y-75249216D01*
X150463983Y-75249500D01*
X150456291Y-75249500D01*
X150423724Y-75253306D01*
X150404593Y-75254979D01*
X150347200Y-75260001D01*
X150338710Y-75261754D01*
X150338650Y-75261465D01*
X150334112Y-75262471D01*
X150334181Y-75262759D01*
X150325742Y-75264759D01*
X150271618Y-75284458D01*
X150253576Y-75291025D01*
X150180666Y-75315186D01*
X150172807Y-75318851D01*
X150172682Y-75318583D01*
X150168500Y-75320608D01*
X150168632Y-75320871D01*
X150160880Y-75324764D01*
X150096716Y-75366965D01*
X150031348Y-75407284D01*
X150024540Y-75412668D01*
X150024357Y-75412437D01*
X150020763Y-75415365D01*
X150020952Y-75415591D01*
X150014306Y-75421167D01*
X149961614Y-75477017D01*
X145515646Y-79922984D01*
X145499269Y-79937137D01*
X145481470Y-79950389D01*
X145448245Y-79989984D01*
X145443862Y-79994768D01*
X145438415Y-80000216D01*
X145438403Y-80000230D01*
X145418059Y-80025959D01*
X145368697Y-80084787D01*
X145363930Y-80092035D01*
X145363684Y-80091873D01*
X145361192Y-80095786D01*
X145361442Y-80095941D01*
X145356890Y-80103320D01*
X145324423Y-80172942D01*
X145289960Y-80241566D01*
X145286992Y-80249720D01*
X145286712Y-80249618D01*
X145285190Y-80253997D01*
X145285472Y-80254091D01*
X145282743Y-80262324D01*
X145276800Y-80291104D01*
X145267207Y-80337565D01*
X145260830Y-80364474D01*
X145249498Y-80412285D01*
X145248492Y-80420899D01*
X145248196Y-80420864D01*
X145247725Y-80425468D01*
X145248023Y-80425494D01*
X145247266Y-80434145D01*
X145249500Y-80510916D01*
X145249500Y-86058980D01*
X145229539Y-86133478D01*
X145218752Y-86152161D01*
X145218748Y-86152170D01*
X145163502Y-86322199D01*
X145144815Y-86500000D01*
X140500500Y-86500000D01*
X140500500Y-85881912D01*
X140500500Y-85881908D01*
X140463553Y-85648632D01*
X140390568Y-85424008D01*
X140283343Y-85213567D01*
X140144517Y-85022490D01*
X139977510Y-84855483D01*
X139786433Y-84716657D01*
X139575992Y-84609432D01*
X139351368Y-84536447D01*
X139118092Y-84499500D01*
X138881908Y-84499500D01*
X138648632Y-84536447D01*
X138424008Y-84609432D01*
X138424002Y-84609434D01*
X138424002Y-84609435D01*
X138213565Y-84716658D01*
X138022499Y-84855476D01*
X138022488Y-84855485D01*
X137855485Y-85022488D01*
X137855476Y-85022499D01*
X137774102Y-85134501D01*
X137716657Y-85213567D01*
X137609432Y-85424008D01*
X137536447Y-85648632D01*
X137499500Y-85881908D01*
X137499500Y-85881912D01*
X137499500Y-88929139D01*
X137499496Y-88929201D01*
X137499496Y-88995813D01*
X137499027Y-89004162D01*
X137488851Y-89094467D01*
X137481427Y-89126993D01*
X137455574Y-89200877D01*
X137441097Y-89230939D01*
X137399452Y-89297216D01*
X137378649Y-89323302D01*
X137323299Y-89378652D01*
X137297213Y-89399455D01*
X137230939Y-89441098D01*
X137200876Y-89455575D01*
X137126990Y-89481428D01*
X137094462Y-89488852D01*
X137004116Y-89499031D01*
X136995768Y-89499500D01*
X126065892Y-89499500D01*
X126000000Y-89499500D01*
X125881908Y-89499500D01*
X125648632Y-89536447D01*
X125424008Y-89609432D01*
X125424002Y-89609434D01*
X125424002Y-89609435D01*
X125213565Y-89716658D01*
X125022499Y-89855476D01*
X125022488Y-89855485D01*
X124855485Y-90022488D01*
X124855476Y-90022499D01*
X124716658Y-90213565D01*
X124609435Y-90424002D01*
X124609430Y-90424014D01*
X124583051Y-90505200D01*
X124536447Y-90648632D01*
X124499500Y-90881908D01*
X124499500Y-91118092D01*
X123900500Y-91118092D01*
X123900500Y-89081164D01*
X123920462Y-89006664D01*
X123944141Y-88975805D01*
X127225805Y-85694141D01*
X127292600Y-85655577D01*
X127331164Y-85650500D01*
X132261124Y-85650500D01*
X132335624Y-85670462D01*
X132390162Y-85725000D01*
X132410124Y-85799500D01*
X132408556Y-85815050D01*
X132409297Y-85815128D01*
X132389793Y-86000698D01*
X132408480Y-86178498D01*
X132455171Y-86322199D01*
X132463728Y-86348533D01*
X132463729Y-86348534D01*
X132553121Y-86503367D01*
X132672746Y-86636222D01*
X132672748Y-86636224D01*
X132817385Y-86741310D01*
X132817387Y-86741311D01*
X132817389Y-86741312D01*
X132944826Y-86798050D01*
X132980711Y-86814027D01*
X133137746Y-86847405D01*
X133206466Y-86882420D01*
X133212107Y-86887773D01*
X133327000Y-87002665D01*
X133406086Y-87081751D01*
X133444650Y-87148546D01*
X133444650Y-87225674D01*
X133442435Y-87233152D01*
X133413502Y-87322200D01*
X133394815Y-87500000D01*
X133413502Y-87677800D01*
X133413503Y-87677803D01*
X133468750Y-87847835D01*
X133480354Y-87867934D01*
X133558143Y-88002669D01*
X133677768Y-88135524D01*
X133677770Y-88135526D01*
X133822407Y-88240612D01*
X133985733Y-88313329D01*
X134134525Y-88344955D01*
X134160608Y-88350500D01*
X134160609Y-88350500D01*
X134339392Y-88350500D01*
X134362089Y-88345675D01*
X134514267Y-88313329D01*
X134677593Y-88240612D01*
X134822230Y-88135526D01*
X134890538Y-88059661D01*
X134941856Y-88002669D01*
X134941857Y-88002667D01*
X134941859Y-88002665D01*
X135031250Y-87847835D01*
X135086497Y-87677803D01*
X135105185Y-87500000D01*
X135086497Y-87322197D01*
X135031250Y-87152165D01*
X134941859Y-86997335D01*
X134935548Y-86990326D01*
X134900533Y-86921605D01*
X134899416Y-86912353D01*
X134899064Y-86912409D01*
X134897598Y-86903159D01*
X134897598Y-86903151D01*
X134892226Y-86884661D01*
X134887483Y-86861760D01*
X134885071Y-86842662D01*
X134885070Y-86842658D01*
X134867408Y-86798050D01*
X134865136Y-86791418D01*
X134851745Y-86745322D01*
X134851744Y-86745320D01*
X134841940Y-86728742D01*
X134831655Y-86707747D01*
X134824570Y-86689854D01*
X134824567Y-86689848D01*
X134805326Y-86663366D01*
X134796361Y-86651026D01*
X134792516Y-86645174D01*
X134768081Y-86603855D01*
X134754462Y-86590236D01*
X134739279Y-86572459D01*
X134727963Y-86556883D01*
X134690995Y-86526300D01*
X134685800Y-86521574D01*
X134129866Y-85965640D01*
X134091302Y-85898845D01*
X134087041Y-85875854D01*
X134081475Y-85822897D01*
X134081475Y-85822895D01*
X134046669Y-85715776D01*
X134042633Y-85638757D01*
X134077648Y-85570035D01*
X134100728Y-85549242D01*
X134104701Y-85546355D01*
X134110520Y-85542531D01*
X134151865Y-85518081D01*
X134165484Y-85504460D01*
X134183256Y-85489282D01*
X134198837Y-85477963D01*
X134229434Y-85440975D01*
X134234135Y-85435809D01*
X135032855Y-84637090D01*
X135099648Y-84598528D01*
X135107212Y-84596711D01*
X135264267Y-84563329D01*
X135427593Y-84490612D01*
X135572230Y-84385526D01*
X135640538Y-84309661D01*
X135691856Y-84252669D01*
X135691857Y-84252667D01*
X135691859Y-84252665D01*
X135781250Y-84097835D01*
X135836497Y-83927803D01*
X135855185Y-83750000D01*
X135836497Y-83572197D01*
X135781250Y-83402165D01*
X135691859Y-83247335D01*
X135691858Y-83247334D01*
X135691856Y-83247330D01*
X135572231Y-83114475D01*
X135567511Y-83111046D01*
X135427593Y-83009388D01*
X135427588Y-83009385D01*
X135264275Y-82936674D01*
X135264271Y-82936672D01*
X135264267Y-82936671D01*
X135147683Y-82911890D01*
X135089392Y-82899500D01*
X135089391Y-82899500D01*
X134910609Y-82899500D01*
X134910605Y-82899500D01*
X134830478Y-82916531D01*
X134753455Y-82912494D01*
X134688771Y-82870487D01*
X134653756Y-82801765D01*
X134650500Y-82770787D01*
X134650500Y-81831163D01*
X134670462Y-81756663D01*
X134694138Y-81725807D01*
X135028221Y-81391723D01*
X135095016Y-81353160D01*
X135152641Y-81351651D01*
X135152848Y-81349684D01*
X135160609Y-81350500D01*
X135339392Y-81350500D01*
X135362089Y-81345675D01*
X135514267Y-81313329D01*
X135677593Y-81240612D01*
X135822230Y-81135526D01*
X135890538Y-81059661D01*
X135941856Y-81002669D01*
X135941857Y-81002667D01*
X135941859Y-81002665D01*
X136031250Y-80847835D01*
X136086497Y-80677803D01*
X136105185Y-80500000D01*
X136086497Y-80322197D01*
X136031250Y-80152165D01*
X135941859Y-79997335D01*
X135941858Y-79997334D01*
X135941856Y-79997330D01*
X135822231Y-79864475D01*
X135677593Y-79759388D01*
X135677588Y-79759385D01*
X135514275Y-79686674D01*
X135514271Y-79686672D01*
X135514267Y-79686671D01*
X135397683Y-79661890D01*
X135339392Y-79649500D01*
X135339391Y-79649500D01*
X135160609Y-79649500D01*
X135160608Y-79649500D01*
X135073171Y-79668085D01*
X134985733Y-79686671D01*
X134985730Y-79686672D01*
X134985728Y-79686673D01*
X134822409Y-79759387D01*
X134677771Y-79864472D01*
X134677769Y-79864474D01*
X134558142Y-79997333D01*
X134558141Y-79997334D01*
X134534375Y-80038498D01*
X134510697Y-80069355D01*
X133602434Y-80977618D01*
X133588950Y-80988422D01*
X133589282Y-80988823D01*
X133582059Y-80994798D01*
X133532810Y-81047243D01*
X133511094Y-81068959D01*
X133511080Y-81068975D01*
X133506944Y-81074305D01*
X133502395Y-81079631D01*
X133469551Y-81114607D01*
X133460273Y-81131484D01*
X133447444Y-81151014D01*
X133435638Y-81166235D01*
X133435636Y-81166239D01*
X133416581Y-81210270D01*
X133413494Y-81216572D01*
X133390374Y-81258629D01*
X133390373Y-81258630D01*
X133385581Y-81277294D01*
X133378011Y-81299403D01*
X133370364Y-81317075D01*
X133362859Y-81364460D01*
X133361436Y-81371334D01*
X133349500Y-81417823D01*
X133349500Y-81417825D01*
X133349500Y-81437078D01*
X133347665Y-81460387D01*
X133344653Y-81479405D01*
X133345489Y-81488244D01*
X133349169Y-81527180D01*
X133349500Y-81534196D01*
X133349500Y-82668836D01*
X133329538Y-82743336D01*
X133305859Y-82774195D01*
X133024195Y-83055859D01*
X132957400Y-83094423D01*
X132918836Y-83099500D01*
X130233933Y-83099500D01*
X130159433Y-83079538D01*
X130104895Y-83025000D01*
X130084933Y-82950500D01*
X130085749Y-82934926D01*
X130097719Y-82821033D01*
X130105185Y-82750000D01*
X130086497Y-82572197D01*
X130031250Y-82402165D01*
X130020460Y-82383477D01*
X130000500Y-82308980D01*
X130000500Y-81649500D01*
X130020462Y-81575000D01*
X130075000Y-81520462D01*
X130149500Y-81500500D01*
X131815504Y-81500500D01*
X131837099Y-81502073D01*
X131839899Y-81502483D01*
X131859055Y-81505289D01*
X131898103Y-81501872D01*
X131910554Y-81500784D01*
X131917049Y-81500500D01*
X131924744Y-81500500D01*
X131957307Y-81496693D01*
X132033829Y-81489999D01*
X132033838Y-81489995D01*
X132042326Y-81488244D01*
X132042386Y-81488537D01*
X132046909Y-81487534D01*
X132046840Y-81487243D01*
X132055285Y-81485241D01*
X132055287Y-81485241D01*
X132127455Y-81458974D01*
X132200366Y-81434814D01*
X132200375Y-81434808D01*
X132208231Y-81431146D01*
X132208357Y-81431417D01*
X132212526Y-81429399D01*
X132212392Y-81429132D01*
X132220134Y-81425242D01*
X132220149Y-81425237D01*
X132271103Y-81391724D01*
X132284316Y-81383034D01*
X132324508Y-81358243D01*
X132349688Y-81342712D01*
X132349691Y-81342708D01*
X132356498Y-81337327D01*
X132356684Y-81337562D01*
X132360274Y-81334637D01*
X132360081Y-81334407D01*
X132366723Y-81328833D01*
X132366728Y-81328830D01*
X132419417Y-81272982D01*
X137495143Y-76197256D01*
X137561936Y-76158694D01*
X137639064Y-76158694D01*
X137705859Y-76197258D01*
X137744423Y-76264053D01*
X137749500Y-76302617D01*
X137749500Y-82308980D01*
X137729539Y-82383478D01*
X137718752Y-82402161D01*
X137718748Y-82402170D01*
X137663502Y-82572199D01*
X137644815Y-82750000D01*
X137663502Y-82927800D01*
X137663503Y-82927803D01*
X137718750Y-83097835D01*
X137759458Y-83168344D01*
X137808143Y-83252669D01*
X137927768Y-83385524D01*
X137927770Y-83385526D01*
X138072407Y-83490612D01*
X138235733Y-83563329D01*
X138384525Y-83594955D01*
X138410608Y-83600500D01*
X138410609Y-83600500D01*
X138589392Y-83600500D01*
X138612089Y-83595675D01*
X138764267Y-83563329D01*
X138927593Y-83490612D01*
X139072230Y-83385526D01*
X139141126Y-83309009D01*
X139191856Y-83252669D01*
X139191857Y-83252667D01*
X139191859Y-83252665D01*
X139281250Y-83097835D01*
X139336497Y-82927803D01*
X139355185Y-82750000D01*
X139336497Y-82572197D01*
X139281250Y-82402165D01*
X139270460Y-82383477D01*
X139250500Y-82308980D01*
X139250500Y-82299161D01*
X139270462Y-82224661D01*
X139325000Y-82170123D01*
X139399500Y-82150161D01*
X139474000Y-82170123D01*
X139487075Y-82178614D01*
X139572407Y-82240612D01*
X139572410Y-82240613D01*
X139572411Y-82240614D01*
X139703911Y-82299161D01*
X139735733Y-82313329D01*
X139884525Y-82344955D01*
X139910608Y-82350500D01*
X139910609Y-82350500D01*
X140089392Y-82350500D01*
X140112089Y-82345675D01*
X140264267Y-82313329D01*
X140427593Y-82240612D01*
X140572230Y-82135526D01*
X140640538Y-82059661D01*
X140691856Y-82002669D01*
X140691857Y-82002667D01*
X140691859Y-82002665D01*
X140781250Y-81847835D01*
X140836497Y-81677803D01*
X140842063Y-81624840D01*
X140869702Y-81552836D01*
X140884882Y-81535061D01*
X140897558Y-81522385D01*
X140911043Y-81511584D01*
X140910711Y-81511182D01*
X140917935Y-81505204D01*
X140917940Y-81505202D01*
X140967205Y-81452740D01*
X140988911Y-81431034D01*
X140993037Y-81425713D01*
X140997591Y-81420380D01*
X141030448Y-81385393D01*
X141039722Y-81368521D01*
X141052559Y-81348979D01*
X141064363Y-81333763D01*
X141083428Y-81289704D01*
X141086502Y-81283430D01*
X141109627Y-81241368D01*
X141114413Y-81222722D01*
X141121986Y-81200600D01*
X141129636Y-81182926D01*
X141137143Y-81135524D01*
X141138562Y-81128668D01*
X141150500Y-81082177D01*
X141150500Y-81062921D01*
X141152335Y-81039610D01*
X141155347Y-81020595D01*
X141152535Y-80990854D01*
X141150831Y-80972817D01*
X141150500Y-80965802D01*
X141150500Y-79208169D01*
X141170462Y-79133669D01*
X141225000Y-79079131D01*
X141257179Y-79066778D01*
X141256843Y-79065742D01*
X141264264Y-79063330D01*
X141264265Y-79063329D01*
X141264267Y-79063329D01*
X141427593Y-78990612D01*
X141572230Y-78885526D01*
X141640538Y-78809661D01*
X141691856Y-78752669D01*
X141691857Y-78752667D01*
X141691859Y-78752665D01*
X141781250Y-78597835D01*
X141836497Y-78427803D01*
X141855185Y-78250000D01*
X141836497Y-78072197D01*
X141781250Y-77902165D01*
X141691859Y-77747335D01*
X141691858Y-77747334D01*
X141691856Y-77747330D01*
X141572231Y-77614475D01*
X141427593Y-77509388D01*
X141427588Y-77509385D01*
X141264275Y-77436674D01*
X141264271Y-77436672D01*
X141264267Y-77436671D01*
X141147683Y-77411890D01*
X141089392Y-77399500D01*
X141089391Y-77399500D01*
X140910609Y-77399500D01*
X140910608Y-77399500D01*
X140823171Y-77418085D01*
X140735733Y-77436671D01*
X140735730Y-77436672D01*
X140735728Y-77436673D01*
X140572409Y-77509387D01*
X140427771Y-77614472D01*
X140427769Y-77614474D01*
X140308143Y-77747330D01*
X140218751Y-77902163D01*
X140218748Y-77902170D01*
X140163504Y-78072194D01*
X140163502Y-78072202D01*
X140157935Y-78125160D01*
X140130293Y-78197165D01*
X140115111Y-78214941D01*
X140102434Y-78227618D01*
X140088950Y-78238422D01*
X140089282Y-78238823D01*
X140082059Y-78244798D01*
X140032810Y-78297243D01*
X140011094Y-78318959D01*
X140011080Y-78318975D01*
X140006944Y-78324305D01*
X140002395Y-78329631D01*
X139969551Y-78364607D01*
X139960273Y-78381484D01*
X139947444Y-78401014D01*
X139935638Y-78416235D01*
X139935636Y-78416239D01*
X139916581Y-78460270D01*
X139913494Y-78466572D01*
X139890374Y-78508629D01*
X139890373Y-78508630D01*
X139885581Y-78527294D01*
X139878011Y-78549403D01*
X139870364Y-78567075D01*
X139862859Y-78614460D01*
X139861436Y-78621334D01*
X139849500Y-78667823D01*
X139849500Y-78667825D01*
X139849500Y-78687078D01*
X139847665Y-78710389D01*
X139844653Y-78729403D01*
X139849169Y-78777180D01*
X139849500Y-78784196D01*
X139849500Y-80541831D01*
X139829538Y-80616331D01*
X139775000Y-80670869D01*
X139742822Y-80683224D01*
X139743159Y-80684259D01*
X139735736Y-80686670D01*
X139735733Y-80686671D01*
X139735729Y-80686672D01*
X139735728Y-80686673D01*
X139572409Y-80759387D01*
X139572404Y-80759390D01*
X139487079Y-80821382D01*
X139415074Y-80849022D01*
X139338895Y-80836956D01*
X139278956Y-80788417D01*
X139251316Y-80716412D01*
X139250500Y-80700838D01*
X139250500Y-74620012D01*
X139270461Y-74545515D01*
X139346766Y-74413351D01*
X139402013Y-74243319D01*
X139420701Y-74065516D01*
X139402013Y-73887713D01*
X139346766Y-73717681D01*
X139257375Y-73562851D01*
X139257374Y-73562850D01*
X139257372Y-73562846D01*
X139137747Y-73429991D01*
X138993109Y-73324904D01*
X138993107Y-73324903D01*
X138825758Y-73250395D01*
X138781003Y-73219636D01*
X138679459Y-73118092D01*
X143499500Y-73118092D01*
X143536447Y-73351368D01*
X143609432Y-73575992D01*
X143716657Y-73786433D01*
X143855483Y-73977510D01*
X144022490Y-74144517D01*
X144213567Y-74283343D01*
X144424008Y-74390568D01*
X144648632Y-74463553D01*
X144881908Y-74500500D01*
X144964201Y-74500500D01*
X154934108Y-74500500D01*
X154995814Y-74500500D01*
X155004162Y-74500969D01*
X155094465Y-74511144D01*
X155126993Y-74518568D01*
X155200878Y-74544421D01*
X155230939Y-74558898D01*
X155297217Y-74600543D01*
X155323304Y-74621346D01*
X155378653Y-74676695D01*
X155399456Y-74702782D01*
X155441101Y-74769060D01*
X155455578Y-74799121D01*
X155481431Y-74873006D01*
X155488855Y-74905532D01*
X155499031Y-74995837D01*
X155499500Y-75004186D01*
X155499500Y-109934108D01*
X155499500Y-110000000D01*
X155499500Y-110118092D01*
X155536447Y-110351368D01*
X155609432Y-110575992D01*
X155716657Y-110786433D01*
X155855483Y-110977510D01*
X156022490Y-111144517D01*
X156213567Y-111283343D01*
X156424008Y-111390568D01*
X156648632Y-111463553D01*
X156881908Y-111500500D01*
X156881913Y-111500500D01*
X157118087Y-111500500D01*
X157118092Y-111500500D01*
X157351368Y-111463553D01*
X157575992Y-111390568D01*
X157786433Y-111283343D01*
X157977510Y-111144517D01*
X158144517Y-110977510D01*
X158283343Y-110786433D01*
X158390568Y-110575992D01*
X158463553Y-110351368D01*
X158500500Y-110118092D01*
X158500500Y-110000000D01*
X158500500Y-109934108D01*
X158500500Y-104500000D01*
X159644815Y-104500000D01*
X159663502Y-104677800D01*
X159663503Y-104677803D01*
X159718750Y-104847835D01*
X159718751Y-104847836D01*
X159808143Y-105002669D01*
X159927768Y-105135524D01*
X159927770Y-105135526D01*
X160072407Y-105240612D01*
X160235733Y-105313329D01*
X160384525Y-105344955D01*
X160410608Y-105350500D01*
X160410609Y-105350500D01*
X160589392Y-105350500D01*
X160612089Y-105345675D01*
X160764267Y-105313329D01*
X160927593Y-105240612D01*
X161072230Y-105135526D01*
X161140538Y-105059661D01*
X161191856Y-105002669D01*
X161191857Y-105002667D01*
X161191859Y-105002665D01*
X161281250Y-104847835D01*
X161336497Y-104677803D01*
X161342063Y-104624841D01*
X161369702Y-104552837D01*
X161384882Y-104535062D01*
X161897562Y-104022382D01*
X161911051Y-104011578D01*
X161910718Y-104011176D01*
X161917933Y-104005205D01*
X161917940Y-104005202D01*
X161967190Y-103952755D01*
X161988912Y-103931034D01*
X161993049Y-103925699D01*
X161997591Y-103920380D01*
X162030448Y-103885393D01*
X162039721Y-103868523D01*
X162052562Y-103848974D01*
X162064363Y-103833763D01*
X162083428Y-103789704D01*
X162086502Y-103783430D01*
X162109627Y-103741368D01*
X162114413Y-103722722D01*
X162121986Y-103700600D01*
X162129636Y-103682926D01*
X162137143Y-103635526D01*
X162138562Y-103628668D01*
X162150500Y-103582177D01*
X162150500Y-103562921D01*
X162152335Y-103539610D01*
X162155347Y-103520595D01*
X162150831Y-103472815D01*
X162150500Y-103465800D01*
X162150500Y-91081163D01*
X162170462Y-91006663D01*
X162194137Y-90975807D01*
X162647563Y-90522381D01*
X162661051Y-90511579D01*
X162660718Y-90511176D01*
X162667933Y-90505205D01*
X162667940Y-90505202D01*
X162717190Y-90452755D01*
X162738911Y-90431035D01*
X162743045Y-90425704D01*
X162747600Y-90420371D01*
X162780448Y-90385393D01*
X162789724Y-90368517D01*
X162802559Y-90348978D01*
X162814362Y-90333764D01*
X162833424Y-90289709D01*
X162836499Y-90283434D01*
X162859627Y-90241368D01*
X162864414Y-90222720D01*
X162871990Y-90200591D01*
X162879635Y-90182927D01*
X162887140Y-90135540D01*
X162888561Y-90128671D01*
X162900500Y-90082177D01*
X162900500Y-90062919D01*
X162902334Y-90039611D01*
X162905346Y-90020595D01*
X162900831Y-89972826D01*
X162900500Y-89965811D01*
X162900500Y-82838262D01*
X162902396Y-82821082D01*
X162901878Y-82821033D01*
X162902760Y-82811701D01*
X162900500Y-82739795D01*
X162900500Y-82709078D01*
X162899656Y-82702398D01*
X162899104Y-82695391D01*
X162898269Y-82668836D01*
X162897597Y-82647430D01*
X162892224Y-82628936D01*
X162887485Y-82606055D01*
X162885071Y-82586942D01*
X162867401Y-82542314D01*
X162865135Y-82535698D01*
X162859131Y-82515031D01*
X162854033Y-82489042D01*
X162844902Y-82402170D01*
X162836497Y-82322197D01*
X162781250Y-82152165D01*
X162691859Y-81997335D01*
X162691857Y-81997332D01*
X162691856Y-81997331D01*
X162637603Y-81937078D01*
X162572230Y-81864474D01*
X162552997Y-81850500D01*
X162550524Y-81848703D01*
X162501987Y-81788762D01*
X162489923Y-81712583D01*
X162509066Y-81653664D01*
X162541300Y-81597835D01*
X162596547Y-81427803D01*
X162615235Y-81250000D01*
X162596547Y-81072197D01*
X162541300Y-80902165D01*
X162451909Y-80747335D01*
X162451908Y-80747334D01*
X162451906Y-80747330D01*
X162332281Y-80614475D01*
X162315068Y-80601969D01*
X162187643Y-80509388D01*
X162187641Y-80509387D01*
X162187638Y-80509385D01*
X162024325Y-80436674D01*
X162024321Y-80436672D01*
X162024317Y-80436671D01*
X161907733Y-80411890D01*
X161849442Y-80399500D01*
X161849441Y-80399500D01*
X161670659Y-80399500D01*
X161670658Y-80399500D01*
X161610538Y-80412279D01*
X161495783Y-80436671D01*
X161495780Y-80436672D01*
X161495778Y-80436673D01*
X161332459Y-80509387D01*
X161332451Y-80509392D01*
X161244093Y-80573587D01*
X161172087Y-80601227D01*
X161161201Y-80601969D01*
X161147433Y-80602402D01*
X161147426Y-80602403D01*
X161128938Y-80607774D01*
X161106054Y-80612513D01*
X161086946Y-80614927D01*
X161042320Y-80632594D01*
X161035680Y-80634868D01*
X160989600Y-80648256D01*
X160973020Y-80658061D01*
X160952034Y-80668342D01*
X160934131Y-80675431D01*
X160934125Y-80675434D01*
X160895309Y-80703634D01*
X160889444Y-80707487D01*
X160848134Y-80731919D01*
X160848132Y-80731921D01*
X160834511Y-80745541D01*
X160816744Y-80760716D01*
X160801163Y-80772037D01*
X160770575Y-80809009D01*
X160765850Y-80814202D01*
X160102434Y-81477618D01*
X160088950Y-81488422D01*
X160089282Y-81488823D01*
X160082059Y-81494798D01*
X160032810Y-81547243D01*
X160011094Y-81568959D01*
X160011080Y-81568975D01*
X160006944Y-81574305D01*
X160002395Y-81579631D01*
X159969551Y-81614607D01*
X159960273Y-81631484D01*
X159947444Y-81651014D01*
X159935638Y-81666235D01*
X159935636Y-81666239D01*
X159916581Y-81710270D01*
X159913494Y-81716572D01*
X159890374Y-81758629D01*
X159890373Y-81758630D01*
X159885581Y-81777294D01*
X159878011Y-81799403D01*
X159870364Y-81817075D01*
X159862859Y-81864460D01*
X159861436Y-81871334D01*
X159849500Y-81917823D01*
X159849500Y-81917825D01*
X159849500Y-81937078D01*
X159847665Y-81960389D01*
X159844653Y-81979403D01*
X159849169Y-82027180D01*
X159849500Y-82034196D01*
X159849500Y-85894205D01*
X159829538Y-85968705D01*
X159811231Y-85993903D01*
X159808143Y-85997331D01*
X159718751Y-86152163D01*
X159718748Y-86152170D01*
X159663502Y-86322199D01*
X159644815Y-86500000D01*
X159663502Y-86677800D01*
X159663503Y-86677803D01*
X159718750Y-86847835D01*
X159756032Y-86912409D01*
X159808143Y-87002669D01*
X159927768Y-87135524D01*
X159927770Y-87135526D01*
X160072407Y-87240612D01*
X160235733Y-87313329D01*
X160384525Y-87344955D01*
X160410608Y-87350500D01*
X160410609Y-87350500D01*
X160589392Y-87350500D01*
X160612089Y-87345675D01*
X160764267Y-87313329D01*
X160927593Y-87240612D01*
X161072230Y-87135526D01*
X161140538Y-87059661D01*
X161191856Y-87002669D01*
X161191857Y-87002667D01*
X161191859Y-87002665D01*
X161281250Y-86847835D01*
X161308793Y-86763065D01*
X161350800Y-86698381D01*
X161419521Y-86663366D01*
X161496544Y-86667403D01*
X161561229Y-86709410D01*
X161596244Y-86778131D01*
X161599500Y-86809110D01*
X161599500Y-89668835D01*
X161579538Y-89743335D01*
X161555859Y-89774194D01*
X161102434Y-90227618D01*
X161088950Y-90238422D01*
X161089282Y-90238823D01*
X161082059Y-90244798D01*
X161032810Y-90297243D01*
X161011094Y-90318959D01*
X161011080Y-90318975D01*
X161006944Y-90324305D01*
X161002395Y-90329631D01*
X160969551Y-90364607D01*
X160960273Y-90381484D01*
X160947444Y-90401014D01*
X160935638Y-90416235D01*
X160935636Y-90416239D01*
X160916581Y-90460270D01*
X160913494Y-90466572D01*
X160890374Y-90508629D01*
X160890373Y-90508630D01*
X160885581Y-90527294D01*
X160878011Y-90549403D01*
X160870364Y-90567075D01*
X160862859Y-90614460D01*
X160861436Y-90621334D01*
X160849500Y-90667823D01*
X160849500Y-90667825D01*
X160849500Y-90687078D01*
X160847665Y-90710389D01*
X160844653Y-90729403D01*
X160849169Y-90777180D01*
X160849500Y-90784196D01*
X160849500Y-103168836D01*
X160829538Y-103243336D01*
X160805859Y-103274195D01*
X160467146Y-103612907D01*
X160400351Y-103651471D01*
X160392767Y-103653292D01*
X160287683Y-103675628D01*
X160235733Y-103686671D01*
X160235730Y-103686672D01*
X160235728Y-103686673D01*
X160072409Y-103759387D01*
X159927771Y-103864472D01*
X159927769Y-103864474D01*
X159808143Y-103997330D01*
X159718751Y-104152163D01*
X159718748Y-104152170D01*
X159663502Y-104322199D01*
X159644815Y-104500000D01*
X158500500Y-104500000D01*
X158500500Y-75004186D01*
X158500969Y-74995838D01*
X158511144Y-74905534D01*
X158518568Y-74873006D01*
X158544421Y-74799121D01*
X158558898Y-74769060D01*
X158600543Y-74702782D01*
X158621342Y-74676699D01*
X158676699Y-74621342D01*
X158702782Y-74600543D01*
X158769060Y-74558898D01*
X158799118Y-74544422D01*
X158873008Y-74518567D01*
X158905532Y-74511144D01*
X158995838Y-74500969D01*
X159004186Y-74500500D01*
X169118087Y-74500500D01*
X169118092Y-74500500D01*
X169351368Y-74463553D01*
X169575992Y-74390568D01*
X169786433Y-74283343D01*
X169977510Y-74144517D01*
X170144517Y-73977510D01*
X170283343Y-73786433D01*
X170390568Y-73575992D01*
X170463553Y-73351368D01*
X170500500Y-73118092D01*
X170500500Y-72881908D01*
X170463553Y-72648632D01*
X170390568Y-72424008D01*
X170283343Y-72213567D01*
X170144517Y-72022490D01*
X169977510Y-71855483D01*
X169786433Y-71716657D01*
X169575992Y-71609432D01*
X169351368Y-71536447D01*
X169118092Y-71499500D01*
X169118087Y-71499500D01*
X159004186Y-71499500D01*
X158995838Y-71499031D01*
X158985196Y-71497832D01*
X158905532Y-71488855D01*
X158873006Y-71481431D01*
X158799121Y-71455578D01*
X158769060Y-71441101D01*
X158702782Y-71399456D01*
X158676695Y-71378653D01*
X158621346Y-71323304D01*
X158600543Y-71297217D01*
X158558898Y-71230939D01*
X158544421Y-71200878D01*
X158518568Y-71126993D01*
X158511144Y-71094465D01*
X158500969Y-71004161D01*
X158500500Y-70995813D01*
X158500500Y-66500000D01*
X160394815Y-66500000D01*
X160413502Y-66677800D01*
X160413503Y-66677803D01*
X160468750Y-66847835D01*
X160468751Y-66847836D01*
X160558141Y-67002665D01*
X160558142Y-67002666D01*
X160561226Y-67006091D01*
X160562624Y-67008835D01*
X160562731Y-67008982D01*
X160562707Y-67008998D01*
X160596243Y-67074812D01*
X160599500Y-67105794D01*
X160599500Y-69661734D01*
X160597603Y-69678912D01*
X160598122Y-69678961D01*
X160597239Y-69688297D01*
X160599500Y-69760203D01*
X160599500Y-69790936D01*
X160600346Y-69797633D01*
X160600895Y-69804621D01*
X160602402Y-69852565D01*
X160602402Y-69852568D01*
X160607775Y-69871063D01*
X160612513Y-69893945D01*
X160614927Y-69913052D01*
X160614928Y-69913057D01*
X160632593Y-69957674D01*
X160634866Y-69964315D01*
X160648256Y-70010398D01*
X160648257Y-70010400D01*
X160658058Y-70026973D01*
X160668341Y-70047964D01*
X160675429Y-70065867D01*
X160675432Y-70065872D01*
X160703632Y-70104686D01*
X160707487Y-70110555D01*
X160723236Y-70137184D01*
X160731919Y-70151865D01*
X160731921Y-70151867D01*
X160745534Y-70165480D01*
X160760716Y-70183256D01*
X160772034Y-70198833D01*
X160772037Y-70198837D01*
X160809013Y-70229426D01*
X160814199Y-70234145D01*
X161227613Y-70647559D01*
X161238424Y-70661051D01*
X161238825Y-70660720D01*
X161244797Y-70667940D01*
X161294062Y-70714202D01*
X161297259Y-70717205D01*
X161318966Y-70738911D01*
X161322692Y-70741801D01*
X161324285Y-70743037D01*
X161329618Y-70747592D01*
X161364607Y-70780448D01*
X161381478Y-70789723D01*
X161401019Y-70802559D01*
X161416234Y-70814361D01*
X161416235Y-70814362D01*
X161460273Y-70833419D01*
X161466569Y-70836502D01*
X161508632Y-70859627D01*
X161527275Y-70864413D01*
X161549406Y-70871990D01*
X161567071Y-70879635D01*
X161567072Y-70879635D01*
X161567074Y-70879636D01*
X161588656Y-70883054D01*
X161614465Y-70887142D01*
X161621343Y-70888566D01*
X161636463Y-70892448D01*
X161667823Y-70900500D01*
X161687079Y-70900500D01*
X161710386Y-70902334D01*
X161729405Y-70905347D01*
X161763990Y-70902077D01*
X161777181Y-70900831D01*
X161784197Y-70900500D01*
X165149966Y-70900500D01*
X165224466Y-70920462D01*
X165237546Y-70928957D01*
X165322401Y-70990608D01*
X165322407Y-70990612D01*
X165322409Y-70990613D01*
X165322411Y-70990614D01*
X165417419Y-71032914D01*
X165485733Y-71063329D01*
X165615252Y-71090859D01*
X165660608Y-71100500D01*
X165660609Y-71100500D01*
X165839392Y-71100500D01*
X165867783Y-71094465D01*
X166014267Y-71063329D01*
X166177593Y-70990612D01*
X166322230Y-70885526D01*
X166402441Y-70796443D01*
X166441856Y-70752669D01*
X166441857Y-70752667D01*
X166441859Y-70752665D01*
X166531250Y-70597835D01*
X166586497Y-70427803D01*
X166605185Y-70250000D01*
X166586497Y-70072197D01*
X166531250Y-69902165D01*
X166441859Y-69747335D01*
X166441858Y-69747334D01*
X166441856Y-69747330D01*
X166322231Y-69614475D01*
X166191703Y-69519640D01*
X166177593Y-69509388D01*
X166177591Y-69509387D01*
X166177588Y-69509385D01*
X166014275Y-69436674D01*
X166014271Y-69436672D01*
X166014267Y-69436671D01*
X165851948Y-69402169D01*
X165839392Y-69399500D01*
X165839391Y-69399500D01*
X165660609Y-69399500D01*
X165660608Y-69399500D01*
X165573171Y-69418085D01*
X165485733Y-69436671D01*
X165485730Y-69436672D01*
X165485728Y-69436673D01*
X165322409Y-69509387D01*
X165322402Y-69509391D01*
X165237547Y-69571043D01*
X165165542Y-69598684D01*
X165149967Y-69599500D01*
X162081164Y-69599500D01*
X162006664Y-69579538D01*
X161975805Y-69555859D01*
X161944141Y-69524195D01*
X161905577Y-69457400D01*
X161900500Y-69418836D01*
X161900500Y-67479211D01*
X161920462Y-67404711D01*
X161975000Y-67350173D01*
X162049500Y-67330211D01*
X162080469Y-67333465D01*
X162160609Y-67350500D01*
X162339392Y-67350500D01*
X162362089Y-67345675D01*
X162514267Y-67313329D01*
X162677593Y-67240612D01*
X162822230Y-67135526D01*
X162916033Y-67031348D01*
X162941856Y-67002669D01*
X162941858Y-67002666D01*
X162941859Y-67002665D01*
X163031250Y-66847835D01*
X163086497Y-66677803D01*
X163092063Y-66624841D01*
X163119702Y-66552837D01*
X163134882Y-66535062D01*
X163347562Y-66322382D01*
X163361051Y-66311578D01*
X163360718Y-66311176D01*
X163367933Y-66305205D01*
X163367940Y-66305202D01*
X163417190Y-66252755D01*
X163438911Y-66231035D01*
X163443045Y-66225704D01*
X163447600Y-66220371D01*
X163480448Y-66185393D01*
X163489724Y-66168517D01*
X163502559Y-66148978D01*
X163514362Y-66133764D01*
X163533424Y-66089709D01*
X163536499Y-66083434D01*
X163559627Y-66041368D01*
X163564414Y-66022720D01*
X163571990Y-66000591D01*
X163579635Y-65982927D01*
X163587141Y-65935534D01*
X163588560Y-65928676D01*
X163600500Y-65882177D01*
X163600500Y-65862920D01*
X163602334Y-65839612D01*
X163605346Y-65820596D01*
X163600831Y-65772827D01*
X163600500Y-65765812D01*
X163600500Y-63131164D01*
X163620462Y-63056664D01*
X163644141Y-63025805D01*
X164488911Y-62181035D01*
X164527615Y-62142331D01*
X164647562Y-62022382D01*
X164661051Y-62011579D01*
X164660718Y-62011176D01*
X164667933Y-62005205D01*
X164667940Y-62005202D01*
X164717190Y-61952755D01*
X164738911Y-61931035D01*
X164743045Y-61925704D01*
X164747600Y-61920371D01*
X164780448Y-61885393D01*
X164789724Y-61868517D01*
X164802559Y-61848978D01*
X164814362Y-61833764D01*
X164833424Y-61789709D01*
X164836499Y-61783434D01*
X164859627Y-61741368D01*
X164864414Y-61722720D01*
X164871990Y-61700591D01*
X164879635Y-61682927D01*
X164887140Y-61635540D01*
X164888561Y-61628671D01*
X164900500Y-61582177D01*
X164900500Y-61562919D01*
X164902334Y-61539611D01*
X164905346Y-61520595D01*
X164900831Y-61472826D01*
X164900500Y-61465811D01*
X164900500Y-59855794D01*
X164920462Y-59781294D01*
X164938774Y-59756091D01*
X164941859Y-59752665D01*
X165031250Y-59597835D01*
X165086497Y-59427803D01*
X165105185Y-59250000D01*
X165086497Y-59072197D01*
X165031250Y-58902165D01*
X164941859Y-58747335D01*
X164941858Y-58747334D01*
X164941856Y-58747330D01*
X164822231Y-58614475D01*
X164677593Y-58509388D01*
X164677588Y-58509385D01*
X164514275Y-58436674D01*
X164514271Y-58436672D01*
X164514267Y-58436671D01*
X164397683Y-58411890D01*
X164339392Y-58399500D01*
X164339391Y-58399500D01*
X164160609Y-58399500D01*
X164160608Y-58399500D01*
X164073171Y-58418085D01*
X163985733Y-58436671D01*
X163985730Y-58436672D01*
X163985728Y-58436673D01*
X163822409Y-58509387D01*
X163677771Y-58614472D01*
X163677769Y-58614474D01*
X163558143Y-58747330D01*
X163468751Y-58902163D01*
X163468748Y-58902170D01*
X163413502Y-59072199D01*
X163394815Y-59250000D01*
X163413502Y-59427800D01*
X163465137Y-59586717D01*
X163468750Y-59597835D01*
X163521042Y-59688408D01*
X163558141Y-59752665D01*
X163558142Y-59752666D01*
X163561226Y-59756091D01*
X163562624Y-59758835D01*
X163562731Y-59758982D01*
X163562707Y-59758998D01*
X163596243Y-59824812D01*
X163599500Y-59855794D01*
X163599500Y-61168835D01*
X163579538Y-61243335D01*
X163555859Y-61274194D01*
X162552434Y-62277618D01*
X162538950Y-62288422D01*
X162539282Y-62288823D01*
X162532059Y-62294798D01*
X162482810Y-62347243D01*
X162461094Y-62368959D01*
X162461080Y-62368975D01*
X162456944Y-62374305D01*
X162452395Y-62379631D01*
X162419551Y-62414607D01*
X162410273Y-62431484D01*
X162397444Y-62451014D01*
X162385638Y-62466235D01*
X162385636Y-62466239D01*
X162366581Y-62510270D01*
X162363494Y-62516572D01*
X162340374Y-62558629D01*
X162340373Y-62558630D01*
X162335581Y-62577294D01*
X162328011Y-62599403D01*
X162320364Y-62617075D01*
X162312859Y-62664460D01*
X162311436Y-62671334D01*
X162299500Y-62717823D01*
X162299500Y-62717825D01*
X162299500Y-62737078D01*
X162297665Y-62760389D01*
X162294653Y-62779403D01*
X162299169Y-62827180D01*
X162299500Y-62834196D01*
X162299500Y-65468836D01*
X162279538Y-65543336D01*
X162255858Y-65574196D01*
X162217145Y-65612908D01*
X162150349Y-65651471D01*
X162142767Y-65653292D01*
X162037683Y-65675628D01*
X161985733Y-65686671D01*
X161985730Y-65686672D01*
X161985728Y-65686673D01*
X161985726Y-65686674D01*
X161822411Y-65759387D01*
X161815275Y-65762564D01*
X161814515Y-65760858D01*
X161749981Y-65778142D01*
X161685486Y-65760857D01*
X161684727Y-65762564D01*
X161514275Y-65686674D01*
X161514271Y-65686672D01*
X161514267Y-65686671D01*
X161376031Y-65657288D01*
X161339392Y-65649500D01*
X161339391Y-65649500D01*
X161160609Y-65649500D01*
X161160608Y-65649500D01*
X161123969Y-65657288D01*
X160985733Y-65686671D01*
X160985730Y-65686672D01*
X160985728Y-65686673D01*
X160822409Y-65759387D01*
X160677771Y-65864472D01*
X160677769Y-65864474D01*
X160558143Y-65997330D01*
X160468751Y-66152163D01*
X160468748Y-66152170D01*
X160413502Y-66322199D01*
X160394815Y-66500000D01*
X158500500Y-66500000D01*
X158500500Y-55881912D01*
X158500500Y-55881908D01*
X158463553Y-55648632D01*
X158390568Y-55424008D01*
X158283343Y-55213567D01*
X158144517Y-55022490D01*
X157977510Y-54855483D01*
X157786433Y-54716657D01*
X157575992Y-54609432D01*
X157351368Y-54536447D01*
X157118092Y-54499500D01*
X156881908Y-54499500D01*
X156648632Y-54536447D01*
X156424008Y-54609432D01*
X156424002Y-54609434D01*
X156424002Y-54609435D01*
X156213565Y-54716658D01*
X156022499Y-54855476D01*
X156022488Y-54855485D01*
X155855485Y-55022488D01*
X155855476Y-55022499D01*
X155742643Y-55177800D01*
X155716657Y-55213567D01*
X155609432Y-55424008D01*
X155536447Y-55648632D01*
X155499500Y-55881908D01*
X155499500Y-55881912D01*
X155499500Y-70995813D01*
X155499031Y-71004162D01*
X155488855Y-71094467D01*
X155481431Y-71126993D01*
X155455578Y-71200878D01*
X155441101Y-71230939D01*
X155399456Y-71297217D01*
X155378653Y-71323304D01*
X155323304Y-71378653D01*
X155297217Y-71399456D01*
X155230939Y-71441101D01*
X155200878Y-71455578D01*
X155126993Y-71481431D01*
X155094467Y-71488855D01*
X155013234Y-71498008D01*
X155004161Y-71499031D01*
X154995814Y-71499500D01*
X145065892Y-71499500D01*
X145000000Y-71499500D01*
X144881908Y-71499500D01*
X144648632Y-71536447D01*
X144424008Y-71609432D01*
X144424002Y-71609434D01*
X144424002Y-71609435D01*
X144213565Y-71716658D01*
X144022499Y-71855476D01*
X144022488Y-71855485D01*
X143855485Y-72022488D01*
X143855476Y-72022499D01*
X143716658Y-72213565D01*
X143716657Y-72213567D01*
X143609432Y-72424008D01*
X143536447Y-72648632D01*
X143499500Y-72881908D01*
X143499500Y-73118092D01*
X138679459Y-73118092D01*
X138577014Y-73015646D01*
X138562856Y-72999262D01*
X138549614Y-72981474D01*
X138549610Y-72981470D01*
X138510014Y-72948245D01*
X138505221Y-72943853D01*
X138499776Y-72938408D01*
X138474040Y-72918059D01*
X138415216Y-72868699D01*
X138407965Y-72863930D01*
X138408127Y-72863682D01*
X138404212Y-72861188D01*
X138404057Y-72861441D01*
X138396677Y-72856889D01*
X138327057Y-72824424D01*
X138258437Y-72789961D01*
X138250284Y-72786994D01*
X138250386Y-72786713D01*
X138246006Y-72785190D01*
X138245913Y-72785473D01*
X138237675Y-72782743D01*
X138215683Y-72778202D01*
X138162434Y-72767207D01*
X138087721Y-72749500D01*
X138087720Y-72749500D01*
X138087712Y-72749498D01*
X138079101Y-72748492D01*
X138079135Y-72748196D01*
X138074533Y-72747725D01*
X138074508Y-72748023D01*
X138065856Y-72747266D01*
X138065855Y-72747266D01*
X137989083Y-72749500D01*
X136372585Y-72749500D01*
X136298085Y-72729538D01*
X136267226Y-72705859D01*
X133291726Y-69730358D01*
X133253162Y-69663563D01*
X133253162Y-69586435D01*
X133291724Y-69519642D01*
X135767227Y-67044141D01*
X135834022Y-67005577D01*
X135872586Y-67000500D01*
X136562947Y-67000500D01*
X136623548Y-67013381D01*
X136735733Y-67063329D01*
X136884525Y-67094955D01*
X136910608Y-67100500D01*
X136910609Y-67100500D01*
X137089392Y-67100500D01*
X137112089Y-67095675D01*
X137264267Y-67063329D01*
X137427593Y-66990612D01*
X137572230Y-66885526D01*
X137640538Y-66809661D01*
X137691856Y-66752669D01*
X137691857Y-66752667D01*
X137691859Y-66752665D01*
X137781250Y-66597835D01*
X137836497Y-66427803D01*
X137855185Y-66250000D01*
X137836497Y-66072197D01*
X137781250Y-65902165D01*
X137691859Y-65747335D01*
X137691858Y-65747334D01*
X137691856Y-65747330D01*
X137572231Y-65614475D01*
X137572229Y-65614473D01*
X137561915Y-65606979D01*
X137513379Y-65547037D01*
X137500500Y-65486439D01*
X137500500Y-61065527D01*
X137502073Y-61043931D01*
X137505289Y-61021977D01*
X137500784Y-60970481D01*
X137500500Y-60963985D01*
X137500500Y-60956286D01*
X137496691Y-60923705D01*
X137489998Y-60847202D01*
X137488244Y-60838708D01*
X137488536Y-60838647D01*
X137487533Y-60834120D01*
X137487242Y-60834190D01*
X137485239Y-60825738D01*
X137458970Y-60753563D01*
X137434815Y-60680669D01*
X137431147Y-60672802D01*
X137431416Y-60672676D01*
X137429396Y-60668503D01*
X137429131Y-60668637D01*
X137425239Y-60660890D01*
X137425237Y-60660883D01*
X137404431Y-60629249D01*
X137383034Y-60596715D01*
X137342714Y-60531348D01*
X137342712Y-60531344D01*
X137342706Y-60531338D01*
X137337335Y-60524545D01*
X137337569Y-60524359D01*
X137334634Y-60520757D01*
X137334406Y-60520949D01*
X137328833Y-60514306D01*
X137303495Y-60490402D01*
X137272982Y-60461614D01*
X136577014Y-59765646D01*
X136562856Y-59749262D01*
X136549614Y-59731474D01*
X136549610Y-59731470D01*
X136510014Y-59698245D01*
X136505221Y-59693853D01*
X136499776Y-59688408D01*
X136474040Y-59668059D01*
X136415216Y-59618699D01*
X136407965Y-59613930D01*
X136408127Y-59613682D01*
X136404212Y-59611188D01*
X136404057Y-59611441D01*
X136396677Y-59606889D01*
X136327057Y-59574424D01*
X136258437Y-59539961D01*
X136250284Y-59536994D01*
X136250386Y-59536713D01*
X136246006Y-59535190D01*
X136245913Y-59535473D01*
X136237675Y-59532743D01*
X136215683Y-59528202D01*
X136162434Y-59517207D01*
X136087721Y-59499500D01*
X136087720Y-59499500D01*
X136087712Y-59499498D01*
X136079101Y-59498492D01*
X136079135Y-59498196D01*
X136074533Y-59497725D01*
X136074508Y-59498023D01*
X136065856Y-59497266D01*
X136065855Y-59497266D01*
X135989083Y-59499500D01*
X134065528Y-59499500D01*
X134043933Y-59497927D01*
X134021978Y-59494711D01*
X134021977Y-59494711D01*
X134011888Y-59495593D01*
X133970481Y-59499216D01*
X133963985Y-59499500D01*
X133956291Y-59499500D01*
X133923705Y-59503308D01*
X133847205Y-59510001D01*
X133838714Y-59511755D01*
X133838654Y-59511464D01*
X133834119Y-59512469D01*
X133834188Y-59512758D01*
X133825742Y-59514759D01*
X133753568Y-59541028D01*
X133680670Y-59565184D01*
X133680667Y-59565185D01*
X133680665Y-59565186D01*
X133680662Y-59565187D01*
X133672801Y-59568853D01*
X133672676Y-59568585D01*
X133668501Y-59570606D01*
X133668634Y-59570870D01*
X133660885Y-59574761D01*
X133596723Y-59616961D01*
X133531346Y-59657286D01*
X133524536Y-59662671D01*
X133524353Y-59662440D01*
X133520763Y-59665365D01*
X133520952Y-59665591D01*
X133514306Y-59671167D01*
X133461614Y-59727017D01*
X133055646Y-60132984D01*
X133039269Y-60147137D01*
X133021470Y-60160389D01*
X132988245Y-60199984D01*
X132983862Y-60204768D01*
X132978415Y-60210216D01*
X132978403Y-60210230D01*
X132958059Y-60235959D01*
X132908697Y-60294787D01*
X132903930Y-60302035D01*
X132903684Y-60301873D01*
X132901192Y-60305786D01*
X132901442Y-60305941D01*
X132896890Y-60313320D01*
X132864423Y-60382942D01*
X132829960Y-60451566D01*
X132826992Y-60459720D01*
X132826712Y-60459618D01*
X132825190Y-60463997D01*
X132825472Y-60464091D01*
X132822743Y-60472325D01*
X132812703Y-60520949D01*
X132807207Y-60547565D01*
X132795559Y-60596716D01*
X132789136Y-60623816D01*
X132759332Y-60683977D01*
X132674845Y-60786927D01*
X132578695Y-60966809D01*
X132519483Y-61162003D01*
X132499490Y-61365001D01*
X132506766Y-61438880D01*
X132494201Y-61514978D01*
X132445271Y-61574598D01*
X132373086Y-61601766D01*
X132343880Y-61601766D01*
X132270001Y-61594490D01*
X132270000Y-61594490D01*
X132229401Y-61598488D01*
X132067003Y-61614483D01*
X131871809Y-61673695D01*
X131705238Y-61762730D01*
X131630125Y-61780244D01*
X131564762Y-61762730D01*
X131398190Y-61673695D01*
X131202996Y-61614483D01*
X131073875Y-61601766D01*
X131000000Y-61594490D01*
X130999999Y-61594490D01*
X130999998Y-61594490D01*
X130926119Y-61601766D01*
X130850021Y-61589201D01*
X130790401Y-61540271D01*
X130763233Y-61468086D01*
X130763234Y-61438878D01*
X130766069Y-61410090D01*
X130770510Y-61365000D01*
X130750517Y-61162007D01*
X130748957Y-61156866D01*
X130692418Y-60970481D01*
X130691306Y-60966814D01*
X130691304Y-60966811D01*
X130691304Y-60966809D01*
X130595153Y-60786924D01*
X130465753Y-60629249D01*
X130465750Y-60629246D01*
X130308075Y-60499846D01*
X130128190Y-60403695D01*
X129932996Y-60344483D01*
X129856870Y-60336985D01*
X129730000Y-60324490D01*
X129729997Y-60324490D01*
X129729995Y-60324490D01*
X129717859Y-60325685D01*
X129641762Y-60313119D01*
X129582143Y-60264187D01*
X129554977Y-60192001D01*
X129567543Y-60115904D01*
X129597898Y-60072046D01*
X131147562Y-58522382D01*
X131161051Y-58511578D01*
X131160718Y-58511176D01*
X131167933Y-58505205D01*
X131167940Y-58505202D01*
X131217190Y-58452755D01*
X131238911Y-58431035D01*
X131243045Y-58425704D01*
X131247600Y-58420371D01*
X131280448Y-58385393D01*
X131289724Y-58368517D01*
X131302559Y-58348978D01*
X131314362Y-58333764D01*
X131333417Y-58289727D01*
X131336505Y-58283426D01*
X131342959Y-58271684D01*
X131359627Y-58241368D01*
X131364418Y-58222708D01*
X131371989Y-58200591D01*
X131379635Y-58182926D01*
X131387141Y-58135533D01*
X131388559Y-58128680D01*
X131400500Y-58082177D01*
X131400500Y-58062919D01*
X131402334Y-58039611D01*
X131405346Y-58020595D01*
X131400831Y-57972826D01*
X131400500Y-57965811D01*
X131400500Y-56605794D01*
X131420462Y-56531294D01*
X131438774Y-56506091D01*
X131441859Y-56502665D01*
X131531250Y-56347835D01*
X131586497Y-56177803D01*
X131605185Y-56000000D01*
X131586497Y-55822197D01*
X131531250Y-55652165D01*
X131441859Y-55497335D01*
X131441858Y-55497334D01*
X131441856Y-55497330D01*
X131322231Y-55364475D01*
X131299328Y-55347835D01*
X131177593Y-55259388D01*
X131177588Y-55259385D01*
X131014275Y-55186674D01*
X131014271Y-55186672D01*
X131014267Y-55186671D01*
X130959527Y-55175035D01*
X130844782Y-55150645D01*
X130776061Y-55115629D01*
X130734054Y-55050943D01*
X130731385Y-55000000D01*
X136394815Y-55000000D01*
X136413502Y-55177800D01*
X136468749Y-55347834D01*
X136468750Y-55347835D01*
X136479536Y-55366516D01*
X136499500Y-55441016D01*
X136499500Y-57684472D01*
X136497927Y-57706067D01*
X136494711Y-57728021D01*
X136499216Y-57779521D01*
X136499500Y-57786017D01*
X136499500Y-57793706D01*
X136503306Y-57826274D01*
X136510000Y-57902798D01*
X136511754Y-57911288D01*
X136511465Y-57911347D01*
X136512471Y-57915888D01*
X136512760Y-57915820D01*
X136514760Y-57924260D01*
X136531164Y-57969329D01*
X136541025Y-57996423D01*
X136563485Y-58064202D01*
X136565187Y-58069336D01*
X136568852Y-58077197D01*
X136568584Y-58077321D01*
X136570603Y-58081493D01*
X136570867Y-58081361D01*
X136574760Y-58089113D01*
X136574763Y-58089117D01*
X136616965Y-58153283D01*
X136657288Y-58218656D01*
X136657289Y-58218657D01*
X136657293Y-58218663D01*
X136662672Y-58225466D01*
X136662439Y-58225649D01*
X136665368Y-58229245D01*
X136665597Y-58229054D01*
X136671169Y-58235695D01*
X136671170Y-58235696D01*
X136727018Y-58288386D01*
X137650247Y-59211614D01*
X138455859Y-60017226D01*
X138494423Y-60084021D01*
X138499500Y-60122585D01*
X138499500Y-66058980D01*
X138479539Y-66133477D01*
X138479374Y-66133764D01*
X138468752Y-66152161D01*
X138468748Y-66152170D01*
X138413502Y-66322199D01*
X138394815Y-66500000D01*
X138413502Y-66677800D01*
X138413503Y-66677803D01*
X138468750Y-66847835D01*
X138468751Y-66847836D01*
X138558143Y-67002669D01*
X138642824Y-67096715D01*
X138677770Y-67135526D01*
X138822407Y-67240612D01*
X138851496Y-67253563D01*
X138985725Y-67313326D01*
X138985729Y-67313327D01*
X138985733Y-67313329D01*
X138985736Y-67313329D01*
X138987631Y-67313945D01*
X138989733Y-67315110D01*
X138992868Y-67316506D01*
X138992745Y-67316780D01*
X139037369Y-67341514D01*
X139084786Y-67381302D01*
X139084794Y-67381306D01*
X139092039Y-67386072D01*
X139091875Y-67386320D01*
X139095783Y-67388810D01*
X139095940Y-67388557D01*
X139103318Y-67393107D01*
X139103323Y-67393111D01*
X139148238Y-67414055D01*
X139172930Y-67425569D01*
X139241569Y-67460041D01*
X139249724Y-67463009D01*
X139249621Y-67463291D01*
X139253990Y-67464810D01*
X139254085Y-67464525D01*
X139262322Y-67467253D01*
X139262327Y-67467256D01*
X139337532Y-67482784D01*
X139412279Y-67500500D01*
X139412283Y-67500501D01*
X139420898Y-67501508D01*
X139420863Y-67501803D01*
X139425469Y-67502273D01*
X139425495Y-67501977D01*
X139434138Y-67502732D01*
X139434139Y-67502731D01*
X139434144Y-67502733D01*
X139510898Y-67500500D01*
X150877414Y-67500500D01*
X150951914Y-67520462D01*
X150982773Y-67544141D01*
X151205859Y-67767226D01*
X151244423Y-67834021D01*
X151249500Y-67872585D01*
X151249500Y-69558980D01*
X151229539Y-69633478D01*
X151218752Y-69652161D01*
X151218748Y-69652170D01*
X151163502Y-69822199D01*
X151144815Y-70000000D01*
X151163502Y-70177800D01*
X151163503Y-70177803D01*
X151218750Y-70347835D01*
X151270361Y-70437229D01*
X151308143Y-70502669D01*
X151408096Y-70613676D01*
X151427770Y-70635526D01*
X151572407Y-70740612D01*
X151572409Y-70740613D01*
X151572411Y-70740614D01*
X151682706Y-70789720D01*
X151735733Y-70813329D01*
X151884525Y-70844955D01*
X151910608Y-70850500D01*
X151910609Y-70850500D01*
X152089392Y-70850500D01*
X152112089Y-70845675D01*
X152264267Y-70813329D01*
X152427593Y-70740612D01*
X152572230Y-70635526D01*
X152640538Y-70559661D01*
X152691856Y-70502669D01*
X152691857Y-70502667D01*
X152691859Y-70502665D01*
X152781250Y-70347835D01*
X152836497Y-70177803D01*
X152855185Y-70000000D01*
X152836497Y-69822197D01*
X152781250Y-69652165D01*
X152770460Y-69633477D01*
X152750500Y-69558980D01*
X152750500Y-67565527D01*
X152752073Y-67543931D01*
X152755222Y-67522431D01*
X152755289Y-67521977D01*
X152751707Y-67481039D01*
X152750784Y-67470481D01*
X152750500Y-67463985D01*
X152750500Y-67456286D01*
X152746691Y-67423705D01*
X152739998Y-67347202D01*
X152738244Y-67338708D01*
X152738536Y-67338647D01*
X152737533Y-67334120D01*
X152737242Y-67334190D01*
X152735239Y-67325738D01*
X152708970Y-67253563D01*
X152684815Y-67180669D01*
X152681147Y-67172802D01*
X152681416Y-67172676D01*
X152679396Y-67168503D01*
X152679131Y-67168637D01*
X152675239Y-67160890D01*
X152675237Y-67160883D01*
X152635523Y-67100500D01*
X152633034Y-67096715D01*
X152592714Y-67031348D01*
X152592712Y-67031344D01*
X152592706Y-67031338D01*
X152587335Y-67024545D01*
X152587569Y-67024359D01*
X152584634Y-67020757D01*
X152584406Y-67020949D01*
X152578833Y-67014306D01*
X152553495Y-66990402D01*
X152522982Y-66961614D01*
X151827014Y-66265646D01*
X151812856Y-66249262D01*
X151799614Y-66231474D01*
X151799610Y-66231470D01*
X151760014Y-66198245D01*
X151755221Y-66193853D01*
X151749776Y-66188408D01*
X151724040Y-66168059D01*
X151665216Y-66118699D01*
X151657965Y-66113930D01*
X151658127Y-66113682D01*
X151654212Y-66111188D01*
X151654057Y-66111441D01*
X151646677Y-66106889D01*
X151577057Y-66074424D01*
X151508437Y-66039961D01*
X151500284Y-66036994D01*
X151500386Y-66036713D01*
X151496006Y-66035190D01*
X151495913Y-66035473D01*
X151487675Y-66032743D01*
X151465683Y-66028202D01*
X151412434Y-66017207D01*
X151337721Y-65999500D01*
X151337720Y-65999500D01*
X151337712Y-65999498D01*
X151329101Y-65998492D01*
X151329135Y-65998196D01*
X151324533Y-65997725D01*
X151324508Y-65998023D01*
X151315856Y-65997266D01*
X151315855Y-65997266D01*
X151239083Y-65999500D01*
X140149500Y-65999500D01*
X140075000Y-65979538D01*
X140020462Y-65925000D01*
X140000500Y-65850500D01*
X140000500Y-64954991D01*
X151669844Y-64954991D01*
X151679577Y-65134495D01*
X151679578Y-65134500D01*
X151727672Y-65307720D01*
X151727672Y-65307721D01*
X151811881Y-65466556D01*
X151811882Y-65466558D01*
X151928262Y-65603571D01*
X151928265Y-65603574D01*
X152071382Y-65712369D01*
X152234541Y-65787854D01*
X152410113Y-65826500D01*
X152410118Y-65826500D01*
X152544807Y-65826500D01*
X152544816Y-65826500D01*
X152678721Y-65811937D01*
X152825256Y-65762564D01*
X152849083Y-65754536D01*
X152849090Y-65754532D01*
X153003121Y-65661854D01*
X153003120Y-65661854D01*
X153003126Y-65661851D01*
X153133642Y-65538220D01*
X153234529Y-65389423D01*
X153301070Y-65222416D01*
X153330155Y-65045010D01*
X153320422Y-64865499D01*
X153272327Y-64692277D01*
X153188119Y-64533444D01*
X153188117Y-64533442D01*
X153188117Y-64533441D01*
X153071737Y-64396428D01*
X153071736Y-64396427D01*
X153071735Y-64396426D01*
X152995068Y-64338145D01*
X152928620Y-64287632D01*
X152928616Y-64287630D01*
X152765459Y-64212146D01*
X152589887Y-64173500D01*
X152455184Y-64173500D01*
X152455183Y-64173500D01*
X152321275Y-64188063D01*
X152321273Y-64188064D01*
X152150916Y-64245463D01*
X152150909Y-64245467D01*
X151996878Y-64338145D01*
X151900379Y-64429554D01*
X151866358Y-64461780D01*
X151765471Y-64610577D01*
X151765469Y-64610579D01*
X151765469Y-64610581D01*
X151698930Y-64777583D01*
X151669845Y-64954990D01*
X151669844Y-64954991D01*
X140000500Y-64954991D01*
X140000500Y-59815527D01*
X140002073Y-59793931D01*
X140003924Y-59781294D01*
X140005289Y-59771977D01*
X140001745Y-59731470D01*
X140000784Y-59720481D01*
X140000500Y-59713985D01*
X140000500Y-59706286D01*
X139996691Y-59673705D01*
X139989998Y-59597202D01*
X139988244Y-59588708D01*
X139988536Y-59588647D01*
X139987533Y-59584120D01*
X139987242Y-59584190D01*
X139985239Y-59575738D01*
X139958970Y-59503563D01*
X139934815Y-59430669D01*
X139931147Y-59422802D01*
X139931416Y-59422676D01*
X139929396Y-59418503D01*
X139929131Y-59418637D01*
X139925239Y-59410890D01*
X139925237Y-59410883D01*
X139910062Y-59387811D01*
X139883034Y-59346715D01*
X139842714Y-59281348D01*
X139842712Y-59281344D01*
X139842706Y-59281338D01*
X139837335Y-59274545D01*
X139837569Y-59274359D01*
X139834634Y-59270757D01*
X139834406Y-59270949D01*
X139828833Y-59264306D01*
X139803495Y-59240402D01*
X139772982Y-59211614D01*
X138044141Y-57482773D01*
X138005577Y-57415978D01*
X138000500Y-57377414D01*
X138000500Y-55441019D01*
X138020461Y-55366521D01*
X138031250Y-55347835D01*
X138086497Y-55177803D01*
X138094674Y-55100002D01*
X144029534Y-55100002D01*
X144049311Y-55250233D01*
X144107300Y-55390232D01*
X144181394Y-55486791D01*
X144199549Y-55510451D01*
X144273792Y-55567420D01*
X144319767Y-55602698D01*
X144319767Y-55602699D01*
X144459766Y-55660688D01*
X144547309Y-55672212D01*
X144572280Y-55675500D01*
X144647720Y-55675500D01*
X144688334Y-55670153D01*
X144760233Y-55660688D01*
X144760235Y-55660687D01*
X144760236Y-55660687D01*
X144801238Y-55643703D01*
X144900232Y-55602699D01*
X144900232Y-55602698D01*
X144900233Y-55602698D01*
X145020451Y-55510451D01*
X145112698Y-55390233D01*
X145112698Y-55390232D01*
X145112699Y-55390232D01*
X145170688Y-55250233D01*
X145190466Y-55100002D01*
X149809534Y-55100002D01*
X149829311Y-55250233D01*
X149887300Y-55390232D01*
X149961394Y-55486791D01*
X149979549Y-55510451D01*
X150053792Y-55567420D01*
X150099767Y-55602698D01*
X150099767Y-55602699D01*
X150239766Y-55660688D01*
X150327309Y-55672212D01*
X150352280Y-55675500D01*
X150427720Y-55675500D01*
X150468334Y-55670153D01*
X150540233Y-55660688D01*
X150540235Y-55660687D01*
X150540236Y-55660687D01*
X150581238Y-55643703D01*
X150680232Y-55602699D01*
X150680232Y-55602698D01*
X150680233Y-55602698D01*
X150800451Y-55510451D01*
X150892698Y-55390233D01*
X150892698Y-55390232D01*
X150892699Y-55390232D01*
X150950688Y-55250233D01*
X150970466Y-55100002D01*
X150970466Y-55099997D01*
X150950688Y-54949766D01*
X150892699Y-54809767D01*
X150832590Y-54731433D01*
X150800451Y-54689549D01*
X150696041Y-54609432D01*
X150680232Y-54597301D01*
X150680232Y-54597300D01*
X150540233Y-54539311D01*
X150427725Y-54524500D01*
X150427720Y-54524500D01*
X150352280Y-54524500D01*
X150352274Y-54524500D01*
X150239766Y-54539311D01*
X150099767Y-54597300D01*
X150099767Y-54597301D01*
X149979551Y-54689547D01*
X149979547Y-54689551D01*
X149887301Y-54809767D01*
X149887300Y-54809767D01*
X149829311Y-54949766D01*
X149809534Y-55099997D01*
X149809534Y-55100002D01*
X145190466Y-55100002D01*
X145190466Y-55099997D01*
X145170688Y-54949766D01*
X145112699Y-54809767D01*
X145052590Y-54731433D01*
X145020451Y-54689549D01*
X144916041Y-54609432D01*
X144900232Y-54597301D01*
X144900232Y-54597300D01*
X144760233Y-54539311D01*
X144647725Y-54524500D01*
X144647720Y-54524500D01*
X144572280Y-54524500D01*
X144572274Y-54524500D01*
X144459766Y-54539311D01*
X144319767Y-54597300D01*
X144319767Y-54597301D01*
X144199551Y-54689547D01*
X144199547Y-54689551D01*
X144107301Y-54809767D01*
X144107300Y-54809767D01*
X144049311Y-54949766D01*
X144029534Y-55099997D01*
X144029534Y-55100002D01*
X138094674Y-55100002D01*
X138105185Y-55000000D01*
X138086497Y-54822197D01*
X138031250Y-54652165D01*
X137941859Y-54497335D01*
X137941858Y-54497334D01*
X137941856Y-54497330D01*
X137822231Y-54364475D01*
X137799328Y-54347835D01*
X137677593Y-54259388D01*
X137677591Y-54259387D01*
X137677588Y-54259385D01*
X137514275Y-54186674D01*
X137514271Y-54186672D01*
X137514267Y-54186671D01*
X137397683Y-54161890D01*
X137339392Y-54149500D01*
X137339391Y-54149500D01*
X137160609Y-54149500D01*
X137160608Y-54149500D01*
X137073171Y-54168085D01*
X136985733Y-54186671D01*
X136985730Y-54186672D01*
X136985728Y-54186673D01*
X136822409Y-54259387D01*
X136677771Y-54364472D01*
X136677769Y-54364474D01*
X136558143Y-54497330D01*
X136468751Y-54652163D01*
X136468748Y-54652170D01*
X136413502Y-54822199D01*
X136394815Y-55000000D01*
X130731385Y-55000000D01*
X130730018Y-54973921D01*
X130765034Y-54905200D01*
X130770384Y-54899561D01*
X130782855Y-54887090D01*
X130849648Y-54848528D01*
X130857212Y-54846711D01*
X131014267Y-54813329D01*
X131177593Y-54740612D01*
X131322230Y-54635526D01*
X131408863Y-54539311D01*
X131441856Y-54502669D01*
X131441857Y-54502667D01*
X131441859Y-54502665D01*
X131531250Y-54347835D01*
X131586497Y-54177803D01*
X131605185Y-54000000D01*
X131586497Y-53822197D01*
X131531250Y-53652165D01*
X131441859Y-53497335D01*
X131441858Y-53497334D01*
X131441856Y-53497330D01*
X131322231Y-53364475D01*
X131322210Y-53364460D01*
X131177593Y-53259388D01*
X131177588Y-53259385D01*
X131014275Y-53186674D01*
X131014271Y-53186672D01*
X131014267Y-53186671D01*
X130959527Y-53175035D01*
X130844782Y-53150645D01*
X130776061Y-53115629D01*
X130734054Y-53050943D01*
X130730018Y-52973921D01*
X130765034Y-52905200D01*
X130770383Y-52899562D01*
X130782852Y-52887093D01*
X130849641Y-52848530D01*
X130857203Y-52846713D01*
X131014267Y-52813329D01*
X131177593Y-52740612D01*
X131322230Y-52635526D01*
X131409845Y-52538220D01*
X131441856Y-52502669D01*
X131441857Y-52502667D01*
X131441859Y-52502665D01*
X131531250Y-52347835D01*
X131586497Y-52177803D01*
X131605185Y-52000000D01*
X131600454Y-51954991D01*
X165169844Y-51954991D01*
X165179577Y-52134495D01*
X165179578Y-52134500D01*
X165227672Y-52307720D01*
X165227672Y-52307721D01*
X165311881Y-52466556D01*
X165311882Y-52466558D01*
X165428262Y-52603571D01*
X165428265Y-52603574D01*
X165571382Y-52712369D01*
X165734541Y-52787854D01*
X165910113Y-52826500D01*
X165910118Y-52826500D01*
X166044807Y-52826500D01*
X166044816Y-52826500D01*
X166178721Y-52811937D01*
X166262468Y-52783719D01*
X166349083Y-52754536D01*
X166349090Y-52754532D01*
X166503121Y-52661854D01*
X166503120Y-52661854D01*
X166503126Y-52661851D01*
X166633642Y-52538220D01*
X166734529Y-52389423D01*
X166801070Y-52222416D01*
X166830155Y-52045010D01*
X166820422Y-51865499D01*
X166772327Y-51692277D01*
X166688119Y-51533444D01*
X166688117Y-51533442D01*
X166688117Y-51533441D01*
X166571737Y-51396428D01*
X166571736Y-51396427D01*
X166571735Y-51396426D01*
X166441348Y-51297308D01*
X166428620Y-51287632D01*
X166428616Y-51287630D01*
X166265459Y-51212146D01*
X166089887Y-51173500D01*
X165955184Y-51173500D01*
X165955183Y-51173500D01*
X165821275Y-51188063D01*
X165821273Y-51188064D01*
X165650916Y-51245463D01*
X165650909Y-51245467D01*
X165496878Y-51338145D01*
X165435349Y-51396428D01*
X165366358Y-51461780D01*
X165265471Y-51610577D01*
X165265469Y-51610579D01*
X165265469Y-51610581D01*
X165198930Y-51777583D01*
X165169845Y-51954990D01*
X165169844Y-51954991D01*
X131600454Y-51954991D01*
X131586497Y-51822197D01*
X131531250Y-51652165D01*
X131441859Y-51497335D01*
X131441858Y-51497334D01*
X131441856Y-51497330D01*
X131322231Y-51364475D01*
X131285991Y-51338145D01*
X131177593Y-51259388D01*
X131177591Y-51259387D01*
X131177588Y-51259385D01*
X131014275Y-51186674D01*
X131014271Y-51186672D01*
X131014267Y-51186671D01*
X130897683Y-51161890D01*
X130839392Y-51149500D01*
X130839391Y-51149500D01*
X130660609Y-51149500D01*
X130660608Y-51149500D01*
X130573171Y-51168085D01*
X130485733Y-51186671D01*
X130485730Y-51186672D01*
X130485728Y-51186673D01*
X130322409Y-51259387D01*
X130177771Y-51364472D01*
X130177769Y-51364474D01*
X130058143Y-51497330D01*
X129968751Y-51652163D01*
X129968748Y-51652170D01*
X129913504Y-51822194D01*
X129913502Y-51822202D01*
X129907935Y-51875160D01*
X129880293Y-51947165D01*
X129865111Y-51964941D01*
X128852434Y-52977618D01*
X128838950Y-52988422D01*
X128839282Y-52988823D01*
X128832059Y-52994798D01*
X128782810Y-53047243D01*
X128761094Y-53068959D01*
X128761080Y-53068975D01*
X128756944Y-53074305D01*
X128752395Y-53079631D01*
X128719551Y-53114607D01*
X128710273Y-53131484D01*
X128697444Y-53151014D01*
X128685638Y-53166235D01*
X128685636Y-53166239D01*
X128666581Y-53210270D01*
X128663494Y-53216572D01*
X128640374Y-53258629D01*
X128640373Y-53258630D01*
X128635581Y-53277294D01*
X128628011Y-53299403D01*
X128620364Y-53317075D01*
X128612859Y-53364460D01*
X128611436Y-53371334D01*
X128599500Y-53417823D01*
X128599500Y-53417825D01*
X128599500Y-53437078D01*
X128597665Y-53460389D01*
X128594653Y-53479403D01*
X128599169Y-53527180D01*
X128599500Y-53534196D01*
X128599500Y-56918836D01*
X128579538Y-56993336D01*
X128555859Y-57024195D01*
X127774195Y-57805859D01*
X127707400Y-57844423D01*
X127668836Y-57849500D01*
X126588266Y-57849500D01*
X126571087Y-57847603D01*
X126571038Y-57848122D01*
X126561701Y-57847239D01*
X126491791Y-57849436D01*
X126489783Y-57849500D01*
X126459075Y-57849500D01*
X126459068Y-57849500D01*
X126459065Y-57849501D01*
X126452378Y-57850345D01*
X126445390Y-57850894D01*
X126397434Y-57852401D01*
X126397428Y-57852402D01*
X126378928Y-57857776D01*
X126356047Y-57862514D01*
X126336948Y-57864927D01*
X126336942Y-57864928D01*
X126292325Y-57882592D01*
X126285685Y-57884866D01*
X126239599Y-57898256D01*
X126223021Y-57908060D01*
X126202030Y-57918344D01*
X126184133Y-57925430D01*
X126184125Y-57925434D01*
X126145312Y-57953634D01*
X126139444Y-57957488D01*
X126098133Y-57981919D01*
X126084511Y-57995541D01*
X126066744Y-58010716D01*
X126051163Y-58022037D01*
X126020575Y-58059009D01*
X126015850Y-58064202D01*
X123852434Y-60227618D01*
X123838950Y-60238422D01*
X123839282Y-60238823D01*
X123832059Y-60244798D01*
X123782810Y-60297243D01*
X123761094Y-60318959D01*
X123761080Y-60318975D01*
X123756944Y-60324305D01*
X123752395Y-60329631D01*
X123719551Y-60364607D01*
X123710273Y-60381484D01*
X123697444Y-60401014D01*
X123685638Y-60416235D01*
X123685636Y-60416239D01*
X123666581Y-60460270D01*
X123663494Y-60466572D01*
X123640374Y-60508629D01*
X123640373Y-60508630D01*
X123635581Y-60527294D01*
X123628011Y-60549403D01*
X123620364Y-60567075D01*
X123612859Y-60614460D01*
X123611436Y-60621334D01*
X123599500Y-60667823D01*
X123599500Y-60667825D01*
X123599500Y-60687078D01*
X123597665Y-60710389D01*
X123594653Y-60729403D01*
X123599169Y-60777180D01*
X123599500Y-60784196D01*
X123599500Y-64069836D01*
X123579538Y-64144336D01*
X123525000Y-64198874D01*
X123450500Y-64218836D01*
X123376000Y-64198874D01*
X123345141Y-64175195D01*
X122944141Y-63774195D01*
X122905577Y-63707400D01*
X122900500Y-63668836D01*
X122900500Y-63105794D01*
X122920462Y-63031294D01*
X122938774Y-63006091D01*
X122941859Y-63002665D01*
X123031250Y-62847835D01*
X123086497Y-62677803D01*
X123105185Y-62500000D01*
X123086497Y-62322197D01*
X123031250Y-62152165D01*
X122941859Y-61997335D01*
X122941858Y-61997334D01*
X122941856Y-61997330D01*
X122822231Y-61864475D01*
X122813653Y-61858243D01*
X122677593Y-61759388D01*
X122677591Y-61759387D01*
X122677588Y-61759385D01*
X122514275Y-61686674D01*
X122514271Y-61686672D01*
X122514267Y-61686671D01*
X122397683Y-61661890D01*
X122339392Y-61649500D01*
X122339391Y-61649500D01*
X122160609Y-61649500D01*
X122160608Y-61649500D01*
X122073171Y-61668085D01*
X121985733Y-61686671D01*
X121985730Y-61686672D01*
X121985728Y-61686673D01*
X121822409Y-61759387D01*
X121677771Y-61864472D01*
X121677769Y-61864474D01*
X121558143Y-61997330D01*
X121468751Y-62152163D01*
X121468748Y-62152170D01*
X121413502Y-62322199D01*
X121394815Y-62500000D01*
X121413502Y-62677800D01*
X121413503Y-62677803D01*
X121468750Y-62847835D01*
X121468751Y-62847836D01*
X121558141Y-63002665D01*
X121558142Y-63002666D01*
X121561226Y-63006091D01*
X121562624Y-63008835D01*
X121562731Y-63008982D01*
X121562707Y-63008998D01*
X121596243Y-63074812D01*
X121599500Y-63105794D01*
X121599500Y-63911734D01*
X121597603Y-63928912D01*
X121598122Y-63928961D01*
X121597239Y-63938297D01*
X121599500Y-64010203D01*
X121599500Y-64040936D01*
X121600346Y-64047633D01*
X121600895Y-64054621D01*
X121602402Y-64102565D01*
X121602402Y-64102568D01*
X121607775Y-64121063D01*
X121612513Y-64143945D01*
X121614927Y-64163052D01*
X121614928Y-64163057D01*
X121632593Y-64207674D01*
X121634866Y-64214315D01*
X121648256Y-64260398D01*
X121648257Y-64260400D01*
X121658058Y-64276973D01*
X121668341Y-64297964D01*
X121675429Y-64315867D01*
X121675432Y-64315872D01*
X121703632Y-64354686D01*
X121707487Y-64360555D01*
X121723236Y-64387184D01*
X121731919Y-64401865D01*
X121731921Y-64401867D01*
X121745533Y-64415479D01*
X121760717Y-64433258D01*
X121772032Y-64448832D01*
X121772034Y-64448834D01*
X121772036Y-64448835D01*
X121772037Y-64448837D01*
X121797233Y-64469681D01*
X121809009Y-64479423D01*
X121814203Y-64484149D01*
X125805859Y-68475805D01*
X125844423Y-68542600D01*
X125849500Y-68581164D01*
X125849500Y-71411734D01*
X125847603Y-71428912D01*
X125848122Y-71428961D01*
X125847239Y-71438297D01*
X125849500Y-71510203D01*
X125849500Y-71540936D01*
X125850346Y-71547633D01*
X125850895Y-71554621D01*
X125852402Y-71602565D01*
X125852402Y-71602568D01*
X125857775Y-71621063D01*
X125862513Y-71643945D01*
X125864927Y-71663052D01*
X125864928Y-71663057D01*
X125882593Y-71707674D01*
X125884866Y-71714315D01*
X125898256Y-71760398D01*
X125898257Y-71760400D01*
X125908058Y-71776973D01*
X125918341Y-71797964D01*
X125925429Y-71815867D01*
X125925432Y-71815872D01*
X125953632Y-71854686D01*
X125957487Y-71860555D01*
X125973236Y-71887184D01*
X125981919Y-71901865D01*
X125981921Y-71901867D01*
X125995533Y-71915479D01*
X126010717Y-71933258D01*
X126022032Y-71948832D01*
X126022034Y-71948834D01*
X126022036Y-71948835D01*
X126022037Y-71948837D01*
X126047233Y-71969681D01*
X126059009Y-71979423D01*
X126064203Y-71984149D01*
X128438329Y-74358275D01*
X130805859Y-76725804D01*
X130844423Y-76792599D01*
X130849500Y-76831163D01*
X130849500Y-77144205D01*
X130829538Y-77218705D01*
X130811231Y-77243903D01*
X130808143Y-77247331D01*
X130718751Y-77402163D01*
X130718748Y-77402170D01*
X130663502Y-77572199D01*
X130644815Y-77750000D01*
X130663502Y-77927800D01*
X130663503Y-77927803D01*
X130718750Y-78097835D01*
X130718751Y-78097836D01*
X130808143Y-78252669D01*
X130927768Y-78385524D01*
X130927770Y-78385526D01*
X131072407Y-78490612D01*
X131072409Y-78490613D01*
X131072411Y-78490614D01*
X131235724Y-78563325D01*
X131235733Y-78563329D01*
X131384525Y-78594955D01*
X131410608Y-78600500D01*
X131410609Y-78600500D01*
X131589392Y-78600500D01*
X131612089Y-78595675D01*
X131764267Y-78563329D01*
X131927593Y-78490612D01*
X132072230Y-78385526D01*
X132151721Y-78297243D01*
X132191856Y-78252669D01*
X132191857Y-78252667D01*
X132191859Y-78252665D01*
X132281250Y-78097835D01*
X132336497Y-77927803D01*
X132355185Y-77750000D01*
X132336497Y-77572197D01*
X132281250Y-77402165D01*
X132191859Y-77247335D01*
X132191857Y-77247332D01*
X132191856Y-77247331D01*
X132188769Y-77243903D01*
X132187368Y-77241153D01*
X132187266Y-77241013D01*
X132187288Y-77240996D01*
X132153755Y-77175180D01*
X132150500Y-77144205D01*
X132150500Y-76588263D01*
X132152396Y-76571083D01*
X132151878Y-76571034D01*
X132152760Y-76561701D01*
X132150500Y-76489783D01*
X132150500Y-76459072D01*
X132149657Y-76452405D01*
X132149105Y-76445396D01*
X132148739Y-76433763D01*
X132147598Y-76397431D01*
X132142226Y-76378941D01*
X132137483Y-76356040D01*
X132136783Y-76350500D01*
X132135071Y-76336942D01*
X132117401Y-76292314D01*
X132115131Y-76285682D01*
X132101744Y-76239602D01*
X132091945Y-76223033D01*
X132081656Y-76202031D01*
X132074569Y-76184132D01*
X132074568Y-76184129D01*
X132046361Y-76145305D01*
X132042510Y-76139441D01*
X132024912Y-76109686D01*
X132018081Y-76098135D01*
X132004460Y-76084514D01*
X131989278Y-76066737D01*
X131977964Y-76051165D01*
X131977963Y-76051163D01*
X131940995Y-76020580D01*
X131935800Y-76015854D01*
X127194141Y-71274195D01*
X127155577Y-71207400D01*
X127150500Y-71168836D01*
X127150500Y-68930164D01*
X127170462Y-68855664D01*
X127225000Y-68801126D01*
X127299500Y-68781164D01*
X127374000Y-68801126D01*
X127404859Y-68824805D01*
X127555859Y-68975805D01*
X127594423Y-69042600D01*
X127599500Y-69081164D01*
X127599500Y-70587114D01*
X127597603Y-70604292D01*
X127598122Y-70604341D01*
X127597239Y-70613677D01*
X127599500Y-70685583D01*
X127599500Y-70716316D01*
X127600346Y-70723013D01*
X127600895Y-70730001D01*
X127602402Y-70777945D01*
X127602402Y-70777948D01*
X127607775Y-70796443D01*
X127612513Y-70819325D01*
X127614927Y-70838432D01*
X127614928Y-70838437D01*
X127632593Y-70883054D01*
X127634866Y-70889695D01*
X127648256Y-70935778D01*
X127648257Y-70935780D01*
X127658058Y-70952353D01*
X127668341Y-70973344D01*
X127675429Y-70991247D01*
X127675432Y-70991252D01*
X127703632Y-71030066D01*
X127707487Y-71035935D01*
X127723236Y-71062564D01*
X127731919Y-71077245D01*
X127731921Y-71077247D01*
X127745533Y-71090859D01*
X127760717Y-71108638D01*
X127772032Y-71124212D01*
X127772034Y-71124214D01*
X127772036Y-71124215D01*
X127772037Y-71124217D01*
X127775393Y-71126993D01*
X127809009Y-71154803D01*
X127814203Y-71159529D01*
X132427207Y-75772533D01*
X132463555Y-75831847D01*
X132468750Y-75847835D01*
X132556602Y-76000000D01*
X132558143Y-76002668D01*
X132631838Y-76084514D01*
X132677770Y-76135526D01*
X132822407Y-76240612D01*
X132822409Y-76240613D01*
X132822411Y-76240614D01*
X132923636Y-76285682D01*
X132985733Y-76313329D01*
X133134525Y-76344955D01*
X133160608Y-76350500D01*
X133160609Y-76350500D01*
X133339392Y-76350500D01*
X133362089Y-76345675D01*
X133514267Y-76313329D01*
X133677593Y-76240612D01*
X133822230Y-76135526D01*
X133845496Y-76109685D01*
X133910180Y-76067679D01*
X133987203Y-76063642D01*
X133987204Y-76063642D01*
X134160607Y-76100500D01*
X134160609Y-76100500D01*
X134339392Y-76100500D01*
X134362089Y-76095675D01*
X134514267Y-76063329D01*
X134677593Y-75990612D01*
X134822230Y-75885526D01*
X134923970Y-75772533D01*
X134941856Y-75752669D01*
X134941857Y-75752667D01*
X134941859Y-75752665D01*
X135031250Y-75597835D01*
X135086497Y-75427803D01*
X135105185Y-75250000D01*
X135086497Y-75072197D01*
X135031250Y-74902165D01*
X134941859Y-74747335D01*
X134941858Y-74747334D01*
X134941856Y-74747330D01*
X134822231Y-74614475D01*
X134815349Y-74609475D01*
X134677593Y-74509388D01*
X134677588Y-74509385D01*
X134514275Y-74436674D01*
X134514271Y-74436672D01*
X134514267Y-74436671D01*
X134397683Y-74411890D01*
X134339392Y-74399500D01*
X134339391Y-74399500D01*
X134160609Y-74399500D01*
X134160605Y-74399500D01*
X134152839Y-74400316D01*
X134152599Y-74398034D01*
X134087532Y-74394622D01*
X134028221Y-74358275D01*
X132914272Y-73244326D01*
X132875708Y-73177531D01*
X132875708Y-73100403D01*
X132908904Y-73039265D01*
X132930171Y-73015646D01*
X132941859Y-73002665D01*
X133031250Y-72847835D01*
X133086497Y-72677803D01*
X133105185Y-72500000D01*
X133086497Y-72322197D01*
X133031250Y-72152165D01*
X132941859Y-71997335D01*
X132941858Y-71997334D01*
X132941856Y-71997330D01*
X132822231Y-71864475D01*
X132809857Y-71855485D01*
X132677593Y-71759388D01*
X132677588Y-71759385D01*
X132514275Y-71686674D01*
X132514271Y-71686672D01*
X132514267Y-71686671D01*
X132410366Y-71664586D01*
X132357232Y-71653292D01*
X132288511Y-71618276D01*
X132282853Y-71612907D01*
X130444141Y-69774195D01*
X130405577Y-69707400D01*
X130400500Y-69668836D01*
X130400500Y-67713263D01*
X130402396Y-67696083D01*
X130401878Y-67696034D01*
X130402760Y-67686702D01*
X130400500Y-67614796D01*
X130400500Y-67584078D01*
X130399656Y-67577398D01*
X130399104Y-67570391D01*
X130398272Y-67543931D01*
X130397597Y-67522431D01*
X130392224Y-67503937D01*
X130387485Y-67481054D01*
X130385071Y-67461942D01*
X130367404Y-67417320D01*
X130365128Y-67410673D01*
X130360026Y-67393112D01*
X130351744Y-67364602D01*
X130351744Y-67364601D01*
X130341945Y-67348033D01*
X130331656Y-67327031D01*
X130324569Y-67309132D01*
X130324568Y-67309129D01*
X130296361Y-67270305D01*
X130292510Y-67264441D01*
X130278416Y-67240611D01*
X130268081Y-67223135D01*
X130254460Y-67209514D01*
X130239278Y-67191737D01*
X130238465Y-67190618D01*
X130227963Y-67176163D01*
X130190995Y-67145580D01*
X130185800Y-67140854D01*
X126963616Y-63918670D01*
X126925052Y-63851875D01*
X126925052Y-63774747D01*
X126963616Y-63707952D01*
X127030411Y-63669388D01*
X127083576Y-63665028D01*
X127190000Y-63675510D01*
X127392993Y-63655517D01*
X127588186Y-63596306D01*
X127754761Y-63507268D01*
X127829874Y-63489755D01*
X127895238Y-63507268D01*
X128061814Y-63596306D01*
X128225046Y-63645821D01*
X128257003Y-63655516D01*
X128257004Y-63655516D01*
X128257007Y-63655517D01*
X128460000Y-63675510D01*
X128662993Y-63655517D01*
X128858186Y-63596306D01*
X129024761Y-63507268D01*
X129099874Y-63489755D01*
X129165238Y-63507268D01*
X129331814Y-63596306D01*
X129495046Y-63645821D01*
X129527003Y-63655516D01*
X129527004Y-63655516D01*
X129527007Y-63655517D01*
X129730000Y-63675510D01*
X129932993Y-63655517D01*
X130128186Y-63596306D01*
X130294761Y-63507268D01*
X130369874Y-63489755D01*
X130435238Y-63507268D01*
X130601814Y-63596306D01*
X130765046Y-63645821D01*
X130797003Y-63655516D01*
X130797004Y-63655516D01*
X130797007Y-63655517D01*
X131000000Y-63675510D01*
X131202993Y-63655517D01*
X131398186Y-63596306D01*
X131564761Y-63507268D01*
X131639874Y-63489755D01*
X131705238Y-63507268D01*
X131871814Y-63596306D01*
X132035046Y-63645821D01*
X132067003Y-63655516D01*
X132067004Y-63655516D01*
X132067007Y-63655517D01*
X132270000Y-63675510D01*
X132472993Y-63655517D01*
X132668186Y-63596306D01*
X132834761Y-63507268D01*
X132909874Y-63489755D01*
X132975238Y-63507268D01*
X133141814Y-63596306D01*
X133305046Y-63645821D01*
X133337003Y-63655516D01*
X133337004Y-63655516D01*
X133337007Y-63655517D01*
X133540000Y-63675510D01*
X133742993Y-63655517D01*
X133938186Y-63596306D01*
X134104761Y-63507268D01*
X134179874Y-63489755D01*
X134245238Y-63507268D01*
X134411814Y-63596306D01*
X134575046Y-63645821D01*
X134607003Y-63655516D01*
X134607004Y-63655516D01*
X134607007Y-63655517D01*
X134810000Y-63675510D01*
X135012993Y-63655517D01*
X135208186Y-63596306D01*
X135208190Y-63596304D01*
X135388075Y-63500153D01*
X135445000Y-63453436D01*
X135545752Y-63370752D01*
X135675152Y-63213076D01*
X135675153Y-63213075D01*
X135719094Y-63130868D01*
X135771818Y-63074575D01*
X135845625Y-63052186D01*
X135920738Y-63069700D01*
X135977031Y-63122424D01*
X135999420Y-63196231D01*
X135999500Y-63201106D01*
X135999500Y-65350500D01*
X135979538Y-65425000D01*
X135925000Y-65479538D01*
X135850500Y-65499500D01*
X135565528Y-65499500D01*
X135543933Y-65497927D01*
X135521978Y-65494711D01*
X135521977Y-65494711D01*
X135512227Y-65495563D01*
X135470478Y-65499216D01*
X135463983Y-65499500D01*
X135456291Y-65499500D01*
X135423724Y-65503306D01*
X135404593Y-65504979D01*
X135347200Y-65510001D01*
X135338710Y-65511754D01*
X135338650Y-65511465D01*
X135334112Y-65512471D01*
X135334181Y-65512759D01*
X135325741Y-65514759D01*
X135253576Y-65541025D01*
X135180670Y-65565184D01*
X135172807Y-65568851D01*
X135172682Y-65568583D01*
X135168507Y-65570604D01*
X135168639Y-65570867D01*
X135160886Y-65574760D01*
X135096708Y-65616971D01*
X135031347Y-65657286D01*
X135024537Y-65662671D01*
X135024354Y-65662440D01*
X135020763Y-65665365D01*
X135020952Y-65665591D01*
X135014306Y-65671167D01*
X134961597Y-65727035D01*
X131866143Y-68822487D01*
X131849766Y-68836640D01*
X131831967Y-68849892D01*
X131798742Y-68889487D01*
X131794359Y-68894271D01*
X131788912Y-68899719D01*
X131788900Y-68899733D01*
X131768556Y-68925462D01*
X131719194Y-68984290D01*
X131714427Y-68991538D01*
X131714181Y-68991376D01*
X131711689Y-68995289D01*
X131711939Y-68995444D01*
X131707387Y-69002823D01*
X131674920Y-69072445D01*
X131640457Y-69141069D01*
X131637489Y-69149223D01*
X131637209Y-69149121D01*
X131635687Y-69153500D01*
X131635969Y-69153594D01*
X131633240Y-69161827D01*
X131627297Y-69190607D01*
X131617704Y-69237068D01*
X131606482Y-69284418D01*
X131599995Y-69311788D01*
X131598989Y-69320402D01*
X131598693Y-69320367D01*
X131596917Y-69337748D01*
X131596476Y-69339883D01*
X131579596Y-69384238D01*
X131569251Y-69402156D01*
X131569245Y-69402169D01*
X131513999Y-69572199D01*
X131495312Y-69750000D01*
X131513999Y-69927800D01*
X131558861Y-70065872D01*
X131569247Y-70097835D01*
X131618565Y-70183256D01*
X131658640Y-70252669D01*
X131778265Y-70385524D01*
X131778267Y-70385526D01*
X131836452Y-70427800D01*
X131929222Y-70495202D01*
X131928925Y-70495610D01*
X131951774Y-70513142D01*
X135422981Y-73984348D01*
X135437138Y-74000730D01*
X135450387Y-74018527D01*
X135450389Y-74018529D01*
X135489990Y-74051759D01*
X135494784Y-74056151D01*
X135500224Y-74061591D01*
X135525947Y-74081930D01*
X135584787Y-74131303D01*
X135592033Y-74136069D01*
X135591869Y-74136317D01*
X135595783Y-74138810D01*
X135595940Y-74138557D01*
X135603323Y-74143111D01*
X135672936Y-74175572D01*
X135741567Y-74210040D01*
X135741568Y-74210040D01*
X135741570Y-74210041D01*
X135749722Y-74213008D01*
X135749619Y-74213289D01*
X135753996Y-74214810D01*
X135754090Y-74214527D01*
X135762328Y-74217257D01*
X135837558Y-74232791D01*
X135905240Y-74248831D01*
X135912279Y-74250500D01*
X135912288Y-74250500D01*
X135920897Y-74251507D01*
X135920862Y-74251803D01*
X135925467Y-74252274D01*
X135925493Y-74251977D01*
X135934136Y-74252732D01*
X135934145Y-74252734D01*
X136010918Y-74250500D01*
X136959447Y-74250500D01*
X137033947Y-74270462D01*
X137088485Y-74325000D01*
X137108447Y-74399500D01*
X137088485Y-74474000D01*
X137064806Y-74504858D01*
X134328668Y-77240996D01*
X131613805Y-79955859D01*
X131547010Y-79994423D01*
X131508446Y-79999500D01*
X129274012Y-79999500D01*
X129269679Y-79999374D01*
X129206070Y-79995669D01*
X129206061Y-79995669D01*
X129197178Y-79997236D01*
X129171304Y-79999500D01*
X122065528Y-79999500D01*
X122043933Y-79997927D01*
X122021978Y-79994711D01*
X122021977Y-79994711D01*
X122011888Y-79995593D01*
X121970481Y-79999216D01*
X121963985Y-79999500D01*
X121956291Y-79999500D01*
X121923707Y-80003308D01*
X121847200Y-80010001D01*
X121838711Y-80011755D01*
X121838651Y-80011465D01*
X121834120Y-80012469D01*
X121834189Y-80012757D01*
X121825745Y-80014758D01*
X121753573Y-80041026D01*
X121680666Y-80065184D01*
X121672804Y-80068851D01*
X121672679Y-80068584D01*
X121668501Y-80070606D01*
X121668634Y-80070870D01*
X121660883Y-80074762D01*
X121630633Y-80094658D01*
X121596709Y-80116970D01*
X121559704Y-80139795D01*
X121531346Y-80157287D01*
X121524540Y-80162669D01*
X121523673Y-80161573D01*
X121489758Y-80184879D01*
X121322409Y-80259387D01*
X121177771Y-80364472D01*
X121177769Y-80364474D01*
X121058143Y-80497330D01*
X120968751Y-80652163D01*
X120968748Y-80652170D01*
X120913502Y-80822199D01*
X120894815Y-81000000D01*
X120500500Y-81000000D01*
X120500500Y-54001838D01*
X120500590Y-53998182D01*
X120517172Y-53660639D01*
X120517887Y-53653370D01*
X120567206Y-53320892D01*
X120568631Y-53313734D01*
X120605577Y-53166235D01*
X120650301Y-52987684D01*
X120652416Y-52980712D01*
X120765656Y-52664230D01*
X120768451Y-52657485D01*
X120912161Y-52353635D01*
X120915590Y-52347221D01*
X121088401Y-52058903D01*
X121092441Y-52052857D01*
X121292678Y-51782869D01*
X121297299Y-51777238D01*
X121523031Y-51528181D01*
X121528181Y-51523031D01*
X121777238Y-51297299D01*
X121782869Y-51292678D01*
X122052857Y-51092441D01*
X122058903Y-51088401D01*
X122347221Y-50915590D01*
X122353635Y-50912161D01*
X122657491Y-50768448D01*
X122664230Y-50765656D01*
X122980712Y-50652416D01*
X122987684Y-50650301D01*
X123181912Y-50601649D01*
X123313734Y-50568631D01*
X123320892Y-50567206D01*
X123653370Y-50517887D01*
X123660639Y-50517172D01*
X123998182Y-50500590D01*
X124001838Y-50500500D01*
X124065892Y-50500500D01*
X170934108Y-50500500D01*
X170998162Y-50500500D01*
X171001818Y-50500590D01*
G37*
%TD.AperFunction*%
%TD*%
M02*
