%TF.GenerationSoftware,KiCad,Pcbnew,7.0.8*%
%TF.CreationDate,2024-04-22T21:24:51+09:00*%
%TF.ProjectId,MixedSignalKicad,4d697865-6453-4696-976e-616c4b696361,1.0*%
%TF.SameCoordinates,Original*%
%TF.FileFunction,Legend,Bot*%
%TF.FilePolarity,Positive*%
%FSLAX46Y46*%
G04 Gerber Fmt 4.6, Leading zero omitted, Abs format (unit mm)*
G04 Created by KiCad (PCBNEW 7.0.8) date 2024-04-22 21:24:51*
%MOMM*%
%LPD*%
G01*
G04 APERTURE LIST*
%ADD10C,0.150000*%
%ADD11C,0.250000*%
%ADD12C,0.700000*%
%ADD13C,1.900000*%
%ADD14C,3.000000*%
%ADD15C,0.800000*%
%ADD16C,6.400000*%
%ADD17C,1.448000*%
%ADD18C,0.650000*%
%ADD19O,1.000000X2.100000*%
%ADD20O,1.000000X1.600000*%
%ADD21R,1.070000X1.070000*%
%ADD22C,1.070000*%
%ADD23C,0.700000*%
G04 APERTURE END LIST*
D10*
X147875000Y-115700000D02*
X155025000Y-115700000D01*
X155025000Y-117950000D01*
X147875000Y-117950000D01*
X147875000Y-115700000D01*
G36*
X147875000Y-115700000D02*
G01*
X155025000Y-115700000D01*
X155025000Y-117950000D01*
X147875000Y-117950000D01*
X147875000Y-115700000D01*
G37*
X147900000Y-92800000D02*
X155050000Y-92800000D01*
X155050000Y-94250000D01*
X147900000Y-94250000D01*
X147900000Y-92800000D01*
G36*
X147900000Y-92800000D02*
G01*
X155050000Y-92800000D01*
X155050000Y-94250000D01*
X147900000Y-94250000D01*
X147900000Y-92800000D01*
G37*
D11*
G36*
X132910714Y-121928428D02*
G01*
X132698857Y-121928428D01*
X132531807Y-121872745D01*
X132424158Y-121765096D01*
X132367939Y-121652657D01*
X132303571Y-121395182D01*
X132303571Y-121211673D01*
X132367939Y-120954198D01*
X132424159Y-120841758D01*
X132531808Y-120734110D01*
X132698854Y-120678428D01*
X132910714Y-120678428D01*
X132910714Y-121928428D01*
G37*
G36*
X131433714Y-121499857D02*
G01*
X131066284Y-121499857D01*
X131249998Y-120948711D01*
X131433714Y-121499857D01*
G37*
G36*
X133375000Y-122392714D02*
G01*
X129053889Y-122392714D01*
X129053889Y-121901653D01*
X129268175Y-121901653D01*
X129283146Y-121970476D01*
X129304468Y-121998959D01*
X129375896Y-122070388D01*
X129385840Y-122075818D01*
X129392948Y-122084646D01*
X129424757Y-122100586D01*
X129639043Y-122172014D01*
X129641383Y-122172098D01*
X129643354Y-122173365D01*
X129678571Y-122178428D01*
X129821428Y-122178428D01*
X129823674Y-122177768D01*
X129825945Y-122178347D01*
X129860956Y-122172014D01*
X130075242Y-122100586D01*
X130084547Y-122094118D01*
X130095620Y-122091710D01*
X130105537Y-122084286D01*
X130628868Y-122084286D01*
X130664780Y-122144876D01*
X130727749Y-122176432D01*
X130797783Y-122168935D01*
X130852645Y-122124765D01*
X130868584Y-122092956D01*
X130982950Y-121749857D01*
X131517047Y-121749857D01*
X131631414Y-122092957D01*
X131671609Y-122150794D01*
X131736693Y-122177718D01*
X131806001Y-122165181D01*
X131857530Y-122117164D01*
X131874918Y-122048911D01*
X131868584Y-122013900D01*
X131667474Y-121410571D01*
X132053571Y-121410571D01*
X132054529Y-121413834D01*
X132057303Y-121440888D01*
X132128731Y-121726602D01*
X132130949Y-121730383D01*
X132138196Y-121752187D01*
X132209625Y-121895044D01*
X132211218Y-121896757D01*
X132211717Y-121899048D01*
X132233039Y-121927530D01*
X132375896Y-122070388D01*
X132385840Y-122075818D01*
X132392948Y-122084646D01*
X132424757Y-122100586D01*
X132639043Y-122172014D01*
X132641383Y-122172098D01*
X132643354Y-122173365D01*
X132678571Y-122178428D01*
X133035714Y-122178428D01*
X133044469Y-122175857D01*
X133053503Y-122177156D01*
X133077735Y-122166089D01*
X133103294Y-122158585D01*
X133109269Y-122151688D01*
X133117572Y-122147897D01*
X133131975Y-122125484D01*
X133149418Y-122105355D01*
X133150716Y-122096322D01*
X133155651Y-122088645D01*
X133160714Y-122053428D01*
X133160714Y-120553428D01*
X133158143Y-120544672D01*
X133159442Y-120535639D01*
X133148375Y-120511406D01*
X133140871Y-120485848D01*
X133133974Y-120479872D01*
X133130183Y-120471570D01*
X133107770Y-120457166D01*
X133087641Y-120439724D01*
X133078608Y-120438425D01*
X133070931Y-120433491D01*
X133035714Y-120428428D01*
X132678571Y-120428428D01*
X132676324Y-120429087D01*
X132674053Y-120428509D01*
X132639042Y-120434843D01*
X132424756Y-120506272D01*
X132415451Y-120512738D01*
X132404379Y-120515147D01*
X132375896Y-120536469D01*
X132233040Y-120679326D01*
X132231918Y-120681379D01*
X132229903Y-120682577D01*
X132209625Y-120711812D01*
X132138196Y-120854669D01*
X132137420Y-120858980D01*
X132128731Y-120880254D01*
X132057303Y-121165968D01*
X132057441Y-121169365D01*
X132053571Y-121196285D01*
X132053571Y-121410571D01*
X131667474Y-121410571D01*
X131368584Y-120513900D01*
X131350964Y-120488546D01*
X131335218Y-120461980D01*
X131331050Y-120459891D01*
X131328389Y-120456062D01*
X131299851Y-120444256D01*
X131272249Y-120430424D01*
X131267613Y-120430920D01*
X131263305Y-120429138D01*
X131232922Y-120434633D01*
X131202215Y-120437921D01*
X131198582Y-120440845D01*
X131193997Y-120441675D01*
X131171414Y-120462718D01*
X131147353Y-120482091D01*
X131144485Y-120487812D01*
X131142468Y-120489693D01*
X131141355Y-120494059D01*
X131131414Y-120513899D01*
X130631414Y-122013900D01*
X130628868Y-122084286D01*
X130105537Y-122084286D01*
X130124103Y-122070388D01*
X130266960Y-121927530D01*
X130268082Y-121925475D01*
X130270096Y-121924279D01*
X130290374Y-121895044D01*
X130361803Y-121752187D01*
X130362578Y-121747875D01*
X130371268Y-121726602D01*
X130442696Y-121440888D01*
X130442557Y-121437490D01*
X130446428Y-121410571D01*
X130446428Y-121196285D01*
X130445469Y-121193021D01*
X130442696Y-121165968D01*
X130371268Y-120880254D01*
X130369049Y-120876472D01*
X130361803Y-120854669D01*
X130290374Y-120711812D01*
X130288779Y-120710097D01*
X130288281Y-120707808D01*
X130266959Y-120679325D01*
X130124102Y-120536469D01*
X130114158Y-120531039D01*
X130107051Y-120522211D01*
X130075242Y-120506272D01*
X129860957Y-120434843D01*
X129858617Y-120434758D01*
X129856645Y-120433491D01*
X129821428Y-120428428D01*
X129678571Y-120428428D01*
X129676324Y-120429087D01*
X129674053Y-120428509D01*
X129639042Y-120434843D01*
X129424756Y-120506272D01*
X129415451Y-120512738D01*
X129404379Y-120515147D01*
X129375896Y-120536469D01*
X129304469Y-120607897D01*
X129270713Y-120669714D01*
X129275738Y-120739968D01*
X129317947Y-120796353D01*
X129383940Y-120820967D01*
X129452763Y-120805995D01*
X129481245Y-120784673D01*
X129531808Y-120734110D01*
X129698854Y-120678428D01*
X129801144Y-120678428D01*
X129968191Y-120734110D01*
X130075840Y-120841759D01*
X130132059Y-120954198D01*
X130196428Y-121211673D01*
X130196428Y-121395182D01*
X130132059Y-121652657D01*
X130075840Y-121765096D01*
X129968191Y-121872745D01*
X129801142Y-121928428D01*
X129698857Y-121928428D01*
X129531807Y-121872745D01*
X129481246Y-121822183D01*
X129419429Y-121788428D01*
X129349175Y-121793452D01*
X129292790Y-121835660D01*
X129268175Y-121901653D01*
X129053889Y-121901653D01*
X129053889Y-120214142D01*
X133375000Y-120214142D01*
X133375000Y-122392714D01*
G37*
D12*
X163153542Y-113075188D02*
X165153542Y-113075188D01*
X164582114Y-113075188D02*
X164867828Y-112932331D01*
X164867828Y-112932331D02*
X165010685Y-112789474D01*
X165010685Y-112789474D02*
X165153542Y-112503759D01*
X165153542Y-112503759D02*
X165153542Y-112218045D01*
X163296400Y-110075188D02*
X163153542Y-110360902D01*
X163153542Y-110360902D02*
X163153542Y-110932331D01*
X163153542Y-110932331D02*
X163296400Y-111218045D01*
X163296400Y-111218045D02*
X163582114Y-111360902D01*
X163582114Y-111360902D02*
X164724971Y-111360902D01*
X164724971Y-111360902D02*
X165010685Y-111218045D01*
X165010685Y-111218045D02*
X165153542Y-110932331D01*
X165153542Y-110932331D02*
X165153542Y-110360902D01*
X165153542Y-110360902D02*
X165010685Y-110075188D01*
X165010685Y-110075188D02*
X164724971Y-109932331D01*
X164724971Y-109932331D02*
X164439257Y-109932331D01*
X164439257Y-109932331D02*
X164153542Y-111360902D01*
X165153542Y-108646616D02*
X162153542Y-108646616D01*
X165010685Y-108646616D02*
X165153542Y-108360902D01*
X165153542Y-108360902D02*
X165153542Y-107789473D01*
X165153542Y-107789473D02*
X165010685Y-107503759D01*
X165010685Y-107503759D02*
X164867828Y-107360902D01*
X164867828Y-107360902D02*
X164582114Y-107218044D01*
X164582114Y-107218044D02*
X163724971Y-107218044D01*
X163724971Y-107218044D02*
X163439257Y-107360902D01*
X163439257Y-107360902D02*
X163296400Y-107503759D01*
X163296400Y-107503759D02*
X163153542Y-107789473D01*
X163153542Y-107789473D02*
X163153542Y-108360902D01*
X163153542Y-108360902D02*
X163296400Y-108646616D01*
X165153542Y-104646616D02*
X163153542Y-104646616D01*
X165153542Y-105932330D02*
X163582114Y-105932330D01*
X163582114Y-105932330D02*
X163296400Y-105789473D01*
X163296400Y-105789473D02*
X163153542Y-105503758D01*
X163153542Y-105503758D02*
X163153542Y-105075187D01*
X163153542Y-105075187D02*
X163296400Y-104789473D01*
X163296400Y-104789473D02*
X163439257Y-104646616D01*
X163153542Y-103218044D02*
X166153542Y-103218044D01*
X165010685Y-103218044D02*
X165153542Y-102932330D01*
X165153542Y-102932330D02*
X165153542Y-102360901D01*
X165153542Y-102360901D02*
X165010685Y-102075187D01*
X165010685Y-102075187D02*
X164867828Y-101932330D01*
X164867828Y-101932330D02*
X164582114Y-101789472D01*
X164582114Y-101789472D02*
X163724971Y-101789472D01*
X163724971Y-101789472D02*
X163439257Y-101932330D01*
X163439257Y-101932330D02*
X163296400Y-102075187D01*
X163296400Y-102075187D02*
X163153542Y-102360901D01*
X163153542Y-102360901D02*
X163153542Y-102932330D01*
X163153542Y-102932330D02*
X163296400Y-103218044D01*
X163153542Y-100075186D02*
X163296400Y-100360901D01*
X163296400Y-100360901D02*
X163582114Y-100503758D01*
X163582114Y-100503758D02*
X166153542Y-100503758D01*
X163153542Y-98932329D02*
X165153542Y-98932329D01*
X166153542Y-98932329D02*
X166010685Y-99075186D01*
X166010685Y-99075186D02*
X165867828Y-98932329D01*
X165867828Y-98932329D02*
X166010685Y-98789472D01*
X166010685Y-98789472D02*
X166153542Y-98932329D01*
X166153542Y-98932329D02*
X165867828Y-98932329D01*
X163296400Y-96218044D02*
X163153542Y-96503758D01*
X163153542Y-96503758D02*
X163153542Y-97075186D01*
X163153542Y-97075186D02*
X163296400Y-97360901D01*
X163296400Y-97360901D02*
X163439257Y-97503758D01*
X163439257Y-97503758D02*
X163724971Y-97646615D01*
X163724971Y-97646615D02*
X164582114Y-97646615D01*
X164582114Y-97646615D02*
X164867828Y-97503758D01*
X164867828Y-97503758D02*
X165010685Y-97360901D01*
X165010685Y-97360901D02*
X165153542Y-97075186D01*
X165153542Y-97075186D02*
X165153542Y-96503758D01*
X165153542Y-96503758D02*
X165010685Y-96218044D01*
X163153542Y-94503757D02*
X163296400Y-94789472D01*
X163296400Y-94789472D02*
X163439257Y-94932329D01*
X163439257Y-94932329D02*
X163724971Y-95075186D01*
X163724971Y-95075186D02*
X164582114Y-95075186D01*
X164582114Y-95075186D02*
X164867828Y-94932329D01*
X164867828Y-94932329D02*
X165010685Y-94789472D01*
X165010685Y-94789472D02*
X165153542Y-94503757D01*
X165153542Y-94503757D02*
X165153542Y-94075186D01*
X165153542Y-94075186D02*
X165010685Y-93789472D01*
X165010685Y-93789472D02*
X164867828Y-93646615D01*
X164867828Y-93646615D02*
X164582114Y-93503757D01*
X164582114Y-93503757D02*
X163724971Y-93503757D01*
X163724971Y-93503757D02*
X163439257Y-93646615D01*
X163439257Y-93646615D02*
X163296400Y-93789472D01*
X163296400Y-93789472D02*
X163153542Y-94075186D01*
X163153542Y-94075186D02*
X163153542Y-94503757D01*
X165153542Y-92646614D02*
X165153542Y-91503757D01*
X163153542Y-92218043D02*
X165724971Y-92218043D01*
X165724971Y-92218043D02*
X166010685Y-92075186D01*
X166010685Y-92075186D02*
X166153542Y-91789471D01*
X166153542Y-91789471D02*
X166153542Y-91503757D01*
X163153542Y-90503757D02*
X165153542Y-90503757D01*
X164867828Y-90503757D02*
X165010685Y-90360900D01*
X165010685Y-90360900D02*
X165153542Y-90075185D01*
X165153542Y-90075185D02*
X165153542Y-89646614D01*
X165153542Y-89646614D02*
X165010685Y-89360900D01*
X165010685Y-89360900D02*
X164724971Y-89218043D01*
X164724971Y-89218043D02*
X163153542Y-89218043D01*
X164724971Y-89218043D02*
X165010685Y-89075185D01*
X165010685Y-89075185D02*
X165153542Y-88789471D01*
X165153542Y-88789471D02*
X165153542Y-88360900D01*
X165153542Y-88360900D02*
X165010685Y-88075185D01*
X165010685Y-88075185D02*
X164724971Y-87932328D01*
X164724971Y-87932328D02*
X163153542Y-87932328D01*
X163153542Y-85218043D02*
X164724971Y-85218043D01*
X164724971Y-85218043D02*
X165010685Y-85360900D01*
X165010685Y-85360900D02*
X165153542Y-85646614D01*
X165153542Y-85646614D02*
X165153542Y-86218043D01*
X165153542Y-86218043D02*
X165010685Y-86503757D01*
X163296400Y-85218043D02*
X163153542Y-85503757D01*
X163153542Y-85503757D02*
X163153542Y-86218043D01*
X163153542Y-86218043D02*
X163296400Y-86503757D01*
X163296400Y-86503757D02*
X163582114Y-86646614D01*
X163582114Y-86646614D02*
X163867828Y-86646614D01*
X163867828Y-86646614D02*
X164153542Y-86503757D01*
X164153542Y-86503757D02*
X164296400Y-86218043D01*
X164296400Y-86218043D02*
X164296400Y-85503757D01*
X164296400Y-85503757D02*
X164439257Y-85218043D01*
X163153542Y-83789471D02*
X166153542Y-83789471D01*
X164296400Y-83503757D02*
X163153542Y-82646614D01*
X165153542Y-82646614D02*
X164010685Y-83789471D01*
X163296400Y-80218043D02*
X163153542Y-80503757D01*
X163153542Y-80503757D02*
X163153542Y-81075186D01*
X163153542Y-81075186D02*
X163296400Y-81360900D01*
X163296400Y-81360900D02*
X163582114Y-81503757D01*
X163582114Y-81503757D02*
X164724971Y-81503757D01*
X164724971Y-81503757D02*
X165010685Y-81360900D01*
X165010685Y-81360900D02*
X165153542Y-81075186D01*
X165153542Y-81075186D02*
X165153542Y-80503757D01*
X165153542Y-80503757D02*
X165010685Y-80218043D01*
X165010685Y-80218043D02*
X164724971Y-80075186D01*
X164724971Y-80075186D02*
X164439257Y-80075186D01*
X164439257Y-80075186D02*
X164153542Y-81503757D01*
X163153542Y-78789471D02*
X165153542Y-78789471D01*
X164582114Y-78789471D02*
X164867828Y-78646614D01*
X164867828Y-78646614D02*
X165010685Y-78503757D01*
X165010685Y-78503757D02*
X165153542Y-78218042D01*
X165153542Y-78218042D02*
X165153542Y-77932328D01*
X163296400Y-77075185D02*
X163153542Y-76789471D01*
X163153542Y-76789471D02*
X163153542Y-76218042D01*
X163153542Y-76218042D02*
X163296400Y-75932328D01*
X163296400Y-75932328D02*
X163582114Y-75789471D01*
X163582114Y-75789471D02*
X163724971Y-75789471D01*
X163724971Y-75789471D02*
X164010685Y-75932328D01*
X164010685Y-75932328D02*
X164153542Y-76218042D01*
X164153542Y-76218042D02*
X164153542Y-76646614D01*
X164153542Y-76646614D02*
X164296400Y-76932328D01*
X164296400Y-76932328D02*
X164582114Y-77075185D01*
X164582114Y-77075185D02*
X164724971Y-77075185D01*
X164724971Y-77075185D02*
X165010685Y-76932328D01*
X165010685Y-76932328D02*
X165153542Y-76646614D01*
X165153542Y-76646614D02*
X165153542Y-76218042D01*
X165153542Y-76218042D02*
X165010685Y-75932328D01*
X163439257Y-69932329D02*
X163296400Y-69789472D01*
X163296400Y-69789472D02*
X163153542Y-69932329D01*
X163153542Y-69932329D02*
X163296400Y-70075186D01*
X163296400Y-70075186D02*
X163439257Y-69932329D01*
X163439257Y-69932329D02*
X163153542Y-69932329D01*
X163296400Y-67218044D02*
X163153542Y-67503758D01*
X163153542Y-67503758D02*
X163153542Y-68075186D01*
X163153542Y-68075186D02*
X163296400Y-68360901D01*
X163296400Y-68360901D02*
X163439257Y-68503758D01*
X163439257Y-68503758D02*
X163724971Y-68646615D01*
X163724971Y-68646615D02*
X164582114Y-68646615D01*
X164582114Y-68646615D02*
X164867828Y-68503758D01*
X164867828Y-68503758D02*
X165010685Y-68360901D01*
X165010685Y-68360901D02*
X165153542Y-68075186D01*
X165153542Y-68075186D02*
X165153542Y-67503758D01*
X165153542Y-67503758D02*
X165010685Y-67218044D01*
X163153542Y-65503757D02*
X163296400Y-65789472D01*
X163296400Y-65789472D02*
X163439257Y-65932329D01*
X163439257Y-65932329D02*
X163724971Y-66075186D01*
X163724971Y-66075186D02*
X164582114Y-66075186D01*
X164582114Y-66075186D02*
X164867828Y-65932329D01*
X164867828Y-65932329D02*
X165010685Y-65789472D01*
X165010685Y-65789472D02*
X165153542Y-65503757D01*
X165153542Y-65503757D02*
X165153542Y-65075186D01*
X165153542Y-65075186D02*
X165010685Y-64789472D01*
X165010685Y-64789472D02*
X164867828Y-64646615D01*
X164867828Y-64646615D02*
X164582114Y-64503757D01*
X164582114Y-64503757D02*
X163724971Y-64503757D01*
X163724971Y-64503757D02*
X163439257Y-64646615D01*
X163439257Y-64646615D02*
X163296400Y-64789472D01*
X163296400Y-64789472D02*
X163153542Y-65075186D01*
X163153542Y-65075186D02*
X163153542Y-65503757D01*
X163153542Y-63218043D02*
X165153542Y-63218043D01*
X164867828Y-63218043D02*
X165010685Y-63075186D01*
X165010685Y-63075186D02*
X165153542Y-62789471D01*
X165153542Y-62789471D02*
X165153542Y-62360900D01*
X165153542Y-62360900D02*
X165010685Y-62075186D01*
X165010685Y-62075186D02*
X164724971Y-61932329D01*
X164724971Y-61932329D02*
X163153542Y-61932329D01*
X164724971Y-61932329D02*
X165010685Y-61789471D01*
X165010685Y-61789471D02*
X165153542Y-61503757D01*
X165153542Y-61503757D02*
X165153542Y-61075186D01*
X165153542Y-61075186D02*
X165010685Y-60789471D01*
X165010685Y-60789471D02*
X164724971Y-60646614D01*
X164724971Y-60646614D02*
X163153542Y-60646614D01*
D11*
X137591857Y-82485713D02*
X138791857Y-82485713D01*
X138791857Y-82485713D02*
X137934714Y-82085713D01*
X137934714Y-82085713D02*
X138791857Y-81685713D01*
X138791857Y-81685713D02*
X137591857Y-81685713D01*
X137591857Y-81114284D02*
X138391857Y-81114284D01*
X138791857Y-81114284D02*
X138734714Y-81171427D01*
X138734714Y-81171427D02*
X138677571Y-81114284D01*
X138677571Y-81114284D02*
X138734714Y-81057141D01*
X138734714Y-81057141D02*
X138791857Y-81114284D01*
X138791857Y-81114284D02*
X138677571Y-81114284D01*
X137591857Y-80657141D02*
X138391857Y-80028570D01*
X138391857Y-80657141D02*
X137591857Y-80028570D01*
X137649000Y-79114283D02*
X137591857Y-79228569D01*
X137591857Y-79228569D02*
X137591857Y-79457141D01*
X137591857Y-79457141D02*
X137649000Y-79571426D01*
X137649000Y-79571426D02*
X137763285Y-79628569D01*
X137763285Y-79628569D02*
X138220428Y-79628569D01*
X138220428Y-79628569D02*
X138334714Y-79571426D01*
X138334714Y-79571426D02*
X138391857Y-79457141D01*
X138391857Y-79457141D02*
X138391857Y-79228569D01*
X138391857Y-79228569D02*
X138334714Y-79114283D01*
X138334714Y-79114283D02*
X138220428Y-79057141D01*
X138220428Y-79057141D02*
X138106142Y-79057141D01*
X138106142Y-79057141D02*
X137991857Y-79628569D01*
X137591857Y-78028570D02*
X138791857Y-78028570D01*
X137649000Y-78028570D02*
X137591857Y-78142855D01*
X137591857Y-78142855D02*
X137591857Y-78371427D01*
X137591857Y-78371427D02*
X137649000Y-78485712D01*
X137649000Y-78485712D02*
X137706142Y-78542855D01*
X137706142Y-78542855D02*
X137820428Y-78599998D01*
X137820428Y-78599998D02*
X138163285Y-78599998D01*
X138163285Y-78599998D02*
X138277571Y-78542855D01*
X138277571Y-78542855D02*
X138334714Y-78485712D01*
X138334714Y-78485712D02*
X138391857Y-78371427D01*
X138391857Y-78371427D02*
X138391857Y-78142855D01*
X138391857Y-78142855D02*
X138334714Y-78028570D01*
X137649000Y-76599998D02*
X137591857Y-76428570D01*
X137591857Y-76428570D02*
X137591857Y-76142855D01*
X137591857Y-76142855D02*
X137649000Y-76028570D01*
X137649000Y-76028570D02*
X137706142Y-75971427D01*
X137706142Y-75971427D02*
X137820428Y-75914284D01*
X137820428Y-75914284D02*
X137934714Y-75914284D01*
X137934714Y-75914284D02*
X138049000Y-75971427D01*
X138049000Y-75971427D02*
X138106142Y-76028570D01*
X138106142Y-76028570D02*
X138163285Y-76142855D01*
X138163285Y-76142855D02*
X138220428Y-76371427D01*
X138220428Y-76371427D02*
X138277571Y-76485712D01*
X138277571Y-76485712D02*
X138334714Y-76542855D01*
X138334714Y-76542855D02*
X138449000Y-76599998D01*
X138449000Y-76599998D02*
X138563285Y-76599998D01*
X138563285Y-76599998D02*
X138677571Y-76542855D01*
X138677571Y-76542855D02*
X138734714Y-76485712D01*
X138734714Y-76485712D02*
X138791857Y-76371427D01*
X138791857Y-76371427D02*
X138791857Y-76085712D01*
X138791857Y-76085712D02*
X138734714Y-75914284D01*
X137591857Y-75399998D02*
X138391857Y-75399998D01*
X138791857Y-75399998D02*
X138734714Y-75457141D01*
X138734714Y-75457141D02*
X138677571Y-75399998D01*
X138677571Y-75399998D02*
X138734714Y-75342855D01*
X138734714Y-75342855D02*
X138791857Y-75399998D01*
X138791857Y-75399998D02*
X138677571Y-75399998D01*
X138391857Y-74314284D02*
X137420428Y-74314284D01*
X137420428Y-74314284D02*
X137306142Y-74371426D01*
X137306142Y-74371426D02*
X137249000Y-74428569D01*
X137249000Y-74428569D02*
X137191857Y-74542855D01*
X137191857Y-74542855D02*
X137191857Y-74714284D01*
X137191857Y-74714284D02*
X137249000Y-74828569D01*
X137649000Y-74314284D02*
X137591857Y-74428569D01*
X137591857Y-74428569D02*
X137591857Y-74657141D01*
X137591857Y-74657141D02*
X137649000Y-74771426D01*
X137649000Y-74771426D02*
X137706142Y-74828569D01*
X137706142Y-74828569D02*
X137820428Y-74885712D01*
X137820428Y-74885712D02*
X138163285Y-74885712D01*
X138163285Y-74885712D02*
X138277571Y-74828569D01*
X138277571Y-74828569D02*
X138334714Y-74771426D01*
X138334714Y-74771426D02*
X138391857Y-74657141D01*
X138391857Y-74657141D02*
X138391857Y-74428569D01*
X138391857Y-74428569D02*
X138334714Y-74314284D01*
X138391857Y-73742855D02*
X137591857Y-73742855D01*
X138277571Y-73742855D02*
X138334714Y-73685712D01*
X138334714Y-73685712D02*
X138391857Y-73571427D01*
X138391857Y-73571427D02*
X138391857Y-73399998D01*
X138391857Y-73399998D02*
X138334714Y-73285712D01*
X138334714Y-73285712D02*
X138220428Y-73228570D01*
X138220428Y-73228570D02*
X137591857Y-73228570D01*
X137591857Y-72142856D02*
X138220428Y-72142856D01*
X138220428Y-72142856D02*
X138334714Y-72199998D01*
X138334714Y-72199998D02*
X138391857Y-72314284D01*
X138391857Y-72314284D02*
X138391857Y-72542856D01*
X138391857Y-72542856D02*
X138334714Y-72657141D01*
X137649000Y-72142856D02*
X137591857Y-72257141D01*
X137591857Y-72257141D02*
X137591857Y-72542856D01*
X137591857Y-72542856D02*
X137649000Y-72657141D01*
X137649000Y-72657141D02*
X137763285Y-72714284D01*
X137763285Y-72714284D02*
X137877571Y-72714284D01*
X137877571Y-72714284D02*
X137991857Y-72657141D01*
X137991857Y-72657141D02*
X138049000Y-72542856D01*
X138049000Y-72542856D02*
X138049000Y-72257141D01*
X138049000Y-72257141D02*
X138106142Y-72142856D01*
X137591857Y-71399999D02*
X137649000Y-71514284D01*
X137649000Y-71514284D02*
X137763285Y-71571427D01*
X137763285Y-71571427D02*
X138791857Y-71571427D01*
X135659857Y-84285713D02*
X136859857Y-84285713D01*
X136288428Y-84285713D02*
X136288428Y-83599999D01*
X135659857Y-83599999D02*
X136859857Y-83599999D01*
X135659857Y-82514285D02*
X136288428Y-82514285D01*
X136288428Y-82514285D02*
X136402714Y-82571427D01*
X136402714Y-82571427D02*
X136459857Y-82685713D01*
X136459857Y-82685713D02*
X136459857Y-82914285D01*
X136459857Y-82914285D02*
X136402714Y-83028570D01*
X135717000Y-82514285D02*
X135659857Y-82628570D01*
X135659857Y-82628570D02*
X135659857Y-82914285D01*
X135659857Y-82914285D02*
X135717000Y-83028570D01*
X135717000Y-83028570D02*
X135831285Y-83085713D01*
X135831285Y-83085713D02*
X135945571Y-83085713D01*
X135945571Y-83085713D02*
X136059857Y-83028570D01*
X136059857Y-83028570D02*
X136117000Y-82914285D01*
X136117000Y-82914285D02*
X136117000Y-82628570D01*
X136117000Y-82628570D02*
X136174142Y-82514285D01*
X135659857Y-81942856D02*
X136459857Y-81942856D01*
X136231285Y-81942856D02*
X136345571Y-81885713D01*
X136345571Y-81885713D02*
X136402714Y-81828571D01*
X136402714Y-81828571D02*
X136459857Y-81714285D01*
X136459857Y-81714285D02*
X136459857Y-81599999D01*
X135659857Y-80685714D02*
X136859857Y-80685714D01*
X135717000Y-80685714D02*
X135659857Y-80799999D01*
X135659857Y-80799999D02*
X135659857Y-81028571D01*
X135659857Y-81028571D02*
X135717000Y-81142856D01*
X135717000Y-81142856D02*
X135774142Y-81199999D01*
X135774142Y-81199999D02*
X135888428Y-81257142D01*
X135888428Y-81257142D02*
X136231285Y-81257142D01*
X136231285Y-81257142D02*
X136345571Y-81199999D01*
X136345571Y-81199999D02*
X136402714Y-81142856D01*
X136402714Y-81142856D02*
X136459857Y-81028571D01*
X136459857Y-81028571D02*
X136459857Y-80799999D01*
X136459857Y-80799999D02*
X136402714Y-80685714D01*
X136459857Y-80228571D02*
X135659857Y-80000000D01*
X135659857Y-80000000D02*
X136231285Y-79771428D01*
X136231285Y-79771428D02*
X135659857Y-79542857D01*
X135659857Y-79542857D02*
X136459857Y-79314285D01*
X135659857Y-78342857D02*
X136288428Y-78342857D01*
X136288428Y-78342857D02*
X136402714Y-78399999D01*
X136402714Y-78399999D02*
X136459857Y-78514285D01*
X136459857Y-78514285D02*
X136459857Y-78742857D01*
X136459857Y-78742857D02*
X136402714Y-78857142D01*
X135717000Y-78342857D02*
X135659857Y-78457142D01*
X135659857Y-78457142D02*
X135659857Y-78742857D01*
X135659857Y-78742857D02*
X135717000Y-78857142D01*
X135717000Y-78857142D02*
X135831285Y-78914285D01*
X135831285Y-78914285D02*
X135945571Y-78914285D01*
X135945571Y-78914285D02*
X136059857Y-78857142D01*
X136059857Y-78857142D02*
X136117000Y-78742857D01*
X136117000Y-78742857D02*
X136117000Y-78457142D01*
X136117000Y-78457142D02*
X136174142Y-78342857D01*
X135659857Y-77771428D02*
X136459857Y-77771428D01*
X136231285Y-77771428D02*
X136345571Y-77714285D01*
X136345571Y-77714285D02*
X136402714Y-77657143D01*
X136402714Y-77657143D02*
X136459857Y-77542857D01*
X136459857Y-77542857D02*
X136459857Y-77428571D01*
X135717000Y-76571428D02*
X135659857Y-76685714D01*
X135659857Y-76685714D02*
X135659857Y-76914286D01*
X135659857Y-76914286D02*
X135717000Y-77028571D01*
X135717000Y-77028571D02*
X135831285Y-77085714D01*
X135831285Y-77085714D02*
X136288428Y-77085714D01*
X136288428Y-77085714D02*
X136402714Y-77028571D01*
X136402714Y-77028571D02*
X136459857Y-76914286D01*
X136459857Y-76914286D02*
X136459857Y-76685714D01*
X136459857Y-76685714D02*
X136402714Y-76571428D01*
X136402714Y-76571428D02*
X136288428Y-76514286D01*
X136288428Y-76514286D02*
X136174142Y-76514286D01*
X136174142Y-76514286D02*
X136059857Y-77085714D01*
X135659857Y-75085714D02*
X136859857Y-75085714D01*
X136859857Y-75085714D02*
X136859857Y-74800000D01*
X136859857Y-74800000D02*
X136802714Y-74628571D01*
X136802714Y-74628571D02*
X136688428Y-74514286D01*
X136688428Y-74514286D02*
X136574142Y-74457143D01*
X136574142Y-74457143D02*
X136345571Y-74400000D01*
X136345571Y-74400000D02*
X136174142Y-74400000D01*
X136174142Y-74400000D02*
X135945571Y-74457143D01*
X135945571Y-74457143D02*
X135831285Y-74514286D01*
X135831285Y-74514286D02*
X135717000Y-74628571D01*
X135717000Y-74628571D02*
X135659857Y-74800000D01*
X135659857Y-74800000D02*
X135659857Y-75085714D01*
X135717000Y-73428571D02*
X135659857Y-73542857D01*
X135659857Y-73542857D02*
X135659857Y-73771429D01*
X135659857Y-73771429D02*
X135717000Y-73885714D01*
X135717000Y-73885714D02*
X135831285Y-73942857D01*
X135831285Y-73942857D02*
X136288428Y-73942857D01*
X136288428Y-73942857D02*
X136402714Y-73885714D01*
X136402714Y-73885714D02*
X136459857Y-73771429D01*
X136459857Y-73771429D02*
X136459857Y-73542857D01*
X136459857Y-73542857D02*
X136402714Y-73428571D01*
X136402714Y-73428571D02*
X136288428Y-73371429D01*
X136288428Y-73371429D02*
X136174142Y-73371429D01*
X136174142Y-73371429D02*
X136059857Y-73942857D01*
X135717000Y-72914286D02*
X135659857Y-72800000D01*
X135659857Y-72800000D02*
X135659857Y-72571429D01*
X135659857Y-72571429D02*
X135717000Y-72457143D01*
X135717000Y-72457143D02*
X135831285Y-72400000D01*
X135831285Y-72400000D02*
X135888428Y-72400000D01*
X135888428Y-72400000D02*
X136002714Y-72457143D01*
X136002714Y-72457143D02*
X136059857Y-72571429D01*
X136059857Y-72571429D02*
X136059857Y-72742858D01*
X136059857Y-72742858D02*
X136117000Y-72857143D01*
X136117000Y-72857143D02*
X136231285Y-72914286D01*
X136231285Y-72914286D02*
X136288428Y-72914286D01*
X136288428Y-72914286D02*
X136402714Y-72857143D01*
X136402714Y-72857143D02*
X136459857Y-72742858D01*
X136459857Y-72742858D02*
X136459857Y-72571429D01*
X136459857Y-72571429D02*
X136402714Y-72457143D01*
X135659857Y-71885714D02*
X136459857Y-71885714D01*
X136859857Y-71885714D02*
X136802714Y-71942857D01*
X136802714Y-71942857D02*
X136745571Y-71885714D01*
X136745571Y-71885714D02*
X136802714Y-71828571D01*
X136802714Y-71828571D02*
X136859857Y-71885714D01*
X136859857Y-71885714D02*
X136745571Y-71885714D01*
X136459857Y-70800000D02*
X135488428Y-70800000D01*
X135488428Y-70800000D02*
X135374142Y-70857142D01*
X135374142Y-70857142D02*
X135317000Y-70914285D01*
X135317000Y-70914285D02*
X135259857Y-71028571D01*
X135259857Y-71028571D02*
X135259857Y-71200000D01*
X135259857Y-71200000D02*
X135317000Y-71314285D01*
X135717000Y-70800000D02*
X135659857Y-70914285D01*
X135659857Y-70914285D02*
X135659857Y-71142857D01*
X135659857Y-71142857D02*
X135717000Y-71257142D01*
X135717000Y-71257142D02*
X135774142Y-71314285D01*
X135774142Y-71314285D02*
X135888428Y-71371428D01*
X135888428Y-71371428D02*
X136231285Y-71371428D01*
X136231285Y-71371428D02*
X136345571Y-71314285D01*
X136345571Y-71314285D02*
X136402714Y-71257142D01*
X136402714Y-71257142D02*
X136459857Y-71142857D01*
X136459857Y-71142857D02*
X136459857Y-70914285D01*
X136459857Y-70914285D02*
X136402714Y-70800000D01*
X136459857Y-70228571D02*
X135659857Y-70228571D01*
X136345571Y-70228571D02*
X136402714Y-70171428D01*
X136402714Y-70171428D02*
X136459857Y-70057143D01*
X136459857Y-70057143D02*
X136459857Y-69885714D01*
X136459857Y-69885714D02*
X136402714Y-69771428D01*
X136402714Y-69771428D02*
X136288428Y-69714286D01*
X136288428Y-69714286D02*
X135659857Y-69714286D01*
D12*
G36*
X146437644Y-115279502D02*
G01*
X146547796Y-115389654D01*
X146675923Y-115645908D01*
X146675923Y-116737093D01*
X145280685Y-116737093D01*
X145280685Y-115645907D01*
X145408810Y-115389655D01*
X145518961Y-115279505D01*
X145775215Y-115151378D01*
X146181394Y-115151378D01*
X146437644Y-115279502D01*
G37*
G36*
X145241239Y-111824158D02*
G01*
X145342590Y-112026860D01*
X145342590Y-112623516D01*
X145241239Y-112826217D01*
X145038537Y-112927569D01*
X144786188Y-112927569D01*
X145027140Y-111722807D01*
X145038537Y-111722807D01*
X145241239Y-111824158D01*
G37*
G36*
X145104314Y-102898553D02*
G01*
X145214463Y-103008703D01*
X145342590Y-103264956D01*
X145342590Y-103861612D01*
X145285802Y-103975189D01*
X143432712Y-103975189D01*
X143375923Y-103861612D01*
X143375923Y-103264954D01*
X143504048Y-103008704D01*
X143614200Y-102898553D01*
X143870453Y-102770427D01*
X144848061Y-102770427D01*
X145104314Y-102898553D01*
G37*
G36*
X145241239Y-99443206D02*
G01*
X145342590Y-99645908D01*
X145342590Y-100242564D01*
X145241239Y-100445265D01*
X145038537Y-100546617D01*
X144786188Y-100546617D01*
X145027140Y-99341855D01*
X145038537Y-99341855D01*
X145241239Y-99443206D01*
G37*
G36*
X147947352Y-118008522D02*
G01*
X140772356Y-118008522D01*
X140772356Y-117115996D01*
X142677118Y-117115996D01*
X142705402Y-117227686D01*
X142768420Y-117324142D01*
X142859341Y-117394909D01*
X142968315Y-117432319D01*
X143025923Y-117437093D01*
X147025923Y-117437093D01*
X147040298Y-117434694D01*
X147054826Y-117435898D01*
X147096833Y-117425260D01*
X147139568Y-117418129D01*
X147152385Y-117411192D01*
X147166516Y-117407614D01*
X147202792Y-117383913D01*
X147240897Y-117363292D01*
X147250768Y-117352569D01*
X147262972Y-117344596D01*
X147289588Y-117310399D01*
X147318931Y-117278525D01*
X147324785Y-117265178D01*
X147333739Y-117253675D01*
X147347808Y-117212691D01*
X147365213Y-117173013D01*
X147366416Y-117158485D01*
X147371149Y-117144701D01*
X147375923Y-117087093D01*
X147375923Y-115563283D01*
X147367359Y-115511967D01*
X147360465Y-115460419D01*
X147357538Y-115453113D01*
X147356959Y-115449638D01*
X147353833Y-115443863D01*
X147338972Y-115406758D01*
X147148497Y-115025806D01*
X147132346Y-115003608D01*
X147120294Y-114978955D01*
X147082935Y-114934844D01*
X146892459Y-114744367D01*
X146870120Y-114728417D01*
X146850887Y-114708837D01*
X146801496Y-114678804D01*
X146420544Y-114488328D01*
X146370813Y-114473037D01*
X146321627Y-114456152D01*
X146313781Y-114455501D01*
X146310416Y-114454467D01*
X146303858Y-114454679D01*
X146264019Y-114451378D01*
X145692590Y-114451378D01*
X145641274Y-114459941D01*
X145589726Y-114466836D01*
X145582420Y-114469762D01*
X145578945Y-114470342D01*
X145573170Y-114473467D01*
X145536065Y-114488329D01*
X145155113Y-114678804D01*
X145132917Y-114694952D01*
X145108261Y-114707007D01*
X145064151Y-114744367D01*
X144873674Y-114934844D01*
X144857726Y-114957179D01*
X144838144Y-114976415D01*
X144808111Y-115025806D01*
X144617635Y-115406758D01*
X144602344Y-115456488D01*
X144585459Y-115505675D01*
X144584808Y-115513520D01*
X144583774Y-115516886D01*
X144583986Y-115523443D01*
X144580685Y-115563283D01*
X144580685Y-116737093D01*
X143025923Y-116737093D01*
X142912278Y-116756057D01*
X142810949Y-116810894D01*
X142732915Y-116895661D01*
X142686633Y-117001173D01*
X142677118Y-117115996D01*
X140772356Y-117115996D01*
X140772356Y-112706140D01*
X142675923Y-112706140D01*
X142684486Y-112757455D01*
X142691381Y-112809004D01*
X142694307Y-112816309D01*
X142694887Y-112819785D01*
X142698012Y-112825559D01*
X142712874Y-112862665D01*
X142903351Y-113243618D01*
X142918581Y-113264552D01*
X142929745Y-113287914D01*
X142952243Y-113310818D01*
X142971136Y-113336785D01*
X142992345Y-113351643D01*
X143010484Y-113370109D01*
X143059875Y-113400143D01*
X143440827Y-113590618D01*
X143490541Y-113605904D01*
X143539744Y-113622795D01*
X143547589Y-113623445D01*
X143550955Y-113624480D01*
X143557512Y-113624267D01*
X143597352Y-113627569D01*
X145121161Y-113627569D01*
X145172462Y-113619008D01*
X145224024Y-113612112D01*
X145231332Y-113609184D01*
X145234806Y-113608605D01*
X145240576Y-113605482D01*
X145277685Y-113590619D01*
X145658638Y-113400143D01*
X145679571Y-113384912D01*
X145702936Y-113373748D01*
X145725844Y-113351244D01*
X145751805Y-113332357D01*
X145766659Y-113311153D01*
X145785131Y-113293009D01*
X145815164Y-113243617D01*
X146005640Y-112862665D01*
X146020929Y-112812938D01*
X146037816Y-112763748D01*
X146038466Y-112755901D01*
X146039501Y-112752536D01*
X146039288Y-112745979D01*
X146042590Y-112706140D01*
X146042590Y-111944235D01*
X146034026Y-111892919D01*
X146027132Y-111841371D01*
X146024205Y-111834065D01*
X146023626Y-111830590D01*
X146020500Y-111824815D01*
X146005639Y-111787710D01*
X145815164Y-111406758D01*
X145799932Y-111385823D01*
X145788769Y-111362461D01*
X145766267Y-111339554D01*
X145747378Y-111313592D01*
X145726171Y-111298735D01*
X145708029Y-111280266D01*
X145658638Y-111250233D01*
X145277685Y-111059757D01*
X145227964Y-111044469D01*
X145178769Y-111027581D01*
X145170922Y-111026930D01*
X145167557Y-111025896D01*
X145161000Y-111026108D01*
X145121161Y-111022807D01*
X144740209Y-111022807D01*
X144702947Y-111029024D01*
X144665206Y-111030937D01*
X144646469Y-111038449D01*
X144626564Y-111041771D01*
X144593337Y-111059752D01*
X144558264Y-111073815D01*
X144542982Y-111087003D01*
X144525235Y-111096608D01*
X144499649Y-111124401D01*
X144471040Y-111149092D01*
X144460868Y-111166527D01*
X144447201Y-111181375D01*
X144432023Y-111215976D01*
X144412985Y-111248613D01*
X144403989Y-111279886D01*
X144400919Y-111286887D01*
X144400491Y-111292049D01*
X144397006Y-111304166D01*
X144072326Y-112927569D01*
X143679977Y-112927569D01*
X143477274Y-112826217D01*
X143375923Y-112623516D01*
X143375923Y-112026858D01*
X143529449Y-111719808D01*
X143563311Y-111609680D01*
X143559579Y-111494525D01*
X143518660Y-111386820D01*
X143444985Y-111298238D01*
X143346540Y-111238377D01*
X143233992Y-111213725D01*
X143119537Y-111226953D01*
X143015579Y-111276627D01*
X142933384Y-111357366D01*
X142903351Y-111406757D01*
X142712874Y-111787710D01*
X142697587Y-111837424D01*
X142680697Y-111886627D01*
X142680046Y-111894472D01*
X142679012Y-111897838D01*
X142679224Y-111904395D01*
X142675923Y-111944235D01*
X142675923Y-112706140D01*
X140772356Y-112706140D01*
X140772356Y-109687425D01*
X142677118Y-109687425D01*
X142705402Y-109799115D01*
X142768420Y-109895571D01*
X142859341Y-109966338D01*
X142968315Y-110003748D01*
X143025923Y-110008522D01*
X145692590Y-110008522D01*
X145806235Y-109989558D01*
X145907564Y-109934721D01*
X145985598Y-109849954D01*
X146031880Y-109744442D01*
X146041395Y-109629619D01*
X146013111Y-109517929D01*
X145950093Y-109421473D01*
X145926063Y-109402769D01*
X146005639Y-109243618D01*
X146020925Y-109193903D01*
X146037816Y-109144701D01*
X146038466Y-109136855D01*
X146039501Y-109133490D01*
X146039288Y-109126932D01*
X146042590Y-109087093D01*
X146042590Y-108515664D01*
X146034026Y-108464348D01*
X146027132Y-108412800D01*
X146024205Y-108405494D01*
X146023626Y-108402019D01*
X146020500Y-108396244D01*
X146005639Y-108359139D01*
X145815164Y-107978187D01*
X145799932Y-107957252D01*
X145794067Y-107944978D01*
X145815164Y-107910284D01*
X146005640Y-107529332D01*
X146020929Y-107479605D01*
X146037816Y-107430415D01*
X146038466Y-107422568D01*
X146039501Y-107419203D01*
X146039288Y-107412646D01*
X146042590Y-107372807D01*
X146042590Y-106801379D01*
X146034029Y-106750077D01*
X146027133Y-106698516D01*
X146024205Y-106691206D01*
X146023626Y-106687734D01*
X146020503Y-106681964D01*
X146005640Y-106644854D01*
X145815164Y-106263902D01*
X145799933Y-106242968D01*
X145788769Y-106219604D01*
X145766266Y-106196696D01*
X145747378Y-106170735D01*
X145726171Y-106155878D01*
X145708029Y-106137409D01*
X145658638Y-106107376D01*
X145277685Y-105916900D01*
X145227964Y-105901612D01*
X145178769Y-105884724D01*
X145170922Y-105884073D01*
X145167557Y-105883039D01*
X145161000Y-105883251D01*
X145121161Y-105879950D01*
X143025923Y-105879950D01*
X142912278Y-105898914D01*
X142810949Y-105953751D01*
X142732915Y-106038518D01*
X142686633Y-106144030D01*
X142677118Y-106258853D01*
X142705402Y-106370543D01*
X142768420Y-106466999D01*
X142859341Y-106537766D01*
X142968315Y-106575176D01*
X143025923Y-106579950D01*
X145038537Y-106579950D01*
X145241239Y-106681301D01*
X145342590Y-106884002D01*
X145342590Y-107290183D01*
X145241239Y-107492884D01*
X145038537Y-107594236D01*
X143025923Y-107594236D01*
X142912278Y-107613200D01*
X142810949Y-107668037D01*
X142732915Y-107752804D01*
X142686633Y-107858316D01*
X142677118Y-107973139D01*
X142705402Y-108084829D01*
X142768420Y-108181285D01*
X142859341Y-108252052D01*
X142968315Y-108289462D01*
X143025923Y-108294236D01*
X145038537Y-108294236D01*
X145241239Y-108395587D01*
X145342590Y-108598289D01*
X145342590Y-109004468D01*
X145214463Y-109260722D01*
X145166663Y-109308522D01*
X143025923Y-109308522D01*
X142912278Y-109327486D01*
X142810949Y-109382323D01*
X142732915Y-109467090D01*
X142686633Y-109572602D01*
X142677118Y-109687425D01*
X140772356Y-109687425D01*
X140772356Y-104354092D01*
X141343785Y-104354092D01*
X141372069Y-104465782D01*
X141435087Y-104562238D01*
X141526008Y-104633005D01*
X141634982Y-104670415D01*
X141692590Y-104675189D01*
X145692590Y-104675189D01*
X145806235Y-104656225D01*
X145907564Y-104601388D01*
X145985598Y-104516621D01*
X146031880Y-104411109D01*
X146041395Y-104296286D01*
X146013111Y-104184596D01*
X145985133Y-104141773D01*
X146005640Y-104100761D01*
X146020929Y-104051034D01*
X146037816Y-104001844D01*
X146038466Y-103993997D01*
X146039501Y-103990632D01*
X146039288Y-103984075D01*
X146042590Y-103944236D01*
X146042590Y-103182331D01*
X146034026Y-103131015D01*
X146027132Y-103079467D01*
X146024205Y-103072161D01*
X146023626Y-103068686D01*
X146020500Y-103062911D01*
X146005639Y-103025806D01*
X145815164Y-102644854D01*
X145799013Y-102622656D01*
X145786961Y-102598003D01*
X145749602Y-102553892D01*
X145559125Y-102363416D01*
X145536787Y-102347467D01*
X145517553Y-102327886D01*
X145468162Y-102297853D01*
X145087209Y-102107377D01*
X145037488Y-102092089D01*
X144988293Y-102075201D01*
X144980446Y-102074550D01*
X144977081Y-102073516D01*
X144970524Y-102073728D01*
X144930685Y-102070427D01*
X143787828Y-102070427D01*
X143736512Y-102078990D01*
X143684964Y-102085885D01*
X143677658Y-102088811D01*
X143674183Y-102089391D01*
X143668408Y-102092516D01*
X143631303Y-102107378D01*
X143250351Y-102297853D01*
X143228153Y-102314003D01*
X143203500Y-102326056D01*
X143159389Y-102363415D01*
X142968913Y-102553892D01*
X142952965Y-102576226D01*
X142933384Y-102595462D01*
X142903351Y-102644853D01*
X142712874Y-103025806D01*
X142697587Y-103075520D01*
X142680697Y-103124723D01*
X142680046Y-103132568D01*
X142679012Y-103135934D01*
X142679224Y-103142491D01*
X142675923Y-103182331D01*
X142675923Y-103944236D01*
X142681088Y-103975189D01*
X141692590Y-103975189D01*
X141578945Y-103994153D01*
X141477616Y-104048990D01*
X141399582Y-104133757D01*
X141353300Y-104239269D01*
X141343785Y-104354092D01*
X140772356Y-104354092D01*
X140772356Y-100325188D01*
X142675923Y-100325188D01*
X142684486Y-100376503D01*
X142691381Y-100428052D01*
X142694307Y-100435357D01*
X142694887Y-100438833D01*
X142698012Y-100444607D01*
X142712874Y-100481713D01*
X142903351Y-100862666D01*
X142918581Y-100883600D01*
X142929745Y-100906962D01*
X142952243Y-100929866D01*
X142971136Y-100955833D01*
X142992345Y-100970691D01*
X143010484Y-100989157D01*
X143059875Y-101019191D01*
X143440827Y-101209666D01*
X143490541Y-101224952D01*
X143539744Y-101241843D01*
X143547589Y-101242493D01*
X143550955Y-101243528D01*
X143557512Y-101243315D01*
X143597352Y-101246617D01*
X145121161Y-101246617D01*
X145172462Y-101238056D01*
X145224024Y-101231160D01*
X145231332Y-101228232D01*
X145234806Y-101227653D01*
X145240576Y-101224530D01*
X145277685Y-101209667D01*
X145658638Y-101019191D01*
X145679571Y-101003960D01*
X145702936Y-100992796D01*
X145725844Y-100970292D01*
X145751805Y-100951405D01*
X145766659Y-100930201D01*
X145785131Y-100912057D01*
X145815164Y-100862665D01*
X146005640Y-100481713D01*
X146020929Y-100431986D01*
X146037816Y-100382796D01*
X146038466Y-100374949D01*
X146039501Y-100371584D01*
X146039288Y-100365027D01*
X146042590Y-100325188D01*
X146042590Y-99563283D01*
X146034026Y-99511967D01*
X146027132Y-99460419D01*
X146024205Y-99453113D01*
X146023626Y-99449638D01*
X146020500Y-99443863D01*
X146005639Y-99406758D01*
X145815164Y-99025806D01*
X145799932Y-99004871D01*
X145788769Y-98981509D01*
X145766267Y-98958602D01*
X145747378Y-98932640D01*
X145726171Y-98917783D01*
X145708029Y-98899314D01*
X145658638Y-98869281D01*
X145277685Y-98678805D01*
X145227964Y-98663517D01*
X145178769Y-98646629D01*
X145170922Y-98645978D01*
X145167557Y-98644944D01*
X145161000Y-98645156D01*
X145121161Y-98641855D01*
X144740209Y-98641855D01*
X144702947Y-98648072D01*
X144665206Y-98649985D01*
X144646469Y-98657497D01*
X144626564Y-98660819D01*
X144593337Y-98678800D01*
X144558264Y-98692863D01*
X144542982Y-98706051D01*
X144525235Y-98715656D01*
X144499649Y-98743449D01*
X144471040Y-98768140D01*
X144460868Y-98785575D01*
X144447201Y-98800423D01*
X144432023Y-98835024D01*
X144412985Y-98867661D01*
X144403989Y-98898934D01*
X144400919Y-98905935D01*
X144400491Y-98911097D01*
X144397006Y-98923214D01*
X144072326Y-100546617D01*
X143679977Y-100546617D01*
X143477274Y-100445265D01*
X143375923Y-100242564D01*
X143375923Y-99645906D01*
X143529449Y-99338856D01*
X143563311Y-99228728D01*
X143559579Y-99113573D01*
X143518660Y-99005868D01*
X143444985Y-98917286D01*
X143346540Y-98857425D01*
X143233992Y-98832773D01*
X143119537Y-98846001D01*
X143015579Y-98895675D01*
X142933384Y-98976414D01*
X142903351Y-99025805D01*
X142712874Y-99406758D01*
X142697587Y-99456472D01*
X142680697Y-99505675D01*
X142680046Y-99513520D01*
X142679012Y-99516886D01*
X142679224Y-99523443D01*
X142675923Y-99563283D01*
X142675923Y-100325188D01*
X140772356Y-100325188D01*
X140772356Y-96706141D01*
X142675923Y-96706141D01*
X142684485Y-96757454D01*
X142691381Y-96809005D01*
X142694307Y-96816310D01*
X142694887Y-96819786D01*
X142698012Y-96825560D01*
X142712874Y-96862666D01*
X142903351Y-97243619D01*
X142919499Y-97265814D01*
X142931553Y-97290469D01*
X142968912Y-97334580D01*
X143159388Y-97525056D01*
X143181726Y-97541005D01*
X143200960Y-97560586D01*
X143250351Y-97590620D01*
X143631303Y-97781095D01*
X143681017Y-97796381D01*
X143730220Y-97813272D01*
X143738065Y-97813922D01*
X143741431Y-97814957D01*
X143747988Y-97814744D01*
X143787828Y-97818046D01*
X144930685Y-97818046D01*
X144981986Y-97809485D01*
X145033548Y-97802589D01*
X145040856Y-97799661D01*
X145044330Y-97799082D01*
X145050100Y-97795959D01*
X145087209Y-97781096D01*
X145468162Y-97590620D01*
X145490359Y-97574469D01*
X145515015Y-97562416D01*
X145559126Y-97525057D01*
X145749602Y-97334580D01*
X145765552Y-97312239D01*
X145785130Y-97293009D01*
X145815164Y-97243618D01*
X146005639Y-96862666D01*
X146020925Y-96812951D01*
X146037816Y-96763749D01*
X146038466Y-96755903D01*
X146039501Y-96752538D01*
X146039288Y-96745980D01*
X146042590Y-96706141D01*
X146042590Y-95944236D01*
X146034026Y-95892920D01*
X146027132Y-95841372D01*
X146024205Y-95834066D01*
X146023626Y-95830591D01*
X146020500Y-95824816D01*
X146005639Y-95787711D01*
X145815164Y-95406759D01*
X145747378Y-95313593D01*
X145653015Y-95247485D01*
X145542299Y-95215599D01*
X145427228Y-95221389D01*
X145320272Y-95264229D01*
X145233022Y-95339476D01*
X145174932Y-95438978D01*
X145152297Y-95551948D01*
X145167571Y-95666148D01*
X145189064Y-95719809D01*
X145342590Y-96026861D01*
X145342590Y-96623516D01*
X145214463Y-96879770D01*
X145104313Y-96989920D01*
X144848061Y-97118046D01*
X143870453Y-97118046D01*
X143614201Y-96989920D01*
X143504047Y-96879766D01*
X143375923Y-96623517D01*
X143375923Y-96026859D01*
X143529449Y-95719809D01*
X143563311Y-95609681D01*
X143559579Y-95494526D01*
X143518660Y-95386821D01*
X143444985Y-95298239D01*
X143346540Y-95238378D01*
X143233992Y-95213726D01*
X143119537Y-95226954D01*
X143015579Y-95276628D01*
X142933384Y-95357367D01*
X142903351Y-95406758D01*
X142712874Y-95787711D01*
X142697587Y-95837425D01*
X142680697Y-95886628D01*
X142680046Y-95894473D01*
X142679012Y-95897839D01*
X142679224Y-95904396D01*
X142675923Y-95944236D01*
X142675923Y-96706141D01*
X140772356Y-96706141D01*
X140772356Y-93877902D01*
X142677118Y-93877902D01*
X142705402Y-93989592D01*
X142768420Y-94086048D01*
X142859341Y-94156815D01*
X142968315Y-94194225D01*
X143025923Y-94198999D01*
X145692590Y-94198999D01*
X145806235Y-94180035D01*
X145907564Y-94125198D01*
X145985598Y-94040431D01*
X146031880Y-93934919D01*
X146040198Y-93834536D01*
X146295270Y-93834536D01*
X146297966Y-93856171D01*
X146296166Y-93877902D01*
X146301519Y-93899040D01*
X146302420Y-93920825D01*
X146307718Y-93934402D01*
X146309521Y-93948867D01*
X146319097Y-93968456D01*
X146324450Y-93989592D01*
X146336377Y-94007848D01*
X146344303Y-94028159D01*
X146353721Y-94039279D01*
X146360124Y-94052376D01*
X146383502Y-94079978D01*
X146387468Y-94086048D01*
X146390916Y-94088732D01*
X146397484Y-94096486D01*
X146587960Y-94286963D01*
X146599820Y-94295431D01*
X146609242Y-94306555D01*
X146646470Y-94328738D01*
X146681729Y-94353912D01*
X146695696Y-94358070D01*
X146708219Y-94365532D01*
X146750629Y-94374424D01*
X146792155Y-94386787D01*
X146806717Y-94386184D01*
X146820984Y-94389176D01*
X146863982Y-94383816D01*
X146907272Y-94382026D01*
X146920849Y-94376728D01*
X146935315Y-94374925D01*
X146974243Y-94355893D01*
X147014607Y-94340144D01*
X147025730Y-94330723D01*
X147038824Y-94324322D01*
X147082934Y-94286962D01*
X147273411Y-94096486D01*
X147281880Y-94084623D01*
X147293002Y-94075204D01*
X147304163Y-94056472D01*
X147318931Y-94040431D01*
X147327689Y-94020462D01*
X147340360Y-94002717D01*
X147344518Y-93988747D01*
X147351979Y-93976228D01*
X147356453Y-93954888D01*
X147365213Y-93934919D01*
X147367013Y-93913187D01*
X147373235Y-93892291D01*
X147372632Y-93877728D01*
X147375624Y-93863463D01*
X147372927Y-93841827D01*
X147374728Y-93820096D01*
X147369374Y-93798957D01*
X147368474Y-93777174D01*
X147363175Y-93763596D01*
X147361373Y-93749132D01*
X147351796Y-93729544D01*
X147346444Y-93708406D01*
X147334518Y-93690152D01*
X147326592Y-93669839D01*
X147317170Y-93658714D01*
X147310770Y-93645623D01*
X147287390Y-93618017D01*
X147283426Y-93611950D01*
X147279979Y-93609267D01*
X147273411Y-93601512D01*
X147082935Y-93411035D01*
X147071070Y-93402564D01*
X147061651Y-93391442D01*
X147024431Y-93369264D01*
X146989166Y-93344085D01*
X146975194Y-93339925D01*
X146962674Y-93332465D01*
X146920272Y-93323574D01*
X146878741Y-93311210D01*
X146864175Y-93311812D01*
X146849909Y-93308821D01*
X146806913Y-93314180D01*
X146763623Y-93315971D01*
X146750043Y-93321269D01*
X146735578Y-93323073D01*
X146696651Y-93342103D01*
X146656288Y-93357853D01*
X146645164Y-93367273D01*
X146632069Y-93373676D01*
X146587959Y-93411036D01*
X146397483Y-93601512D01*
X146389014Y-93613372D01*
X146377891Y-93622794D01*
X146366728Y-93641527D01*
X146351963Y-93657567D01*
X146343204Y-93677535D01*
X146330534Y-93695281D01*
X146326375Y-93709248D01*
X146318914Y-93721771D01*
X146314439Y-93743112D01*
X146305681Y-93763079D01*
X146303880Y-93784810D01*
X146297659Y-93805707D01*
X146298261Y-93820269D01*
X146295270Y-93834536D01*
X146040198Y-93834536D01*
X146041395Y-93820096D01*
X146013111Y-93708406D01*
X145950093Y-93611950D01*
X145859172Y-93541183D01*
X145750198Y-93503773D01*
X145692590Y-93498999D01*
X143025923Y-93498999D01*
X142912278Y-93517963D01*
X142810949Y-93572800D01*
X142732915Y-93657567D01*
X142686633Y-93763079D01*
X142677118Y-93877902D01*
X140772356Y-93877902D01*
X140772356Y-92737392D01*
X147947352Y-92737392D01*
X147947352Y-118008522D01*
G37*
G36*
X152391239Y-109374158D02*
G01*
X152492590Y-109576860D01*
X152492590Y-110173516D01*
X152391239Y-110376217D01*
X152188537Y-110477569D01*
X151936188Y-110477569D01*
X152177140Y-109272807D01*
X152188537Y-109272807D01*
X152391239Y-109374158D01*
G37*
G36*
X155097352Y-115748998D02*
G01*
X147924250Y-115748998D01*
X147924250Y-113494235D01*
X149825923Y-113494235D01*
X149830441Y-113521310D01*
X149830196Y-113548754D01*
X149843884Y-113604915D01*
X150034361Y-114176344D01*
X150058701Y-114222297D01*
X150081553Y-114269041D01*
X150086643Y-114275050D01*
X150088290Y-114278160D01*
X150093074Y-114282643D01*
X150118913Y-114313151D01*
X150499864Y-114694103D01*
X150522202Y-114710052D01*
X150541435Y-114729632D01*
X150590827Y-114759665D01*
X150971779Y-114950142D01*
X150980786Y-114952911D01*
X150988687Y-114958039D01*
X151043417Y-114976643D01*
X151805322Y-115167119D01*
X151819321Y-115168236D01*
X151832601Y-115172795D01*
X151890209Y-115177569D01*
X152461638Y-115177569D01*
X152475492Y-115175257D01*
X152489480Y-115176459D01*
X152546525Y-115167119D01*
X153308430Y-114976643D01*
X153317072Y-114972883D01*
X153326406Y-114971635D01*
X153380067Y-114950142D01*
X153761020Y-114759665D01*
X153783212Y-114743518D01*
X153807872Y-114731463D01*
X153851982Y-114694103D01*
X154232934Y-114313152D01*
X154263165Y-114270810D01*
X154294740Y-114229486D01*
X154297837Y-114222249D01*
X154299884Y-114219383D01*
X154301756Y-114213093D01*
X154317486Y-114176344D01*
X154507962Y-113604914D01*
X154512237Y-113577802D01*
X154521149Y-113551843D01*
X154525923Y-113494235D01*
X154525923Y-113113283D01*
X154521404Y-113086207D01*
X154521650Y-113058765D01*
X154507962Y-113002604D01*
X154317486Y-112431174D01*
X154293133Y-112385197D01*
X154270294Y-112338478D01*
X154265207Y-112332472D01*
X154263558Y-112329358D01*
X154258767Y-112324868D01*
X154232935Y-112294367D01*
X154042458Y-112103891D01*
X153948690Y-112036941D01*
X153838264Y-112004066D01*
X153723146Y-112008827D01*
X153615811Y-112050709D01*
X153527891Y-112125173D01*
X153468914Y-112224150D01*
X153445270Y-112336915D01*
X153459521Y-112451246D01*
X153510124Y-112554755D01*
X153547484Y-112598865D01*
X153679535Y-112730917D01*
X153825923Y-113170079D01*
X153825923Y-113437438D01*
X153679535Y-113876600D01*
X153397171Y-114158965D01*
X153101382Y-114306861D01*
X152418551Y-114477569D01*
X151933297Y-114477569D01*
X151250465Y-114306861D01*
X150954678Y-114158968D01*
X150672311Y-113876601D01*
X150525923Y-113437437D01*
X150525923Y-113170080D01*
X150672311Y-112730917D01*
X150804364Y-112598865D01*
X150871313Y-112505096D01*
X150904188Y-112394670D01*
X150899427Y-112279553D01*
X150857545Y-112172218D01*
X150783081Y-112084298D01*
X150684104Y-112025321D01*
X150571339Y-112001677D01*
X150457009Y-112015928D01*
X150353500Y-112066531D01*
X150309389Y-112103890D01*
X150118913Y-112294367D01*
X150088692Y-112336692D01*
X150057107Y-112378032D01*
X150054009Y-112385268D01*
X150051963Y-112388135D01*
X150050090Y-112394425D01*
X150034361Y-112431174D01*
X149843884Y-113002603D01*
X149839608Y-113029716D01*
X149830697Y-113055675D01*
X149825923Y-113113283D01*
X149825923Y-113494235D01*
X147924250Y-113494235D01*
X147924250Y-110256140D01*
X149825923Y-110256140D01*
X149834486Y-110307455D01*
X149841381Y-110359004D01*
X149844307Y-110366309D01*
X149844887Y-110369785D01*
X149848012Y-110375559D01*
X149862874Y-110412665D01*
X150053351Y-110793618D01*
X150068581Y-110814552D01*
X150079745Y-110837914D01*
X150102243Y-110860818D01*
X150121136Y-110886785D01*
X150142345Y-110901643D01*
X150160484Y-110920109D01*
X150209875Y-110950143D01*
X150590827Y-111140618D01*
X150640541Y-111155904D01*
X150689744Y-111172795D01*
X150697589Y-111173445D01*
X150700955Y-111174480D01*
X150707512Y-111174267D01*
X150747352Y-111177569D01*
X152271161Y-111177569D01*
X152322462Y-111169008D01*
X152374024Y-111162112D01*
X152381332Y-111159184D01*
X152384806Y-111158605D01*
X152390576Y-111155482D01*
X152427685Y-111140619D01*
X152808638Y-110950143D01*
X152829571Y-110934912D01*
X152852936Y-110923748D01*
X152875844Y-110901244D01*
X152901805Y-110882357D01*
X152916659Y-110861153D01*
X152935131Y-110843009D01*
X152965164Y-110793617D01*
X153155640Y-110412665D01*
X153170929Y-110362938D01*
X153187816Y-110313748D01*
X153188466Y-110305901D01*
X153189501Y-110302536D01*
X153189288Y-110295979D01*
X153192590Y-110256140D01*
X153192590Y-109494235D01*
X153184026Y-109442919D01*
X153177132Y-109391371D01*
X153174205Y-109384065D01*
X153173626Y-109380590D01*
X153170500Y-109374815D01*
X153155639Y-109337710D01*
X152965164Y-108956758D01*
X152949932Y-108935823D01*
X152938769Y-108912461D01*
X152916267Y-108889554D01*
X152897378Y-108863592D01*
X152876171Y-108848735D01*
X152858029Y-108830266D01*
X152808638Y-108800233D01*
X152427685Y-108609757D01*
X152377964Y-108594469D01*
X152328769Y-108577581D01*
X152320922Y-108576930D01*
X152317557Y-108575896D01*
X152311000Y-108576108D01*
X152271161Y-108572807D01*
X151890209Y-108572807D01*
X151852947Y-108579024D01*
X151815206Y-108580937D01*
X151796469Y-108588449D01*
X151776564Y-108591771D01*
X151743337Y-108609752D01*
X151708264Y-108623815D01*
X151692982Y-108637003D01*
X151675235Y-108646608D01*
X151649649Y-108674401D01*
X151621040Y-108699092D01*
X151610868Y-108716527D01*
X151597201Y-108731375D01*
X151582023Y-108765976D01*
X151562985Y-108798613D01*
X151553989Y-108829886D01*
X151550919Y-108836887D01*
X151550491Y-108842049D01*
X151547006Y-108854166D01*
X151222326Y-110477569D01*
X150829977Y-110477569D01*
X150627274Y-110376217D01*
X150525923Y-110173516D01*
X150525923Y-109576858D01*
X150679449Y-109269808D01*
X150713311Y-109159680D01*
X150709579Y-109044525D01*
X150668660Y-108936820D01*
X150594985Y-108848238D01*
X150496540Y-108788377D01*
X150383992Y-108763725D01*
X150269537Y-108776953D01*
X150165579Y-108826627D01*
X150083384Y-108907366D01*
X150053351Y-108956757D01*
X149862874Y-109337710D01*
X149847587Y-109387424D01*
X149830697Y-109436627D01*
X149830046Y-109444472D01*
X149829012Y-109447838D01*
X149829224Y-109454395D01*
X149825923Y-109494235D01*
X149825923Y-110256140D01*
X147924250Y-110256140D01*
X147924250Y-107543077D01*
X148495679Y-107543077D01*
X148499411Y-107658233D01*
X148540331Y-107765937D01*
X148614006Y-107854520D01*
X148712451Y-107914380D01*
X148824999Y-107939032D01*
X148939454Y-107925803D01*
X149043411Y-107876129D01*
X149125606Y-107795390D01*
X149155640Y-107745999D01*
X149320714Y-107415848D01*
X149420231Y-107316331D01*
X150182935Y-107011249D01*
X152724872Y-107919084D01*
X152838274Y-107939447D01*
X152952144Y-107921886D01*
X153054142Y-107868303D01*
X153133215Y-107784504D01*
X153180795Y-107679570D01*
X153191724Y-107564874D01*
X153164819Y-107452842D01*
X153102997Y-107355618D01*
X153012953Y-107283736D01*
X152960307Y-107259864D01*
X151216548Y-106637093D01*
X152960307Y-106014322D01*
X153060953Y-105958240D01*
X153137935Y-105872517D01*
X153182913Y-105766442D01*
X153191011Y-105651511D01*
X153161353Y-105540177D01*
X153097151Y-105444507D01*
X153005363Y-105374866D01*
X152895937Y-105338801D01*
X152780729Y-105340223D01*
X152724872Y-105355102D01*
X150058205Y-106307483D01*
X150054700Y-106309436D01*
X150045937Y-106312126D01*
X149093555Y-106693078D01*
X149057770Y-106714814D01*
X149020164Y-106733199D01*
X149001555Y-106748959D01*
X148995082Y-106752892D01*
X148990704Y-106758150D01*
X148976054Y-106770559D01*
X148785578Y-106961035D01*
X148769629Y-106983372D01*
X148750049Y-107002606D01*
X148720016Y-107051997D01*
X148529540Y-107432949D01*
X148495679Y-107543077D01*
X147924250Y-107543077D01*
X147924250Y-104189806D01*
X149827118Y-104189806D01*
X149855402Y-104301496D01*
X149918420Y-104397952D01*
X150009341Y-104468719D01*
X150118315Y-104506129D01*
X150175923Y-104510903D01*
X154175923Y-104510903D01*
X154289568Y-104491939D01*
X154390897Y-104437102D01*
X154468931Y-104352335D01*
X154515213Y-104246823D01*
X154524728Y-104132000D01*
X154496444Y-104020310D01*
X154433426Y-103923854D01*
X154342505Y-103853087D01*
X154233531Y-103815677D01*
X154175923Y-103810903D01*
X153123187Y-103810903D01*
X153155639Y-103745999D01*
X153170925Y-103696284D01*
X153187816Y-103647082D01*
X153188466Y-103639236D01*
X153189501Y-103635871D01*
X153189288Y-103629313D01*
X153192590Y-103589474D01*
X153192590Y-103018045D01*
X153184026Y-102966729D01*
X153177132Y-102915181D01*
X153174205Y-102907875D01*
X153173626Y-102904400D01*
X153170500Y-102898625D01*
X153155639Y-102861520D01*
X152965164Y-102480568D01*
X152949932Y-102459633D01*
X152938769Y-102436271D01*
X152916267Y-102413364D01*
X152897378Y-102387402D01*
X152876171Y-102372545D01*
X152858029Y-102354076D01*
X152808638Y-102324043D01*
X152427685Y-102133567D01*
X152377964Y-102118279D01*
X152328769Y-102101391D01*
X152320922Y-102100740D01*
X152317557Y-102099706D01*
X152311000Y-102099918D01*
X152271161Y-102096617D01*
X150175923Y-102096617D01*
X150062278Y-102115581D01*
X149960949Y-102170418D01*
X149882915Y-102255185D01*
X149836633Y-102360697D01*
X149827118Y-102475520D01*
X149855402Y-102587210D01*
X149918420Y-102683666D01*
X150009341Y-102754433D01*
X150118315Y-102791843D01*
X150175923Y-102796617D01*
X152188537Y-102796617D01*
X152391239Y-102897968D01*
X152492590Y-103100670D01*
X152492590Y-103506849D01*
X152364463Y-103763103D01*
X152316663Y-103810903D01*
X150175923Y-103810903D01*
X150062278Y-103829867D01*
X149960949Y-103884704D01*
X149882915Y-103969471D01*
X149836633Y-104074983D01*
X149827118Y-104189806D01*
X147924250Y-104189806D01*
X147924250Y-99970426D01*
X149825923Y-99970426D01*
X149834485Y-100021739D01*
X149841381Y-100073290D01*
X149844307Y-100080595D01*
X149844887Y-100084071D01*
X149848012Y-100089845D01*
X149862874Y-100126951D01*
X150053351Y-100507904D01*
X150068582Y-100528838D01*
X150079745Y-100552199D01*
X150102246Y-100575106D01*
X150121137Y-100601070D01*
X150142341Y-100615924D01*
X150160483Y-100634394D01*
X150209875Y-100664427D01*
X150590827Y-100854904D01*
X150640541Y-100870190D01*
X150689744Y-100887081D01*
X150697589Y-100887731D01*
X150700955Y-100888766D01*
X150707512Y-100888553D01*
X150747352Y-100891855D01*
X152842590Y-100891855D01*
X152956235Y-100872891D01*
X153057564Y-100818054D01*
X153135598Y-100733287D01*
X153181880Y-100627775D01*
X153191395Y-100512952D01*
X153163111Y-100401262D01*
X153100093Y-100304806D01*
X153009172Y-100234039D01*
X152900198Y-100196629D01*
X152842590Y-100191855D01*
X150829976Y-100191855D01*
X150627274Y-100090503D01*
X150525923Y-99887802D01*
X150525923Y-99481620D01*
X150654048Y-99225370D01*
X150701850Y-99177569D01*
X152842590Y-99177569D01*
X152956235Y-99158605D01*
X153057564Y-99103768D01*
X153135598Y-99019001D01*
X153181880Y-98913489D01*
X153191395Y-98798666D01*
X153163111Y-98686976D01*
X153100093Y-98590520D01*
X153009172Y-98519753D01*
X152900198Y-98482343D01*
X152842590Y-98477569D01*
X150175923Y-98477569D01*
X150062278Y-98496533D01*
X149960949Y-98551370D01*
X149882915Y-98636137D01*
X149836633Y-98741649D01*
X149827118Y-98856472D01*
X149855402Y-98968162D01*
X149918420Y-99064618D01*
X149942449Y-99083321D01*
X149862874Y-99242472D01*
X149847587Y-99292186D01*
X149830697Y-99341389D01*
X149830046Y-99349234D01*
X149829012Y-99352600D01*
X149829224Y-99359157D01*
X149825923Y-99398997D01*
X149825923Y-99970426D01*
X147924250Y-99970426D01*
X147924250Y-96951710D01*
X149827118Y-96951710D01*
X149855402Y-97063400D01*
X149918420Y-97159856D01*
X150009341Y-97230623D01*
X150118315Y-97268033D01*
X150175923Y-97272807D01*
X152842590Y-97272807D01*
X152956235Y-97253843D01*
X153057564Y-97199006D01*
X153135598Y-97114239D01*
X153181880Y-97008727D01*
X153191395Y-96893904D01*
X153163111Y-96782214D01*
X153100093Y-96685758D01*
X153076063Y-96667054D01*
X153155639Y-96507903D01*
X153170925Y-96458188D01*
X153187816Y-96408986D01*
X153188466Y-96401140D01*
X153189501Y-96397775D01*
X153189288Y-96391217D01*
X153192590Y-96351378D01*
X153192590Y-95779949D01*
X153184026Y-95728633D01*
X153177132Y-95677085D01*
X153174205Y-95669779D01*
X153173626Y-95666304D01*
X153170500Y-95660529D01*
X153155639Y-95623424D01*
X152965164Y-95242472D01*
X152949932Y-95221537D01*
X152938769Y-95198175D01*
X152916267Y-95175268D01*
X152897378Y-95149306D01*
X152876171Y-95134449D01*
X152858029Y-95115980D01*
X152808638Y-95085947D01*
X152427685Y-94895471D01*
X152377964Y-94880183D01*
X152328769Y-94863295D01*
X152320922Y-94862644D01*
X152317557Y-94861610D01*
X152311000Y-94861822D01*
X152271161Y-94858521D01*
X150175923Y-94858521D01*
X150062278Y-94877485D01*
X149960949Y-94932322D01*
X149882915Y-95017089D01*
X149836633Y-95122601D01*
X149827118Y-95237424D01*
X149855402Y-95349114D01*
X149918420Y-95445570D01*
X150009341Y-95516337D01*
X150118315Y-95553747D01*
X150175923Y-95558521D01*
X152188537Y-95558521D01*
X152391239Y-95659872D01*
X152492590Y-95862574D01*
X152492590Y-96268753D01*
X152364463Y-96525007D01*
X152316663Y-96572807D01*
X150175923Y-96572807D01*
X150062278Y-96591771D01*
X149960949Y-96646608D01*
X149882915Y-96731375D01*
X149836633Y-96836887D01*
X149827118Y-96951710D01*
X147924250Y-96951710D01*
X147924250Y-94287092D01*
X155097352Y-94287092D01*
X155097352Y-115748998D01*
G37*
D11*
G36*
X164125000Y-121928428D02*
G01*
X163913143Y-121928428D01*
X163746093Y-121872745D01*
X163638444Y-121765096D01*
X163582225Y-121652657D01*
X163517857Y-121395182D01*
X163517857Y-121211673D01*
X163582225Y-120954198D01*
X163638445Y-120841758D01*
X163746094Y-120734110D01*
X163913140Y-120678428D01*
X164125000Y-120678428D01*
X164125000Y-121928428D01*
G37*
G36*
X165433714Y-121499857D02*
G01*
X165066284Y-121499857D01*
X165249998Y-120948711D01*
X165433714Y-121499857D01*
G37*
G36*
X166089204Y-122392714D02*
G01*
X161553889Y-122392714D01*
X161553889Y-121901653D01*
X161768175Y-121901653D01*
X161783146Y-121970476D01*
X161804468Y-121998959D01*
X161875896Y-122070388D01*
X161885840Y-122075818D01*
X161892948Y-122084646D01*
X161924757Y-122100586D01*
X162139043Y-122172014D01*
X162141383Y-122172098D01*
X162143354Y-122173365D01*
X162178571Y-122178428D01*
X162321428Y-122178428D01*
X162323674Y-122177768D01*
X162325945Y-122178347D01*
X162360956Y-122172014D01*
X162575242Y-122100586D01*
X162584547Y-122094118D01*
X162595620Y-122091710D01*
X162624103Y-122070388D01*
X162766960Y-121927530D01*
X162768082Y-121925475D01*
X162770096Y-121924279D01*
X162790374Y-121895044D01*
X162861803Y-121752187D01*
X162862578Y-121747875D01*
X162871268Y-121726602D01*
X162942696Y-121440888D01*
X162942557Y-121437490D01*
X162946428Y-121410571D01*
X163267857Y-121410571D01*
X163268815Y-121413834D01*
X163271589Y-121440888D01*
X163343017Y-121726602D01*
X163345235Y-121730383D01*
X163352482Y-121752187D01*
X163423911Y-121895044D01*
X163425504Y-121896757D01*
X163426003Y-121899048D01*
X163447325Y-121927530D01*
X163590182Y-122070388D01*
X163600126Y-122075818D01*
X163607234Y-122084646D01*
X163639043Y-122100586D01*
X163853329Y-122172014D01*
X163855669Y-122172098D01*
X163857640Y-122173365D01*
X163892857Y-122178428D01*
X164250000Y-122178428D01*
X164258755Y-122175857D01*
X164267789Y-122177156D01*
X164292021Y-122166089D01*
X164317580Y-122158585D01*
X164323555Y-122151688D01*
X164331858Y-122147897D01*
X164346261Y-122125484D01*
X164363704Y-122105355D01*
X164365002Y-122096322D01*
X164369937Y-122088645D01*
X164370564Y-122084286D01*
X164628868Y-122084286D01*
X164664780Y-122144876D01*
X164727749Y-122176432D01*
X164797783Y-122168935D01*
X164852645Y-122124765D01*
X164868584Y-122092956D01*
X164982950Y-121749857D01*
X165517047Y-121749857D01*
X165631414Y-122092957D01*
X165671609Y-122150794D01*
X165736693Y-122177718D01*
X165806001Y-122165181D01*
X165857530Y-122117164D01*
X165874918Y-122048911D01*
X165868584Y-122013900D01*
X165368584Y-120513900D01*
X165350964Y-120488546D01*
X165335218Y-120461980D01*
X165331050Y-120459891D01*
X165328389Y-120456062D01*
X165299851Y-120444256D01*
X165272249Y-120430424D01*
X165267613Y-120430920D01*
X165263305Y-120429138D01*
X165232922Y-120434633D01*
X165202215Y-120437921D01*
X165198582Y-120440845D01*
X165193997Y-120441675D01*
X165171414Y-120462718D01*
X165147353Y-120482091D01*
X165144485Y-120487812D01*
X165142468Y-120489693D01*
X165141355Y-120494059D01*
X165131414Y-120513899D01*
X164631414Y-122013900D01*
X164628868Y-122084286D01*
X164370564Y-122084286D01*
X164375000Y-122053428D01*
X164375000Y-120553428D01*
X164372429Y-120544672D01*
X164373728Y-120535639D01*
X164362661Y-120511406D01*
X164355157Y-120485848D01*
X164348260Y-120479872D01*
X164344469Y-120471570D01*
X164322056Y-120457166D01*
X164301927Y-120439724D01*
X164292894Y-120438425D01*
X164285217Y-120433491D01*
X164250000Y-120428428D01*
X163892857Y-120428428D01*
X163890610Y-120429087D01*
X163888339Y-120428509D01*
X163853328Y-120434843D01*
X163639042Y-120506272D01*
X163629737Y-120512738D01*
X163618665Y-120515147D01*
X163590182Y-120536469D01*
X163447326Y-120679326D01*
X163446204Y-120681379D01*
X163444189Y-120682577D01*
X163423911Y-120711812D01*
X163352482Y-120854669D01*
X163351706Y-120858980D01*
X163343017Y-120880254D01*
X163271589Y-121165968D01*
X163271727Y-121169365D01*
X163267857Y-121196285D01*
X163267857Y-121410571D01*
X162946428Y-121410571D01*
X162946428Y-121196285D01*
X162945469Y-121193021D01*
X162942696Y-121165968D01*
X162871268Y-120880254D01*
X162869049Y-120876472D01*
X162861803Y-120854669D01*
X162790374Y-120711812D01*
X162788779Y-120710097D01*
X162788281Y-120707808D01*
X162766959Y-120679325D01*
X162624102Y-120536469D01*
X162614158Y-120531039D01*
X162607051Y-120522211D01*
X162575242Y-120506272D01*
X162360957Y-120434843D01*
X162358617Y-120434758D01*
X162356645Y-120433491D01*
X162321428Y-120428428D01*
X162178571Y-120428428D01*
X162176324Y-120429087D01*
X162174053Y-120428509D01*
X162139042Y-120434843D01*
X161924756Y-120506272D01*
X161915451Y-120512738D01*
X161904379Y-120515147D01*
X161875896Y-120536469D01*
X161804469Y-120607897D01*
X161770713Y-120669714D01*
X161775738Y-120739968D01*
X161817947Y-120796353D01*
X161883940Y-120820967D01*
X161952763Y-120805995D01*
X161981245Y-120784673D01*
X162031808Y-120734110D01*
X162198854Y-120678428D01*
X162301144Y-120678428D01*
X162468191Y-120734110D01*
X162575840Y-120841759D01*
X162632059Y-120954198D01*
X162696428Y-121211673D01*
X162696428Y-121395182D01*
X162632059Y-121652657D01*
X162575840Y-121765096D01*
X162468191Y-121872745D01*
X162301142Y-121928428D01*
X162198857Y-121928428D01*
X162031807Y-121872745D01*
X161981246Y-121822183D01*
X161919429Y-121788428D01*
X161849175Y-121793452D01*
X161792790Y-121835660D01*
X161768175Y-121901653D01*
X161553889Y-121901653D01*
X161553889Y-120214142D01*
X166089204Y-120214142D01*
X166089204Y-122392714D01*
G37*
%TO.C,G\u002A\u002A\u002A*%
G36*
X148024159Y-78016666D02*
G01*
X148105236Y-78169944D01*
X148217833Y-78374572D01*
X148329363Y-78569680D01*
X148424565Y-78728151D01*
X148507409Y-78856134D01*
X148621115Y-79022615D01*
X148747792Y-79200852D01*
X148880717Y-79382089D01*
X149013172Y-79557569D01*
X149138434Y-79718537D01*
X149249784Y-79856237D01*
X149340501Y-79961913D01*
X149403864Y-80026809D01*
X149433153Y-80042170D01*
X149437492Y-80035746D01*
X149471555Y-79981314D01*
X149532876Y-79881537D01*
X149614530Y-79747714D01*
X149709590Y-79591144D01*
X149747429Y-79528988D01*
X149838608Y-79381882D01*
X149914403Y-79263346D01*
X149967793Y-79184224D01*
X149991757Y-79155360D01*
X150007081Y-79166409D01*
X150065856Y-79219681D01*
X150159890Y-79309509D01*
X150280411Y-79427472D01*
X150418648Y-79565151D01*
X150487846Y-79635340D01*
X150623661Y-79778539D01*
X150722517Y-79891171D01*
X150779357Y-79967287D01*
X150789121Y-80000935D01*
X150782893Y-80005185D01*
X150726980Y-80043810D01*
X150627822Y-80112580D01*
X150497290Y-80203258D01*
X150347255Y-80307603D01*
X149943439Y-80588597D01*
X150100711Y-80725780D01*
X150179055Y-80793215D01*
X150541595Y-81084925D01*
X150924706Y-81363438D01*
X151315213Y-81620423D01*
X151699936Y-81847550D01*
X152065699Y-82036489D01*
X152399323Y-82178908D01*
X152459540Y-82201732D01*
X152556194Y-82242458D01*
X152595336Y-82268224D01*
X152574461Y-82279514D01*
X152491067Y-82276808D01*
X152342647Y-82260589D01*
X152126699Y-82231337D01*
X151754019Y-82166438D01*
X151155333Y-82010590D01*
X150583404Y-81796886D01*
X150046997Y-81528806D01*
X149554874Y-81209832D01*
X149314229Y-81032972D01*
X149216919Y-81095725D01*
X149183010Y-81118180D01*
X149087412Y-81183446D01*
X148962252Y-81270339D01*
X148825718Y-81366283D01*
X148739044Y-81427032D01*
X148628219Y-81502891D01*
X148548994Y-81554830D01*
X148514486Y-81574089D01*
X148514059Y-81571811D01*
X148534524Y-81528697D01*
X148584677Y-81439268D01*
X148658226Y-81314494D01*
X148748883Y-81165345D01*
X149000621Y-80756601D01*
X148784650Y-80495505D01*
X148461669Y-80054387D01*
X148204331Y-79589537D01*
X148014164Y-79101959D01*
X147890547Y-78590058D01*
X147832861Y-78052240D01*
X147812753Y-77607563D01*
X148024159Y-78016666D01*
G37*
G36*
X152615257Y-82407730D02*
G01*
X152581512Y-82428782D01*
X152494938Y-82462290D01*
X152417629Y-82492022D01*
X152229219Y-82575292D01*
X152006440Y-82684082D01*
X151766010Y-82809545D01*
X151524645Y-82942832D01*
X151299062Y-83075095D01*
X151105978Y-83197485D01*
X151034234Y-83246136D01*
X150846547Y-83378607D01*
X150652434Y-83521794D01*
X150464956Y-83665563D01*
X150297172Y-83799781D01*
X150162142Y-83914315D01*
X150072925Y-83999032D01*
X149994590Y-84083025D01*
X150353788Y-84331568D01*
X150357100Y-84333860D01*
X150498618Y-84431657D01*
X150620227Y-84515476D01*
X150709071Y-84576469D01*
X150752292Y-84605787D01*
X150754932Y-84612627D01*
X150728375Y-84662547D01*
X150654818Y-84753898D01*
X150538354Y-84881849D01*
X150383073Y-85041571D01*
X150288197Y-85136313D01*
X150160960Y-85261628D01*
X150057364Y-85361557D01*
X149986181Y-85427675D01*
X149956183Y-85451557D01*
X149953431Y-85449804D01*
X149921676Y-85408009D01*
X149862617Y-85318968D01*
X149783537Y-85193905D01*
X149691719Y-85044044D01*
X149667947Y-85004964D01*
X149578025Y-84862240D01*
X149501682Y-84748836D01*
X149446363Y-84675453D01*
X149419511Y-84652791D01*
X149389005Y-84684218D01*
X149323321Y-84759959D01*
X149232428Y-84868401D01*
X149126093Y-84998050D01*
X149056471Y-85085099D01*
X148705098Y-85564522D01*
X148374429Y-86081216D01*
X148082831Y-86606855D01*
X147838936Y-87084367D01*
X147827782Y-86828318D01*
X147825279Y-86718337D01*
X147855758Y-86285760D01*
X147946333Y-85840405D01*
X148092642Y-85393959D01*
X148290322Y-84958106D01*
X148535008Y-84544532D01*
X148822337Y-84164923D01*
X148835292Y-84149710D01*
X148916292Y-84050274D01*
X148973451Y-83972712D01*
X148995098Y-83932712D01*
X148994165Y-83928528D01*
X148969144Y-83876465D01*
X148915150Y-83778799D01*
X148839070Y-83647708D01*
X148747791Y-83495371D01*
X148724452Y-83456812D01*
X148638076Y-83310979D01*
X148569964Y-83191013D01*
X148526524Y-83108447D01*
X148514163Y-83074818D01*
X148519649Y-83075549D01*
X148570179Y-83102867D01*
X148664087Y-83161970D01*
X148790594Y-83245929D01*
X148938921Y-83347818D01*
X149349999Y-83634498D01*
X149602620Y-83444455D01*
X149770271Y-83325478D01*
X150186478Y-83077863D01*
X150648178Y-82859880D01*
X151139796Y-82677640D01*
X151645760Y-82537252D01*
X152150498Y-82444827D01*
X152152585Y-82444549D01*
X152364839Y-82417541D01*
X152510390Y-82402285D01*
X152592706Y-82398956D01*
X152615257Y-82407730D01*
G37*
G36*
X142890446Y-82430060D02*
G01*
X143008775Y-82442450D01*
X143170565Y-82464423D01*
X143359239Y-82493286D01*
X143558221Y-82526347D01*
X143750934Y-82560914D01*
X143920803Y-82594294D01*
X144051249Y-82623794D01*
X144072613Y-82629256D01*
X144561968Y-82779725D01*
X145040199Y-82973340D01*
X145487975Y-83201343D01*
X145885963Y-83454975D01*
X146174168Y-83662121D01*
X146575059Y-83381314D01*
X146621507Y-83348969D01*
X146762601Y-83253189D01*
X146878804Y-83177996D01*
X146959133Y-83130337D01*
X146992605Y-83117161D01*
X146992913Y-83121441D01*
X146971803Y-83171268D01*
X146921035Y-83266607D01*
X146846921Y-83395978D01*
X146755773Y-83547901D01*
X146502286Y-83961986D01*
X146669366Y-84146539D01*
X146767932Y-84264070D01*
X146911247Y-84456289D01*
X147058132Y-84672687D01*
X147193377Y-84890635D01*
X147301775Y-85087504D01*
X147414061Y-85341868D01*
X147536577Y-85707363D01*
X147631319Y-86097485D01*
X147692487Y-86487422D01*
X147714283Y-86852362D01*
X147714426Y-87132455D01*
X147508022Y-86727852D01*
X147434050Y-86586480D01*
X147317110Y-86372540D01*
X147197528Y-86162616D01*
X147092140Y-85986712D01*
X147026100Y-85883241D01*
X146906680Y-85705441D01*
X146775258Y-85518665D01*
X146638385Y-85331357D01*
X146502614Y-85151956D01*
X146374494Y-84988906D01*
X146260578Y-84850649D01*
X146167417Y-84745625D01*
X146101563Y-84682277D01*
X146069565Y-84669047D01*
X146067833Y-84671343D01*
X146038822Y-84716826D01*
X145982082Y-84809266D01*
X145904928Y-84936670D01*
X145814673Y-85087044D01*
X145796531Y-85117274D01*
X145707526Y-85262048D01*
X145631827Y-85379566D01*
X145576958Y-85458433D01*
X145550441Y-85487254D01*
X145535419Y-85477634D01*
X145476400Y-85426232D01*
X145382191Y-85337975D01*
X145261827Y-85221390D01*
X145124340Y-85085004D01*
X145001911Y-84963870D01*
X144881142Y-84842878D01*
X144807498Y-84754192D01*
X144781939Y-84685047D01*
X144805424Y-84622679D01*
X144878917Y-84554324D01*
X145003376Y-84467216D01*
X145179762Y-84348591D01*
X145295866Y-84267454D01*
X145406249Y-84186331D01*
X145481198Y-84126469D01*
X145508824Y-84096959D01*
X145507536Y-84092732D01*
X145470026Y-84049523D01*
X145388333Y-83974018D01*
X145272897Y-83874843D01*
X145134155Y-83760625D01*
X144982546Y-83639992D01*
X144828507Y-83521571D01*
X144682478Y-83413989D01*
X144657444Y-83396164D01*
X144382520Y-83212383D01*
X144077909Y-83027011D01*
X143764665Y-82851871D01*
X143463844Y-82698786D01*
X143196499Y-82579577D01*
X143059973Y-82523716D01*
X142943180Y-82474331D01*
X142868457Y-82440799D01*
X142847828Y-82428333D01*
X142890446Y-82430060D01*
G37*
G36*
X147711251Y-77838795D02*
G01*
X147699037Y-78170649D01*
X147624650Y-78668769D01*
X147486230Y-79162951D01*
X147287380Y-79643408D01*
X147031702Y-80100353D01*
X146722798Y-80523997D01*
X146652550Y-80612900D01*
X146597241Y-80691656D01*
X146576050Y-80734340D01*
X146576879Y-80738397D01*
X146601674Y-80790621D01*
X146655793Y-80888276D01*
X146732259Y-81019086D01*
X146824096Y-81170776D01*
X146847564Y-81209048D01*
X146933980Y-81352170D01*
X147001867Y-81468088D01*
X147044850Y-81545746D01*
X147056558Y-81574089D01*
X147056096Y-81574021D01*
X147019671Y-81552670D01*
X146937559Y-81498576D01*
X146821495Y-81419612D01*
X146683215Y-81323651D01*
X146680370Y-81321660D01*
X146538587Y-81223631D01*
X146415497Y-81140707D01*
X146324208Y-81081579D01*
X146277832Y-81054938D01*
X146249597Y-81059465D01*
X146171126Y-81097090D01*
X146060425Y-81163973D01*
X145931771Y-81251985D01*
X145714624Y-81398104D01*
X145383064Y-81592910D01*
X145027705Y-81774642D01*
X144675029Y-81929034D01*
X144582323Y-81963727D01*
X144337339Y-82042666D01*
X144057116Y-82119807D01*
X143766137Y-82189118D01*
X143488890Y-82244569D01*
X143249860Y-82280126D01*
X143098232Y-82296508D01*
X142967836Y-82308280D01*
X142900186Y-82309575D01*
X142890933Y-82299667D01*
X142935731Y-82277826D01*
X143030232Y-82243323D01*
X143209444Y-82172902D01*
X143475343Y-82048716D01*
X143769667Y-81893811D01*
X144077839Y-81716639D01*
X144385277Y-81525656D01*
X144677402Y-81329316D01*
X144939636Y-81136074D01*
X144960571Y-81119707D01*
X145105518Y-81003656D01*
X145247960Y-80885487D01*
X145377262Y-80774481D01*
X145482788Y-80679920D01*
X145553903Y-80611087D01*
X145579972Y-80577261D01*
X145576786Y-80572501D01*
X145531921Y-80534409D01*
X145442308Y-80466723D01*
X145318507Y-80377275D01*
X145171076Y-80273900D01*
X145119947Y-80238388D01*
X144979228Y-80139041D01*
X144865621Y-80056456D01*
X144789683Y-79998408D01*
X144761972Y-79972669D01*
X144778083Y-79949478D01*
X144835673Y-79885746D01*
X144925343Y-79792476D01*
X145036866Y-79679719D01*
X145160013Y-79557526D01*
X145284558Y-79435948D01*
X145400273Y-79325036D01*
X145496929Y-79234842D01*
X145564299Y-79175417D01*
X145592156Y-79156812D01*
X145593411Y-79158412D01*
X145621214Y-79201188D01*
X145677345Y-79291061D01*
X145754365Y-79416042D01*
X145844839Y-79564145D01*
X145856954Y-79584032D01*
X145947896Y-79731802D01*
X146026107Y-79856374D01*
X146083598Y-79945162D01*
X146112380Y-79985582D01*
X146127988Y-79984194D01*
X146182734Y-79943311D01*
X146263728Y-79863226D01*
X146359828Y-79754349D01*
X146561990Y-79497340D01*
X146796498Y-79169231D01*
X147031890Y-78812370D01*
X147255606Y-78446593D01*
X147455084Y-78091739D01*
X147617763Y-77767647D01*
X147708496Y-77571988D01*
X147711251Y-77838795D01*
G37*
G36*
X155233530Y-82623546D02*
G01*
X155166565Y-83279888D01*
X155038476Y-83929558D01*
X154849327Y-84568299D01*
X154599180Y-85191854D01*
X154288097Y-85795966D01*
X153916142Y-86376377D01*
X153483378Y-86928831D01*
X152989866Y-87449069D01*
X152642391Y-87760537D01*
X152085287Y-88183131D01*
X151486491Y-88554286D01*
X150854034Y-88870140D01*
X150195948Y-89126831D01*
X149520264Y-89320495D01*
X148835014Y-89447272D01*
X148738272Y-89458624D01*
X148496559Y-89478222D01*
X148215309Y-89492222D01*
X147912914Y-89500409D01*
X147607765Y-89502563D01*
X147318253Y-89498467D01*
X147062772Y-89487904D01*
X146859711Y-89470655D01*
X146180711Y-89358903D01*
X145470242Y-89174966D01*
X144787655Y-88926862D01*
X144135822Y-88615974D01*
X143517613Y-88243684D01*
X142935898Y-87811372D01*
X142393547Y-87320422D01*
X142072366Y-86980040D01*
X141624975Y-86423280D01*
X141238572Y-85832053D01*
X140914639Y-85209334D01*
X140654658Y-84558101D01*
X140460112Y-83881331D01*
X140332483Y-83182001D01*
X140326597Y-83134783D01*
X140302725Y-82869194D01*
X140287494Y-82564700D01*
X140281095Y-82243182D01*
X140282092Y-82122854D01*
X140933448Y-82122854D01*
X140950005Y-82751558D01*
X141028934Y-83368173D01*
X141167679Y-83969239D01*
X141363685Y-84551298D01*
X141614397Y-85110892D01*
X141917260Y-85644562D01*
X142269717Y-86148850D01*
X142669214Y-86620298D01*
X143113194Y-87055447D01*
X143599104Y-87450840D01*
X144124387Y-87803016D01*
X144686487Y-88108519D01*
X145282851Y-88363890D01*
X145910921Y-88565671D01*
X146568143Y-88710403D01*
X147251961Y-88794628D01*
X147355092Y-88802382D01*
X147545041Y-88815530D01*
X147695880Y-88822765D01*
X147829600Y-88824016D01*
X147968192Y-88819216D01*
X148133647Y-88808294D01*
X148347955Y-88791181D01*
X148698052Y-88753157D01*
X149367336Y-88628654D01*
X150019936Y-88439713D01*
X150650093Y-88189454D01*
X151252049Y-87880996D01*
X151820047Y-87517461D01*
X152348330Y-87101968D01*
X152831140Y-86637638D01*
X153262719Y-86127591D01*
X153486061Y-85815324D01*
X153830706Y-85241671D01*
X154111450Y-84642973D01*
X154327311Y-84023848D01*
X154477307Y-83388916D01*
X154560457Y-82742794D01*
X154575777Y-82090101D01*
X154522287Y-81435455D01*
X154399004Y-80783474D01*
X154268612Y-80324198D01*
X154030193Y-79701781D01*
X153730221Y-79110466D01*
X153371667Y-78553862D01*
X152957503Y-78035581D01*
X152490703Y-77559230D01*
X151974238Y-77128421D01*
X151411082Y-76746763D01*
X150804205Y-76417866D01*
X150347759Y-76217760D01*
X149682209Y-75990461D01*
X149003625Y-75832042D01*
X148315698Y-75742737D01*
X147622120Y-75722784D01*
X146926583Y-75772419D01*
X146232778Y-75891877D01*
X145544398Y-76081394D01*
X145044111Y-76267077D01*
X144430044Y-76558298D01*
X143853418Y-76904710D01*
X143317854Y-77302601D01*
X142826976Y-77748260D01*
X142384407Y-78237974D01*
X141993768Y-78768034D01*
X141658683Y-79334727D01*
X141382775Y-79934343D01*
X141169666Y-80563169D01*
X141097671Y-80843006D01*
X140981818Y-81485517D01*
X140933448Y-82122854D01*
X140282092Y-82122854D01*
X140283720Y-81926519D01*
X140295562Y-81636594D01*
X140316812Y-81395285D01*
X140344754Y-81193334D01*
X140485838Y-80499421D01*
X140692184Y-79828885D01*
X140961146Y-79185408D01*
X141290081Y-78572669D01*
X141676343Y-77994350D01*
X142117288Y-77454130D01*
X142610271Y-76955690D01*
X143152647Y-76502710D01*
X143741772Y-76098872D01*
X144375001Y-75747854D01*
X144674617Y-75607966D01*
X145341938Y-75351527D01*
X146024577Y-75160982D01*
X146717627Y-75035527D01*
X147416181Y-74974359D01*
X148115330Y-74976673D01*
X148810168Y-75041666D01*
X149495787Y-75168532D01*
X150167279Y-75356469D01*
X150819737Y-75604673D01*
X151448254Y-75912338D01*
X152047921Y-76278661D01*
X152613832Y-76702839D01*
X153141079Y-77184067D01*
X153561286Y-77643504D01*
X153985565Y-78199958D01*
X154348219Y-78783798D01*
X154649311Y-79390767D01*
X154888903Y-80016608D01*
X155067059Y-80657064D01*
X155183840Y-81307877D01*
X155239309Y-81964790D01*
X155238210Y-82090101D01*
X155233530Y-82623546D01*
G37*
G36*
X152274204Y-77943202D02*
G01*
X152536772Y-78201642D01*
X152735388Y-78443557D01*
X152899603Y-78643571D01*
X152948789Y-78703480D01*
X153010293Y-78796983D01*
X153070316Y-78888235D01*
X153174091Y-79046003D01*
X153210714Y-79101680D01*
X153280914Y-79208403D01*
X153305624Y-79245969D01*
X153341314Y-79315126D01*
X153378032Y-79386274D01*
X153414750Y-79457423D01*
X153604436Y-79824979D01*
X153627528Y-79884313D01*
X153655218Y-79955462D01*
X153682908Y-80026610D01*
X153724443Y-80133333D01*
X153759055Y-80222268D01*
X153793668Y-80311204D01*
X153842385Y-80436382D01*
X153866429Y-80524649D01*
X153900346Y-80649159D01*
X153933455Y-80770705D01*
X153972216Y-80913001D01*
X154016630Y-81076050D01*
X154039699Y-81187733D01*
X154051103Y-81253921D01*
X154061362Y-81313461D01*
X154076951Y-81441312D01*
X154080143Y-81485154D01*
X154087418Y-81585089D01*
X154092184Y-81716386D01*
X154093716Y-81758594D01*
X154094842Y-81837931D01*
X154096797Y-81975630D01*
X154096811Y-81980228D01*
X154097612Y-82250000D01*
X154097189Y-82433974D01*
X154097087Y-82478589D01*
X154096274Y-82549416D01*
X154094608Y-82694677D01*
X154094486Y-82705294D01*
X154091482Y-82801400D01*
X154088839Y-82885931D01*
X154079192Y-83034307D01*
X154064596Y-83164231D01*
X154044100Y-83289509D01*
X154016751Y-83423949D01*
X153912847Y-83838727D01*
X153697573Y-84467506D01*
X153421670Y-85061098D01*
X153087326Y-85616736D01*
X152696729Y-86131650D01*
X152252067Y-86603070D01*
X151755527Y-87028228D01*
X151209298Y-87404355D01*
X150615567Y-87728681D01*
X150465636Y-87798289D01*
X149972533Y-87994410D01*
X149455911Y-88155016D01*
X148938667Y-88273622D01*
X148443698Y-88343743D01*
X148290655Y-88353865D01*
X148054268Y-88360900D01*
X147790821Y-88361881D01*
X147524659Y-88357040D01*
X147280130Y-88346607D01*
X147081581Y-88330814D01*
X146718998Y-88281574D01*
X146130996Y-88156545D01*
X145560620Y-87974550D01*
X144988621Y-87730063D01*
X144432829Y-87430239D01*
X143892932Y-87065820D01*
X143401757Y-86655572D01*
X142961342Y-86203604D01*
X142573726Y-85714026D01*
X142240946Y-85190945D01*
X141965042Y-84638472D01*
X141748052Y-84060714D01*
X141670205Y-83761904D01*
X141809104Y-83761904D01*
X141826891Y-83779691D01*
X141844678Y-83761904D01*
X141826891Y-83744117D01*
X141809104Y-83761904D01*
X141670205Y-83761904D01*
X141632947Y-83618892D01*
X141781130Y-83618892D01*
X141785388Y-83661111D01*
X141796088Y-83666676D01*
X141809104Y-83637395D01*
X141806536Y-83618562D01*
X141785388Y-83613678D01*
X141781130Y-83618892D01*
X141632947Y-83618892D01*
X141605330Y-83512885D01*
X141737955Y-83512885D01*
X141755742Y-83530672D01*
X141773529Y-83512885D01*
X141755742Y-83495098D01*
X141737955Y-83512885D01*
X141605330Y-83512885D01*
X141592016Y-83461782D01*
X141566907Y-83295554D01*
X141707970Y-83295554D01*
X141716462Y-83343166D01*
X141728606Y-83342615D01*
X141735147Y-83296475D01*
X141729450Y-83261507D01*
X141713654Y-83274982D01*
X141707970Y-83295554D01*
X141566907Y-83295554D01*
X141534092Y-83078304D01*
X141672009Y-83078304D01*
X141679047Y-83148926D01*
X141680464Y-83152097D01*
X141691601Y-83146749D01*
X141695446Y-83085994D01*
X141695211Y-83074947D01*
X141689052Y-83027696D01*
X141677728Y-83042203D01*
X141672009Y-83078304D01*
X141534092Y-83078304D01*
X141498970Y-82845784D01*
X141495441Y-82766549D01*
X141635359Y-82766549D01*
X141641765Y-82864144D01*
X141648031Y-82881029D01*
X141654371Y-82850191D01*
X141656632Y-82765826D01*
X141655032Y-82700035D01*
X141649430Y-82661586D01*
X141641279Y-82686273D01*
X141635359Y-82766549D01*
X141495441Y-82766549D01*
X141478975Y-82396882D01*
X141788446Y-82396882D01*
X141816864Y-82765826D01*
X141835652Y-83009756D01*
X141850172Y-83085994D01*
X141890259Y-83296475D01*
X141931476Y-83512885D01*
X141951201Y-83616452D01*
X141957663Y-83637395D01*
X141996080Y-83761904D01*
X142135121Y-84212533D01*
X142387439Y-84793557D01*
X142523041Y-85048893D01*
X142867740Y-85591251D01*
X143265060Y-86087519D01*
X143712209Y-86535584D01*
X144206392Y-86933333D01*
X144744817Y-87278653D01*
X145324690Y-87569429D01*
X145943219Y-87803549D01*
X146597609Y-87978900D01*
X146774167Y-88009166D01*
X147028510Y-88037369D01*
X147320239Y-88058001D01*
X147631452Y-88070612D01*
X147944243Y-88074755D01*
X148240709Y-88069980D01*
X148502946Y-88055840D01*
X148713049Y-88031886D01*
X149191042Y-87936123D01*
X149826356Y-87749871D01*
X150429573Y-87502987D01*
X150997217Y-87197656D01*
X151525813Y-86836063D01*
X152011884Y-86420395D01*
X152451955Y-85952836D01*
X152842548Y-85435572D01*
X152929615Y-85302177D01*
X153227300Y-84769191D01*
X153466867Y-84207188D01*
X153646005Y-83624857D01*
X153762406Y-83030889D01*
X153782148Y-82801400D01*
X153939916Y-82801400D01*
X153957703Y-82819187D01*
X153975490Y-82801400D01*
X153957703Y-82783613D01*
X153939916Y-82801400D01*
X153782148Y-82801400D01*
X153791329Y-82694677D01*
X153939916Y-82694677D01*
X153957703Y-82712465D01*
X153975490Y-82694677D01*
X153957703Y-82676890D01*
X153939916Y-82694677D01*
X153791329Y-82694677D01*
X153803905Y-82548495D01*
X153945505Y-82548495D01*
X153953997Y-82596107D01*
X153966141Y-82595556D01*
X153972682Y-82549416D01*
X153966985Y-82514448D01*
X153951189Y-82527923D01*
X153945505Y-82548495D01*
X153803905Y-82548495D01*
X153813757Y-82433974D01*
X153801446Y-81979307D01*
X153945505Y-81979307D01*
X153953997Y-82026920D01*
X153966141Y-82026369D01*
X153972682Y-81980228D01*
X153966985Y-81945261D01*
X153951189Y-81958736D01*
X153945505Y-81979307D01*
X153801446Y-81979307D01*
X153797750Y-81842800D01*
X153797176Y-81837010D01*
X153945505Y-81837010D01*
X153953997Y-81884623D01*
X153966141Y-81884072D01*
X153972682Y-81837931D01*
X153966985Y-81802964D01*
X153951189Y-81816439D01*
X153945505Y-81837010D01*
X153797176Y-81837010D01*
X153783394Y-81697884D01*
X153947517Y-81697884D01*
X153951774Y-81740102D01*
X153962474Y-81745668D01*
X153975490Y-81716386D01*
X153972923Y-81697553D01*
X153951774Y-81692670D01*
X153947517Y-81697884D01*
X153783394Y-81697884D01*
X153782329Y-81687132D01*
X153747383Y-81477464D01*
X153909544Y-81477464D01*
X153916582Y-81548086D01*
X153917999Y-81551257D01*
X153929136Y-81545908D01*
X153932981Y-81485154D01*
X153932746Y-81474106D01*
X153926587Y-81426856D01*
X153915263Y-81441363D01*
X153909544Y-81477464D01*
X153747383Y-81477464D01*
X153705397Y-81225556D01*
X153876083Y-81225556D01*
X153880782Y-81298389D01*
X153893134Y-81304423D01*
X153898725Y-81253921D01*
X153893766Y-81204984D01*
X153880782Y-81209453D01*
X153876083Y-81225556D01*
X153705397Y-81225556D01*
X153677395Y-81057548D01*
X153840794Y-81057548D01*
X153845051Y-81099766D01*
X153855751Y-81105332D01*
X153868768Y-81076050D01*
X153866200Y-81057217D01*
X153845051Y-81052334D01*
X153840794Y-81057548D01*
X153677395Y-81057548D01*
X153676389Y-81051514D01*
X153637221Y-80912080D01*
X153803208Y-80912080D01*
X153811701Y-80959693D01*
X153823844Y-80959142D01*
X153830385Y-80913001D01*
X153824688Y-80878034D01*
X153808892Y-80891509D01*
X153803208Y-80912080D01*
X153637221Y-80912080D01*
X153597250Y-80769784D01*
X153767634Y-80769784D01*
X153776126Y-80817396D01*
X153788270Y-80816845D01*
X153794811Y-80770705D01*
X153789114Y-80735737D01*
X153773318Y-80749212D01*
X153767634Y-80769784D01*
X153597250Y-80769784D01*
X153558169Y-80630657D01*
X153734071Y-80630657D01*
X153738329Y-80672875D01*
X153749029Y-80678441D01*
X153762045Y-80649159D01*
X153759478Y-80630326D01*
X153738329Y-80625443D01*
X153734071Y-80630657D01*
X153558169Y-80630657D01*
X153528391Y-80524649D01*
X153690896Y-80524649D01*
X153708684Y-80542437D01*
X153726471Y-80524649D01*
X153708684Y-80506862D01*
X153690896Y-80524649D01*
X153528391Y-80524649D01*
X153504785Y-80440613D01*
X153452544Y-80311204D01*
X153619748Y-80311204D01*
X153637535Y-80328991D01*
X153655322Y-80311204D01*
X153637535Y-80293417D01*
X153619748Y-80311204D01*
X153452544Y-80311204D01*
X153409172Y-80203766D01*
X153591774Y-80203766D01*
X153596032Y-80245985D01*
X153606732Y-80251550D01*
X153619748Y-80222268D01*
X153617181Y-80203436D01*
X153596032Y-80198552D01*
X153591774Y-80203766D01*
X153409172Y-80203766D01*
X153380739Y-80133333D01*
X153548599Y-80133333D01*
X153566387Y-80151120D01*
X153584174Y-80133333D01*
X153566387Y-80115546D01*
X153548599Y-80133333D01*
X153380739Y-80133333D01*
X153337656Y-80026610D01*
X153513025Y-80026610D01*
X153530812Y-80044397D01*
X153548599Y-80026610D01*
X153530812Y-80008823D01*
X153513025Y-80026610D01*
X153337656Y-80026610D01*
X153308934Y-79955462D01*
X153477451Y-79955462D01*
X153495238Y-79973249D01*
X153513025Y-79955462D01*
X153495238Y-79937675D01*
X153477451Y-79955462D01*
X153308934Y-79955462D01*
X153280212Y-79884313D01*
X153441877Y-79884313D01*
X153459664Y-79902100D01*
X153477451Y-79884313D01*
X153459664Y-79866526D01*
X153441877Y-79884313D01*
X153280212Y-79884313D01*
X153269480Y-79857729D01*
X153053893Y-79457423D01*
X153228431Y-79457423D01*
X153246219Y-79475210D01*
X153264006Y-79457423D01*
X153246219Y-79439635D01*
X153228431Y-79457423D01*
X153053893Y-79457423D01*
X153015575Y-79386274D01*
X153192857Y-79386274D01*
X153210644Y-79404061D01*
X153228431Y-79386274D01*
X153210644Y-79368487D01*
X153192857Y-79386274D01*
X153015575Y-79386274D01*
X152977258Y-79315126D01*
X153157283Y-79315126D01*
X153175070Y-79332913D01*
X153192857Y-79315126D01*
X153175070Y-79297339D01*
X153157283Y-79315126D01*
X152977258Y-79315126D01*
X152972433Y-79306166D01*
X152904951Y-79208403D01*
X153086134Y-79208403D01*
X153103922Y-79226190D01*
X153121709Y-79208403D01*
X153103922Y-79190616D01*
X153086134Y-79208403D01*
X152904951Y-79208403D01*
X152831284Y-79101680D01*
X153014986Y-79101680D01*
X153032773Y-79119467D01*
X153050560Y-79101680D01*
X153032773Y-79083893D01*
X153014986Y-79101680D01*
X152831284Y-79101680D01*
X152746939Y-78979487D01*
X152952560Y-78979487D01*
X152961625Y-79012745D01*
X152968933Y-79023275D01*
X153001398Y-79048319D01*
X153006264Y-79046003D01*
X152997199Y-79012745D01*
X152989890Y-79002214D01*
X152957426Y-78977170D01*
X152952560Y-78979487D01*
X152746939Y-78979487D01*
X152683951Y-78888235D01*
X152872689Y-78888235D01*
X152890476Y-78906022D01*
X152908263Y-78888235D01*
X152890476Y-78870448D01*
X152872689Y-78888235D01*
X152683951Y-78888235D01*
X152615608Y-78789225D01*
X152564746Y-78730467D01*
X152774688Y-78730467D01*
X152783754Y-78763725D01*
X152791062Y-78774256D01*
X152823527Y-78799299D01*
X152828393Y-78796983D01*
X152819328Y-78763725D01*
X152812019Y-78753194D01*
X152779555Y-78728151D01*
X152774688Y-78730467D01*
X152564746Y-78730467D01*
X152410790Y-78552610D01*
X152623940Y-78552610D01*
X152654706Y-78594747D01*
X152665796Y-78608521D01*
X152713088Y-78654219D01*
X152730392Y-78643571D01*
X152717406Y-78625200D01*
X152668137Y-78581316D01*
X152642362Y-78561444D01*
X152623940Y-78552610D01*
X152410790Y-78552610D01*
X152200963Y-78310208D01*
X152191346Y-78301260D01*
X152416984Y-78301260D01*
X152422503Y-78320875D01*
X152463585Y-78372409D01*
X152511451Y-78420179D01*
X152545761Y-78443557D01*
X152540242Y-78423942D01*
X152499160Y-78372409D01*
X152451294Y-78324638D01*
X152416984Y-78301260D01*
X152191346Y-78301260D01*
X151735051Y-77876686D01*
X151992055Y-77876686D01*
X152001120Y-77909944D01*
X152008429Y-77920474D01*
X152040894Y-77945518D01*
X152045760Y-77943202D01*
X152036695Y-77909944D01*
X152029386Y-77899413D01*
X151996922Y-77874369D01*
X151992055Y-77876686D01*
X151735051Y-77876686D01*
X151730462Y-77872416D01*
X151661912Y-77821008D01*
X151912185Y-77821008D01*
X151929972Y-77838795D01*
X151947759Y-77821008D01*
X151929972Y-77803221D01*
X151912185Y-77821008D01*
X151661912Y-77821008D01*
X151206064Y-77479152D01*
X150725303Y-77189172D01*
X150147709Y-76916296D01*
X149542770Y-76704487D01*
X148918019Y-76555492D01*
X148280988Y-76471061D01*
X147639212Y-76452941D01*
X147000222Y-76502882D01*
X146878428Y-76520333D01*
X146246402Y-76651395D01*
X145637380Y-76845368D01*
X145056126Y-77098939D01*
X144911387Y-77180672D01*
X144722393Y-77287395D01*
X144596399Y-77358543D01*
X144507403Y-77408798D01*
X144477954Y-77429691D01*
X144388367Y-77493250D01*
X144251931Y-77590046D01*
X144026671Y-77749860D01*
X143995977Y-77771636D01*
X143526611Y-78184142D01*
X143402384Y-78319047D01*
X143156447Y-78586124D01*
X143104069Y-78643004D01*
X143040939Y-78728421D01*
X142916755Y-78896445D01*
X142733116Y-79144914D01*
X142700649Y-79200813D01*
X142644584Y-79297339D01*
X142489617Y-79564145D01*
X142448292Y-79635294D01*
X142418516Y-79686559D01*
X142409057Y-79706442D01*
X142375211Y-79777591D01*
X142338405Y-79854961D01*
X142282526Y-79972425D01*
X142261891Y-80026610D01*
X142232426Y-80103981D01*
X142160283Y-80293417D01*
X142119639Y-80400140D01*
X142078996Y-80506862D01*
X142056625Y-80565604D01*
X142044116Y-80613585D01*
X142012429Y-80735130D01*
X141975331Y-80877427D01*
X141932823Y-81040476D01*
X141898960Y-81170366D01*
X141891950Y-81218347D01*
X141858166Y-81449579D01*
X141811388Y-81769747D01*
X141809558Y-81782273D01*
X141793491Y-82250000D01*
X141788446Y-82396882D01*
X141478975Y-82396882D01*
X141471672Y-82232920D01*
X141599797Y-82232920D01*
X141605752Y-82347829D01*
X141612624Y-82370741D01*
X141618366Y-82337825D01*
X141620572Y-82250000D01*
X141618872Y-82170503D01*
X141613508Y-82130101D01*
X141605752Y-82152170D01*
X141599797Y-82232920D01*
X141471672Y-82232920D01*
X141470955Y-82216829D01*
X141498286Y-81770471D01*
X141635359Y-81770471D01*
X141641765Y-81868066D01*
X141648031Y-81884950D01*
X141654371Y-81854113D01*
X141656632Y-81769747D01*
X141655032Y-81703957D01*
X141649430Y-81665508D01*
X141641279Y-81690195D01*
X141635359Y-81770471D01*
X141498286Y-81770471D01*
X141510008Y-81579026D01*
X141533092Y-81441890D01*
X141672009Y-81441890D01*
X141679047Y-81512511D01*
X141680464Y-81515683D01*
X141691601Y-81510334D01*
X141695446Y-81449579D01*
X141695211Y-81438532D01*
X141689052Y-81391281D01*
X141677728Y-81405789D01*
X141672009Y-81441890D01*
X141533092Y-81441890D01*
X141575496Y-81189982D01*
X141709697Y-81189982D01*
X141714395Y-81262815D01*
X141726748Y-81268849D01*
X141732338Y-81218347D01*
X141727379Y-81169410D01*
X141714395Y-81173879D01*
X141709697Y-81189982D01*
X141575496Y-81189982D01*
X141605438Y-81012111D01*
X141745271Y-81012111D01*
X141749969Y-81084944D01*
X141762322Y-81090978D01*
X141767912Y-81040476D01*
X141762954Y-80991539D01*
X141749969Y-80996008D01*
X141745271Y-81012111D01*
X141605438Y-81012111D01*
X141618168Y-80936484D01*
X141634346Y-80876506D01*
X141779119Y-80876506D01*
X141787611Y-80924118D01*
X141799755Y-80923568D01*
X141806295Y-80877427D01*
X141800599Y-80842460D01*
X141784802Y-80855934D01*
X141779119Y-80876506D01*
X141634346Y-80876506D01*
X141672729Y-80734209D01*
X141814693Y-80734209D01*
X141823185Y-80781821D01*
X141835329Y-80781271D01*
X141841869Y-80735130D01*
X141836173Y-80700163D01*
X141820377Y-80713638D01*
X141814693Y-80734209D01*
X141672729Y-80734209D01*
X141710256Y-80595083D01*
X141852278Y-80595083D01*
X141856536Y-80637301D01*
X141867236Y-80642867D01*
X141880252Y-80613585D01*
X141877685Y-80594752D01*
X141856536Y-80589869D01*
X141852278Y-80595083D01*
X141710256Y-80595083D01*
X141739043Y-80488360D01*
X141887853Y-80488360D01*
X141892110Y-80530578D01*
X141902810Y-80536144D01*
X141915826Y-80506862D01*
X141913259Y-80488029D01*
X141892110Y-80483146D01*
X141887853Y-80488360D01*
X141739043Y-80488360D01*
X141748977Y-80451530D01*
X141775421Y-80381638D01*
X141923427Y-80381638D01*
X141927684Y-80423856D01*
X141938385Y-80429421D01*
X141951401Y-80400140D01*
X141948833Y-80381307D01*
X141927684Y-80376423D01*
X141923427Y-80381638D01*
X141775421Y-80381638D01*
X141815800Y-80274915D01*
X141959001Y-80274915D01*
X141963259Y-80317133D01*
X141973959Y-80322699D01*
X141986975Y-80293417D01*
X141984408Y-80274584D01*
X141963259Y-80269701D01*
X141959001Y-80274915D01*
X141815800Y-80274915D01*
X141840859Y-80208684D01*
X141997106Y-80208684D01*
X142009575Y-80208502D01*
X142035941Y-80167532D01*
X142055488Y-80103981D01*
X142049662Y-80085315D01*
X142018206Y-80127108D01*
X141999076Y-80168898D01*
X141997106Y-80208684D01*
X141840859Y-80208684D01*
X141909748Y-80026610D01*
X142058123Y-80026610D01*
X142075910Y-80044397D01*
X142093698Y-80026610D01*
X142075910Y-80008823D01*
X142058123Y-80026610D01*
X141909748Y-80026610D01*
X141935077Y-79959664D01*
X142103829Y-79959664D01*
X142116298Y-79959482D01*
X142142664Y-79918512D01*
X142162210Y-79854961D01*
X142156384Y-79836295D01*
X142124929Y-79878088D01*
X142105799Y-79919878D01*
X142103829Y-79959664D01*
X141935077Y-79959664D01*
X141972787Y-79859996D01*
X142014499Y-79777591D01*
X142164846Y-79777591D01*
X142182633Y-79795378D01*
X142200420Y-79777591D01*
X142182633Y-79759804D01*
X142164846Y-79777591D01*
X142014499Y-79777591D01*
X142050513Y-79706442D01*
X142200420Y-79706442D01*
X142218207Y-79724229D01*
X142235994Y-79706442D01*
X142218207Y-79688655D01*
X142200420Y-79706442D01*
X142050513Y-79706442D01*
X142086526Y-79635294D01*
X142235994Y-79635294D01*
X142253782Y-79653081D01*
X142271569Y-79635294D01*
X142253782Y-79617507D01*
X142235994Y-79635294D01*
X142086526Y-79635294D01*
X142122540Y-79564145D01*
X142271569Y-79564145D01*
X142289356Y-79581932D01*
X142307143Y-79564145D01*
X142289356Y-79546358D01*
X142271569Y-79564145D01*
X142122540Y-79564145D01*
X142149550Y-79510784D01*
X142323103Y-79510784D01*
X142324974Y-79510332D01*
X142354139Y-79476091D01*
X142396078Y-79404061D01*
X142402296Y-79391810D01*
X142431190Y-79324705D01*
X142433480Y-79297339D01*
X142431609Y-79297790D01*
X142402444Y-79332031D01*
X142360504Y-79404061D01*
X142354286Y-79416312D01*
X142325393Y-79483417D01*
X142323103Y-79510784D01*
X142149550Y-79510784D01*
X142258959Y-79294637D01*
X142290307Y-79246077D01*
X142449440Y-79246077D01*
X142449786Y-79251050D01*
X142470379Y-79258884D01*
X142506198Y-79220694D01*
X142514854Y-79200813D01*
X142490511Y-79205006D01*
X142474707Y-79215987D01*
X142449440Y-79246077D01*
X142290307Y-79246077D01*
X142355627Y-79144891D01*
X142530172Y-79144891D01*
X142540046Y-79146700D01*
X142580379Y-79098679D01*
X142646420Y-79003851D01*
X142682802Y-78945610D01*
X142706874Y-78896445D01*
X142695615Y-78894393D01*
X142692548Y-78897023D01*
X142638827Y-78958974D01*
X142580832Y-79045584D01*
X142555507Y-79090229D01*
X142530172Y-79144891D01*
X142355627Y-79144891D01*
X142564426Y-78821442D01*
X142734034Y-78821442D01*
X142734618Y-78827685D01*
X142757795Y-78827925D01*
X142809720Y-78772619D01*
X142829592Y-78746843D01*
X142838426Y-78728421D01*
X142796289Y-78759187D01*
X142758344Y-78791747D01*
X142734034Y-78821442D01*
X142564426Y-78821442D01*
X142603754Y-78760520D01*
X142669088Y-78679145D01*
X142840756Y-78679145D01*
X142841340Y-78685388D01*
X142864518Y-78685628D01*
X142916442Y-78630322D01*
X142936315Y-78604546D01*
X142945149Y-78586124D01*
X142903011Y-78616890D01*
X142865067Y-78649450D01*
X142840756Y-78679145D01*
X142669088Y-78679145D01*
X142810415Y-78503119D01*
X142983053Y-78503119D01*
X142989182Y-78514296D01*
X143022942Y-78491215D01*
X143092468Y-78416876D01*
X143178712Y-78319047D01*
X143080882Y-78405290D01*
X143065824Y-78418703D01*
X143006917Y-78474519D01*
X142983053Y-78503119D01*
X142810415Y-78503119D01*
X143003436Y-78262708D01*
X143363991Y-77897670D01*
X143587815Y-77897670D01*
X143589585Y-77906825D01*
X143617056Y-77897120D01*
X143680131Y-77829902D01*
X143747899Y-77749860D01*
X143667857Y-77817628D01*
X143611806Y-77868617D01*
X143587815Y-77897670D01*
X143363991Y-77897670D01*
X143454268Y-77806270D01*
X143603988Y-77683067D01*
X143836835Y-77683067D01*
X143837419Y-77689309D01*
X143860597Y-77689550D01*
X143912521Y-77634243D01*
X143932393Y-77608468D01*
X143941227Y-77590046D01*
X143899090Y-77620812D01*
X143861145Y-77653372D01*
X143836835Y-77683067D01*
X143603988Y-77683067D01*
X143779652Y-77538514D01*
X144014706Y-77538514D01*
X144015052Y-77543487D01*
X144035645Y-77551321D01*
X144071464Y-77513131D01*
X144080120Y-77493250D01*
X144055777Y-77497443D01*
X144039974Y-77508424D01*
X144014706Y-77538514D01*
X143779652Y-77538514D01*
X143911897Y-77429691D01*
X144157003Y-77429691D01*
X144174790Y-77447479D01*
X144192577Y-77429691D01*
X144174790Y-77411904D01*
X144157003Y-77429691D01*
X143911897Y-77429691D01*
X143952511Y-77396270D01*
X144009541Y-77358543D01*
X144263726Y-77358543D01*
X144281513Y-77376330D01*
X144299300Y-77358543D01*
X144281513Y-77340756D01*
X144263726Y-77358543D01*
X144009541Y-77358543D01*
X144117092Y-77287395D01*
X144370448Y-77287395D01*
X144388235Y-77305182D01*
X144406022Y-77287395D01*
X144388235Y-77269607D01*
X144370448Y-77287395D01*
X144117092Y-77287395D01*
X144278419Y-77180672D01*
X144548319Y-77180672D01*
X144566106Y-77198459D01*
X144583894Y-77180672D01*
X144566106Y-77162885D01*
X144548319Y-77180672D01*
X144278419Y-77180672D01*
X144494430Y-77037774D01*
X145049670Y-76746461D01*
X145664501Y-76498715D01*
X146296842Y-76316195D01*
X146941335Y-76198781D01*
X147592622Y-76146355D01*
X148245346Y-76158798D01*
X148894149Y-76235990D01*
X149533674Y-76377813D01*
X150158561Y-76584147D01*
X150763455Y-76854874D01*
X151342997Y-77189874D01*
X151558551Y-77336430D01*
X152072412Y-77744582D01*
X152150059Y-77821008D01*
X152274204Y-77943202D01*
G37*
%TD*%
%LPC*%
D13*
%TO.C,J300*%
X164000000Y-117000000D03*
D14*
X169080000Y-122080000D03*
D13*
X166540000Y-117000000D03*
D14*
X158920000Y-122080000D03*
%TD*%
D15*
%TO.C,H2*%
X170000000Y-52600000D03*
X171697056Y-53302944D03*
X168302944Y-53302944D03*
X172400000Y-55000000D03*
D16*
X170000000Y-55000000D03*
D15*
X167600000Y-55000000D03*
X171697056Y-56697056D03*
X168302944Y-56697056D03*
X170000000Y-57400000D03*
%TD*%
D17*
%TO.C,Tooling-Hole1*%
X122000000Y-85000000D03*
%TD*%
D13*
%TO.C,J400*%
X131000000Y-117000000D03*
D14*
X136080000Y-122080000D03*
D13*
X133540000Y-117000000D03*
D14*
X125920000Y-122080000D03*
%TD*%
D17*
%TO.C,Tooling-Hole4*%
X152500000Y-65000000D03*
%TD*%
D18*
%TO.C,J200*%
X150390000Y-55100000D03*
X144610000Y-55100000D03*
D19*
X151820000Y-55630000D03*
D20*
X151820000Y-51450000D03*
D19*
X143180000Y-55630000D03*
D20*
X143180000Y-51450000D03*
%TD*%
D21*
%TO.C,J201*%
X134810000Y-61365000D03*
D22*
X134810000Y-62635000D03*
X133540000Y-61365000D03*
X133540000Y-62635000D03*
X132270000Y-61365000D03*
X132270000Y-62635000D03*
X131000000Y-61365000D03*
X131000000Y-62635000D03*
X129730000Y-61365000D03*
X129730000Y-62635000D03*
X128460000Y-61365000D03*
X128460000Y-62635000D03*
X127190000Y-61365000D03*
X127190000Y-62635000D03*
%TD*%
D15*
%TO.C,H3*%
X147500000Y-122600000D03*
X149197056Y-123302944D03*
X145802944Y-123302944D03*
X149900000Y-125000000D03*
D16*
X147500000Y-125000000D03*
D15*
X145100000Y-125000000D03*
X149197056Y-126697056D03*
X145802944Y-126697056D03*
X147500000Y-127400000D03*
%TD*%
D17*
%TO.C,Tooling-Hole3*%
X147500000Y-120000000D03*
%TD*%
%TO.C,Tooling-Hole2*%
X166000000Y-52000000D03*
%TD*%
D15*
%TO.C,H1*%
X122600000Y-55000000D03*
X123302944Y-53302944D03*
X123302944Y-56697056D03*
X125000000Y-52600000D03*
D16*
X125000000Y-55000000D03*
D15*
X125000000Y-57400000D03*
X126697056Y-53302944D03*
X126697056Y-56697056D03*
X127400000Y-55000000D03*
%TD*%
D23*
X159250000Y-82250000D03*
D15*
X122500000Y-107500000D03*
X172500000Y-125000000D03*
X125000000Y-72500000D03*
D23*
X134750000Y-69500000D03*
D15*
X172500000Y-110000000D03*
X165000000Y-120000000D03*
X142500000Y-122500000D03*
D23*
X152250000Y-88750000D03*
D15*
X145000000Y-65000000D03*
X125000000Y-115000000D03*
D23*
X127500000Y-70199503D03*
X133250000Y-111750000D03*
D15*
X140000000Y-117500000D03*
X135000000Y-125000000D03*
X122500000Y-115000000D03*
X167500000Y-127500000D03*
X157500000Y-125000000D03*
D23*
X146862500Y-112362500D03*
D15*
X137500000Y-125000000D03*
X147500000Y-105000000D03*
X150000000Y-117500000D03*
X127500000Y-115000000D03*
X135000000Y-100000000D03*
D23*
X127250000Y-78000000D03*
X142000000Y-95250000D03*
D15*
X170000000Y-112500000D03*
X122500000Y-112500000D03*
X155000000Y-122500000D03*
X125000000Y-117500000D03*
X122500000Y-120000000D03*
X172500000Y-115000000D03*
X140000000Y-127500000D03*
X170000000Y-117500000D03*
X145000000Y-105000000D03*
X142500000Y-112500000D03*
X170000000Y-100000000D03*
X142500000Y-127500000D03*
X155000000Y-65000000D03*
X145000000Y-120000000D03*
X162500000Y-115000000D03*
X142500000Y-62500000D03*
D23*
X142000000Y-96250000D03*
D15*
X152500000Y-95000000D03*
X172500000Y-122500000D03*
X142500000Y-125000000D03*
X140000000Y-125000000D03*
D23*
X128750000Y-85750000D03*
X127750000Y-82750000D03*
D15*
X170000000Y-127500000D03*
D23*
X145000000Y-59817500D03*
D15*
X160000000Y-117500000D03*
X165000000Y-125000000D03*
D23*
X143250000Y-97250000D03*
D15*
X122500000Y-110000000D03*
X122500000Y-127500000D03*
X125000000Y-112500000D03*
X150000000Y-105000000D03*
X165000000Y-127500000D03*
X125000000Y-120000000D03*
X122500000Y-100000000D03*
X167500000Y-125000000D03*
X152500000Y-102500000D03*
D23*
X127500000Y-69500000D03*
D15*
X165000000Y-77500000D03*
X172500000Y-95000000D03*
X125000000Y-110000000D03*
D23*
X152500000Y-115250000D03*
D15*
X170000000Y-115000000D03*
X155000000Y-62500000D03*
X122500000Y-125000000D03*
X172500000Y-102500000D03*
D23*
X162250000Y-62000000D03*
D15*
X155000000Y-127500000D03*
X125000000Y-97500000D03*
X135000000Y-112500000D03*
X170000000Y-105000000D03*
X150000000Y-100000000D03*
X132500000Y-122500000D03*
X170000000Y-85000000D03*
X160000000Y-127500000D03*
D23*
X129500000Y-87250000D03*
D15*
X152500000Y-125000000D03*
X160000000Y-115000000D03*
X152500000Y-127500000D03*
X160000000Y-57500000D03*
D23*
X147500000Y-59047500D03*
D15*
X135000000Y-127500000D03*
D23*
X153000000Y-56500000D03*
X162500000Y-92000000D03*
X160750000Y-98500000D03*
D15*
X125000000Y-100000000D03*
D23*
X132000000Y-97500000D03*
D15*
X122500000Y-117500000D03*
X170000000Y-87500000D03*
X142500000Y-87500000D03*
X150000000Y-95000000D03*
D23*
X125250000Y-82650000D03*
X122250000Y-59250000D03*
X163265000Y-55000000D03*
D15*
X167500000Y-85000000D03*
X135000000Y-120000000D03*
D23*
X152500000Y-86770000D03*
X174000000Y-82250000D03*
D15*
X125000000Y-107500000D03*
D23*
X164000000Y-83000000D03*
D15*
X132500000Y-125000000D03*
D23*
X174000000Y-77500000D03*
D15*
X132500000Y-127500000D03*
X155000000Y-60000000D03*
D23*
X160750000Y-89250000D03*
X164500000Y-64750000D03*
D15*
X155000000Y-125000000D03*
X125000000Y-102500000D03*
X130000000Y-125000000D03*
X162500000Y-122500000D03*
D23*
X130000000Y-73750000D03*
D15*
X160000000Y-80000000D03*
X170000000Y-77500000D03*
X157500000Y-120000000D03*
D23*
X131000000Y-69500000D03*
D15*
X137500000Y-115000000D03*
X140000000Y-122500000D03*
X165000000Y-122500000D03*
X145000000Y-117500000D03*
D23*
X166247176Y-82508473D03*
X127000000Y-89000000D03*
D15*
X172500000Y-97500000D03*
X172500000Y-107500000D03*
X167500000Y-120000000D03*
X142500000Y-115000000D03*
D23*
X167250000Y-113000000D03*
X133250000Y-97250000D03*
D15*
X170000000Y-107500000D03*
D23*
X131250000Y-79250000D03*
D15*
X172500000Y-120000000D03*
X160000000Y-60000000D03*
D23*
X122400000Y-78900000D03*
D15*
X157500000Y-115000000D03*
D23*
X139500000Y-58000000D03*
X144250000Y-59297500D03*
D15*
X162500000Y-77500000D03*
X150000000Y-65000000D03*
X170000000Y-92500000D03*
X152500000Y-112500000D03*
X172500000Y-112500000D03*
D23*
X151000000Y-86770000D03*
D15*
X167500000Y-77500000D03*
D23*
X124000000Y-69500000D03*
X142000000Y-98250000D03*
X134250000Y-55000000D03*
X143250000Y-98250000D03*
X150250000Y-59297500D03*
D15*
X127500000Y-120000000D03*
X170000000Y-97500000D03*
X155000000Y-120000000D03*
X172500000Y-87500000D03*
X127500000Y-117500000D03*
X172500000Y-85000000D03*
D23*
X153250000Y-87250000D03*
D15*
X125000000Y-127500000D03*
X172500000Y-100000000D03*
X142500000Y-120000000D03*
X152500000Y-100000000D03*
D23*
X162500000Y-97750000D03*
D15*
X122500000Y-122500000D03*
D23*
X165250000Y-107000000D03*
D15*
X170000000Y-102500000D03*
X147500000Y-102500000D03*
X122500000Y-95000000D03*
X150000000Y-97500000D03*
X152500000Y-122500000D03*
X130000000Y-120000000D03*
D23*
X162250000Y-61250000D03*
D15*
X172500000Y-117500000D03*
X127500000Y-127500000D03*
D23*
X123900000Y-74400000D03*
D15*
X172500000Y-105000000D03*
D23*
X162250000Y-67750000D03*
D15*
X172500000Y-90000000D03*
X150000000Y-70000000D03*
X155000000Y-115000000D03*
X157500000Y-127500000D03*
X170000000Y-125000000D03*
X137500000Y-127500000D03*
D23*
X165250000Y-109750000D03*
X133750000Y-69750000D03*
D15*
X125000000Y-125000000D03*
D23*
X132000000Y-103250000D03*
X164500000Y-63750000D03*
D15*
X172500000Y-127500000D03*
X135000000Y-115000000D03*
D23*
X162250000Y-68750000D03*
D15*
X170000000Y-110000000D03*
D23*
X160265000Y-55000000D03*
D15*
X170000000Y-90000000D03*
X125000000Y-70000000D03*
X157500000Y-117500000D03*
X132500000Y-120000000D03*
X152500000Y-105000000D03*
X162500000Y-57500000D03*
X152500000Y-62500000D03*
D23*
X127750000Y-74250000D03*
X139750000Y-76125500D03*
X168500000Y-83750000D03*
D15*
X122500000Y-102500000D03*
D23*
X132250000Y-71250000D03*
D15*
X135000000Y-97500000D03*
X150000000Y-102500000D03*
X135000000Y-105000000D03*
D23*
X122750000Y-83750000D03*
D15*
X125000000Y-105000000D03*
D23*
X133750000Y-113000000D03*
D15*
X130000000Y-122500000D03*
X152500000Y-120000000D03*
X170000000Y-120000000D03*
X130000000Y-127500000D03*
X162500000Y-125000000D03*
D23*
X142000000Y-97250000D03*
D15*
X122500000Y-97500000D03*
X160000000Y-120000000D03*
X167500000Y-115000000D03*
X152500000Y-97500000D03*
D23*
X130500000Y-59750000D03*
D15*
X137500000Y-117500000D03*
X122500000Y-105000000D03*
D23*
X132750000Y-59750000D03*
D15*
X160000000Y-67500000D03*
X135000000Y-107500000D03*
D23*
X146250000Y-109750000D03*
D15*
X170000000Y-95000000D03*
D23*
X131750000Y-59750000D03*
X137250000Y-69500000D03*
D15*
X172500000Y-92500000D03*
X162500000Y-60000000D03*
X150000000Y-120000000D03*
D23*
X163250000Y-105000000D03*
D15*
X155000000Y-67500000D03*
X162500000Y-127500000D03*
X162500000Y-120000000D03*
X127500000Y-125000000D03*
X140000000Y-115000000D03*
X135000000Y-102500000D03*
D23*
X136000000Y-84750000D03*
D15*
X155000000Y-117500000D03*
X160000000Y-125000000D03*
X152500000Y-117500000D03*
X122500000Y-70000000D03*
X140000000Y-120000000D03*
D23*
X142000000Y-57047500D03*
D15*
X142500000Y-117500000D03*
D23*
X162250000Y-66500000D03*
X164250000Y-59250000D03*
X137250000Y-55000000D03*
X121750000Y-81000000D03*
X138500000Y-82750000D03*
X129250000Y-82750000D03*
X139250000Y-66500000D03*
X152000000Y-70000000D03*
X138565516Y-74065516D03*
X137000000Y-66250000D03*
X132350497Y-69750000D03*
X122250000Y-62500000D03*
X131500000Y-77750000D03*
X161760050Y-81250000D03*
X160500000Y-86500000D03*
X141000000Y-78250000D03*
X140000000Y-81500000D03*
X133244978Y-86000698D03*
X134250000Y-87500000D03*
X132250000Y-72500000D03*
X130750000Y-56000000D03*
X134250000Y-75250000D03*
X130750000Y-54000000D03*
X130750000Y-52000000D03*
X133250000Y-75500000D03*
X162000000Y-82500000D03*
X160500000Y-104500000D03*
X135000000Y-83750000D03*
X134000000Y-94250000D03*
X134000000Y-95250000D03*
X135250000Y-80500000D03*
X161250000Y-66500000D03*
X165750000Y-70250000D03*
X146000000Y-86500000D03*
X152250000Y-76000000D03*
G36*
X123015677Y-96519685D02*
G01*
X123036319Y-96536319D01*
X125963681Y-99463681D01*
X125997166Y-99525004D01*
X126000000Y-99551362D01*
X126000000Y-118423363D01*
X125980315Y-118490402D01*
X125931455Y-118534272D01*
X124000000Y-119499999D01*
X124000000Y-123000000D01*
X125000000Y-124000000D01*
X142448638Y-124000000D01*
X142515677Y-124019685D01*
X142536319Y-124036319D01*
X143463681Y-124963681D01*
X143497166Y-125025004D01*
X143500000Y-125051362D01*
X143500000Y-128000000D01*
X145922052Y-128968820D01*
X145976986Y-129011994D01*
X145999858Y-129078015D01*
X146000000Y-129083951D01*
X146000000Y-129876000D01*
X145980315Y-129943039D01*
X145927511Y-129988794D01*
X145876000Y-130000000D01*
X124001529Y-130000000D01*
X123998486Y-129999925D01*
X123610973Y-129980887D01*
X123604914Y-129980291D01*
X123222654Y-129923587D01*
X123216683Y-129922400D01*
X122841809Y-129828499D01*
X122835983Y-129826732D01*
X122472144Y-129696548D01*
X122466519Y-129694218D01*
X122117162Y-129528985D01*
X122111793Y-129526115D01*
X121780337Y-129327447D01*
X121775275Y-129324065D01*
X121464870Y-129093853D01*
X121460164Y-129089991D01*
X121173830Y-128830474D01*
X121169525Y-128826169D01*
X120910008Y-128539835D01*
X120906146Y-128535129D01*
X120675934Y-128224724D01*
X120672552Y-128219662D01*
X120473884Y-127888206D01*
X120471014Y-127882837D01*
X120305781Y-127533480D01*
X120303451Y-127527855D01*
X120173267Y-127164016D01*
X120171500Y-127158190D01*
X120077599Y-126783316D01*
X120076412Y-126777345D01*
X120019708Y-126395085D01*
X120019112Y-126389026D01*
X120000075Y-126001512D01*
X120000000Y-125998470D01*
X120000000Y-96624000D01*
X120019685Y-96556961D01*
X120072489Y-96511206D01*
X120124000Y-96500000D01*
X122948638Y-96500000D01*
X123015677Y-96519685D01*
G37*
G36*
X174943039Y-86519685D02*
G01*
X174988794Y-86572489D01*
X175000000Y-86624000D01*
X175000000Y-125998470D01*
X174999925Y-126001513D01*
X174980887Y-126389026D01*
X174980291Y-126395085D01*
X174923587Y-126777345D01*
X174922400Y-126783316D01*
X174828499Y-127158190D01*
X174826732Y-127164016D01*
X174696548Y-127527855D01*
X174694218Y-127533480D01*
X174528985Y-127882837D01*
X174526115Y-127888206D01*
X174327447Y-128219662D01*
X174324065Y-128224724D01*
X174093853Y-128535129D01*
X174089991Y-128539835D01*
X173830474Y-128826169D01*
X173826169Y-128830474D01*
X173539835Y-129089991D01*
X173535129Y-129093853D01*
X173224724Y-129324065D01*
X173219662Y-129327447D01*
X172888206Y-129526115D01*
X172882837Y-129528985D01*
X172533480Y-129694218D01*
X172527855Y-129696548D01*
X172164016Y-129826732D01*
X172158190Y-129828499D01*
X171783316Y-129922400D01*
X171777345Y-129923587D01*
X171395085Y-129980291D01*
X171389026Y-129980887D01*
X171001514Y-129999925D01*
X170998471Y-130000000D01*
X149124000Y-130000000D01*
X149056961Y-129980315D01*
X149011206Y-129927511D01*
X149000000Y-129876000D01*
X149000000Y-129083951D01*
X149019685Y-129016912D01*
X149072489Y-128971157D01*
X149077948Y-128968820D01*
X151499999Y-128000000D01*
X151500000Y-128000000D01*
X151500000Y-125051362D01*
X151519685Y-124984323D01*
X151536319Y-124963681D01*
X152463681Y-124036319D01*
X152525004Y-124002834D01*
X152551362Y-124000000D01*
X170000000Y-124000000D01*
X170000000Y-123999999D01*
X171000000Y-122999999D01*
X171000000Y-119500000D01*
X170999999Y-119499999D01*
X169068545Y-118534272D01*
X169017387Y-118486685D01*
X169000000Y-118423363D01*
X169000000Y-89551362D01*
X169019685Y-89484323D01*
X169036319Y-89463681D01*
X171963681Y-86536319D01*
X172025004Y-86502834D01*
X172051362Y-86500000D01*
X174876000Y-86500000D01*
X174943039Y-86519685D01*
G37*
%LPD*%
M02*
