M48
; DRILL file {KiCad 7.0.8} date 2024 April 22, Monday 21:24:55
; FORMAT={-:-/ absolute / metric / decimal}
; #@! TF.CreationDate,2024-04-22T21:24:55+09:00
; #@! TF.GenerationSoftware,Kicad,Pcbnew,7.0.8
; #@! TF.FileFunction,Plated,1,2,PTH
FMAT,2
METRIC
; #@! TA.AperFunction,Plated,PTH,ViaDrill
T1C0.300
; #@! TA.AperFunction,Plated,PTH,ViaDrill
T2C0.400
; #@! TA.AperFunction,Plated,PTH,ComponentDrill
T3C0.500
; #@! TA.AperFunction,Plated,PTH,ComponentDrill
T4C0.600
; #@! TA.AperFunction,Plated,PTH,ComponentDrill
T5C0.740
; #@! TA.AperFunction,Plated,PTH,ComponentDrill
T6C1.100
; #@! TA.AperFunction,Plated,PTH,ComponentDrill
T7C2.000
; #@! TA.AperFunction,Plated,PTH,ComponentDrill
T8C3.200
%
G90
G05
T1
X121.75Y-81.0
X122.25Y-59.25
X122.25Y-62.5
X122.4Y-78.9
X122.75Y-83.75
X123.9Y-74.4
X124.0Y-69.5
X125.25Y-82.65
X127.0Y-89.0
X127.25Y-78.0
X127.5Y-69.5
X127.5Y-70.2
X127.75Y-74.25
X127.75Y-82.75
X128.75Y-85.75
X129.25Y-82.75
X129.5Y-87.25
X130.0Y-73.75
X130.5Y-59.75
X130.75Y-52.0
X130.75Y-54.0
X130.75Y-56.0
X131.0Y-69.5
X131.25Y-79.25
X131.5Y-77.75
X131.75Y-59.75
X132.0Y-97.5
X132.0Y-103.25
X132.25Y-71.25
X132.25Y-72.5
X132.35Y-69.75
X132.75Y-59.75
X133.245Y-86.001
X133.25Y-75.5
X133.25Y-97.25
X133.25Y-111.75
X133.75Y-69.75
X133.75Y-113.0
X134.0Y-94.25
X134.0Y-95.25
X134.25Y-55.0
X134.25Y-75.25
X134.25Y-87.5
X134.75Y-69.5
X135.0Y-83.75
X135.25Y-80.5
X136.0Y-84.75
X137.0Y-66.25
X137.25Y-55.0
X137.25Y-69.5
X138.5Y-82.75
X138.566Y-74.066
X139.25Y-66.5
X139.5Y-58.0
X139.75Y-76.126
X140.0Y-81.5
X141.0Y-78.25
X142.0Y-57.047
X142.0Y-95.25
X142.0Y-96.25
X142.0Y-97.25
X142.0Y-98.25
X143.25Y-97.25
X143.25Y-98.25
X144.25Y-59.297
X145.0Y-59.817
X146.0Y-86.5
X146.25Y-109.75
X146.862Y-112.362
X147.5Y-59.047
X150.25Y-59.297
X151.0Y-86.77
X152.0Y-70.0
X152.25Y-76.0
X152.25Y-88.75
X152.5Y-86.77
X152.5Y-115.25
X153.0Y-56.5
X153.25Y-87.25
X159.25Y-82.25
X160.265Y-55.0
X160.5Y-86.5
X160.5Y-104.5
X160.75Y-89.25
X160.75Y-98.5
X161.25Y-66.5
X161.76Y-81.25
X162.0Y-82.5
X162.25Y-61.25
X162.25Y-62.0
X162.25Y-66.5
X162.25Y-67.75
X162.25Y-68.75
X162.5Y-92.0
X162.5Y-97.75
X163.25Y-105.0
X163.265Y-55.0
X164.0Y-83.0
X164.25Y-59.25
X164.5Y-63.75
X164.5Y-64.75
X165.25Y-107.0
X165.25Y-109.75
X165.75Y-70.25
X166.247Y-82.508
X167.25Y-113.0
X168.5Y-83.75
X174.0Y-77.5
X174.0Y-82.25
T2
X122.5Y-70.0
X122.5Y-95.0
X122.5Y-97.5
X122.5Y-100.0
X122.5Y-102.5
X122.5Y-105.0
X122.5Y-107.5
X122.5Y-110.0
X122.5Y-112.5
X122.5Y-115.0
X122.5Y-117.5
X122.5Y-120.0
X122.5Y-122.5
X122.5Y-125.0
X122.5Y-127.5
X125.0Y-70.0
X125.0Y-72.5
X125.0Y-97.5
X125.0Y-100.0
X125.0Y-102.5
X125.0Y-105.0
X125.0Y-107.5
X125.0Y-110.0
X125.0Y-112.5
X125.0Y-115.0
X125.0Y-117.5
X125.0Y-120.0
X125.0Y-125.0
X125.0Y-127.5
X127.5Y-115.0
X127.5Y-117.5
X127.5Y-120.0
X127.5Y-125.0
X127.5Y-127.5
X130.0Y-120.0
X130.0Y-122.5
X130.0Y-125.0
X130.0Y-127.5
X132.5Y-120.0
X132.5Y-122.5
X132.5Y-125.0
X132.5Y-127.5
X135.0Y-97.5
X135.0Y-100.0
X135.0Y-102.5
X135.0Y-105.0
X135.0Y-107.5
X135.0Y-112.5
X135.0Y-115.0
X135.0Y-120.0
X135.0Y-125.0
X135.0Y-127.5
X137.5Y-115.0
X137.5Y-117.5
X137.5Y-125.0
X137.5Y-127.5
X140.0Y-115.0
X140.0Y-117.5
X140.0Y-120.0
X140.0Y-122.5
X140.0Y-125.0
X140.0Y-127.5
X142.5Y-62.5
X142.5Y-87.5
X142.5Y-112.5
X142.5Y-115.0
X142.5Y-117.5
X142.5Y-120.0
X142.5Y-122.5
X142.5Y-125.0
X142.5Y-127.5
X145.0Y-65.0
X145.0Y-105.0
X145.0Y-117.5
X145.0Y-120.0
X147.5Y-102.5
X147.5Y-105.0
X150.0Y-65.0
X150.0Y-70.0
X150.0Y-95.0
X150.0Y-97.5
X150.0Y-100.0
X150.0Y-102.5
X150.0Y-105.0
X150.0Y-117.5
X150.0Y-120.0
X152.5Y-62.5
X152.5Y-95.0
X152.5Y-97.5
X152.5Y-100.0
X152.5Y-102.5
X152.5Y-105.0
X152.5Y-112.5
X152.5Y-117.5
X152.5Y-120.0
X152.5Y-122.5
X152.5Y-125.0
X152.5Y-127.5
X155.0Y-60.0
X155.0Y-62.5
X155.0Y-65.0
X155.0Y-67.5
X155.0Y-115.0
X155.0Y-117.5
X155.0Y-120.0
X155.0Y-122.5
X155.0Y-125.0
X155.0Y-127.5
X157.5Y-115.0
X157.5Y-117.5
X157.5Y-120.0
X157.5Y-125.0
X157.5Y-127.5
X160.0Y-57.5
X160.0Y-60.0
X160.0Y-67.5
X160.0Y-80.0
X160.0Y-115.0
X160.0Y-117.5
X160.0Y-120.0
X160.0Y-125.0
X160.0Y-127.5
X162.5Y-57.5
X162.5Y-60.0
X162.5Y-77.5
X162.5Y-115.0
X162.5Y-120.0
X162.5Y-122.5
X162.5Y-125.0
X162.5Y-127.5
X165.0Y-77.5
X165.0Y-120.0
X165.0Y-122.5
X165.0Y-125.0
X165.0Y-127.5
X167.5Y-77.5
X167.5Y-85.0
X167.5Y-115.0
X167.5Y-120.0
X167.5Y-125.0
X167.5Y-127.5
X170.0Y-77.5
X170.0Y-85.0
X170.0Y-87.5
X170.0Y-90.0
X170.0Y-92.5
X170.0Y-95.0
X170.0Y-97.5
X170.0Y-100.0
X170.0Y-102.5
X170.0Y-105.0
X170.0Y-107.5
X170.0Y-110.0
X170.0Y-112.5
X170.0Y-115.0
X170.0Y-117.5
X170.0Y-120.0
X170.0Y-125.0
X170.0Y-127.5
X172.5Y-85.0
X172.5Y-87.5
X172.5Y-90.0
X172.5Y-92.5
X172.5Y-95.0
X172.5Y-97.5
X172.5Y-100.0
X172.5Y-102.5
X172.5Y-105.0
X172.5Y-107.5
X172.5Y-110.0
X172.5Y-112.5
X172.5Y-115.0
X172.5Y-117.5
X172.5Y-120.0
X172.5Y-122.5
X172.5Y-125.0
X172.5Y-127.5
T3
X122.6Y-55.0
X123.303Y-53.303
X123.303Y-56.697
X125.0Y-52.6
X125.0Y-57.4
X126.697Y-53.303
X126.697Y-56.697
X127.4Y-55.0
X145.1Y-125.0
X145.803Y-123.303
X145.803Y-126.697
X147.5Y-122.6
X147.5Y-127.4
X149.197Y-123.303
X149.197Y-126.697
X149.9Y-125.0
X167.6Y-55.0
X168.303Y-53.303
X168.303Y-56.697
X170.0Y-52.6
X170.0Y-57.4
X171.697Y-53.303
X171.697Y-56.697
X172.4Y-55.0
T5
X127.19Y-61.365
X127.19Y-62.635
X128.46Y-61.365
X128.46Y-62.635
X129.73Y-61.365
X129.73Y-62.635
X131.0Y-61.365
X131.0Y-62.635
X132.27Y-61.365
X132.27Y-62.635
X133.54Y-61.365
X133.54Y-62.635
X134.81Y-61.365
X134.81Y-62.635
T6
X131.0Y-117.0
X133.54Y-117.0
X164.0Y-117.0
X166.54Y-117.0
T7
X125.92Y-122.08
X136.08Y-122.08
X158.92Y-122.08
X169.08Y-122.08
T8
X125.0Y-55.0
X147.5Y-125.0
X170.0Y-55.0
T4
X143.18Y-51.75G85X143.18Y-51.15
G05
X143.18Y-56.18G85X143.18Y-55.08
G05
X151.82Y-51.75G85X151.82Y-51.15
G05
X151.82Y-56.18G85X151.82Y-55.08
G05
T0
M30
