%TF.GenerationSoftware,KiCad,Pcbnew,7.0.8*%
%TF.CreationDate,2024-04-22T21:24:54+09:00*%
%TF.ProjectId,MixedSignalKicad,4d697865-6453-4696-976e-616c4b696361,1.0*%
%TF.SameCoordinates,Original*%
%TF.FileFunction,Drillmap*%
%TF.FilePolarity,Positive*%
%FSLAX45Y45*%
G04 Gerber Fmt 4.5, Leading zero omitted, Abs format (unit mm)*
G04 Created by KiCad (PCBNEW 7.0.8) date 2024-04-22 21:24:54*
%MOMM*%
%LPD*%
G01*
G04 APERTURE LIST*
%ADD10C,0.100000*%
%ADD11C,0.200000*%
%ADD12C,0.065000*%
%ADD13C,0.115200*%
G04 APERTURE END LIST*
D10*
X15600000Y-7500000D02*
G75*
G03*
X15500000Y-7400000I-100000J0D01*
G01*
X12000000Y-5400000D02*
X12000000Y-9500000D01*
X15500000Y-7200000D02*
X14500000Y-7200000D01*
X13800000Y-9300000D02*
G75*
G03*
X13700000Y-9200000I-100000J0D01*
G01*
X12600000Y-9000000D02*
X13700000Y-9000000D01*
X15600000Y-7500000D02*
X15600000Y-11000000D01*
X16900000Y-7200000D02*
X15900000Y-7200000D01*
X14000000Y-8900000D02*
G75*
G03*
X14100000Y-9000000I100000J0D01*
G01*
X13800000Y-8600000D02*
X13800000Y-8900000D01*
X15800000Y-5600000D02*
G75*
G03*
X15600000Y-5600000I-100000J0D01*
G01*
X13800000Y-11000000D02*
G75*
G03*
X14000000Y-11000000I100000J0D01*
G01*
X14500000Y-7200000D02*
G75*
G03*
X14500000Y-7400000I0J-100000D01*
G01*
X17500000Y-12600000D02*
X17500000Y-5400000D01*
X16900000Y-7400000D02*
G75*
G03*
X16900000Y-7200000I0J100000D01*
G01*
X13800000Y-11000000D02*
X13800000Y-9300000D01*
X17100000Y-13000000D02*
G75*
G03*
X17500000Y-12600000I0J400000D01*
G01*
X15200000Y-9200000D02*
X14100000Y-9200000D01*
X17100000Y-5000000D02*
X12400000Y-5000000D01*
X15500000Y-7400000D02*
X14500000Y-7400000D01*
X16900000Y-7400000D02*
X15900000Y-7400000D01*
X12600000Y-9200000D02*
X13700000Y-9200000D01*
X12400000Y-13000000D02*
X17100000Y-13000000D01*
X17500000Y-5400000D02*
G75*
G03*
X17100000Y-5000000I-400000J0D01*
G01*
X12000000Y-12600000D02*
G75*
G03*
X12400000Y-13000000I400000J0D01*
G01*
X14000000Y-8600000D02*
G75*
G03*
X13800000Y-8600000I-100000J0D01*
G01*
X12000000Y-9500000D02*
X12000000Y-12600000D01*
X15800000Y-7100000D02*
G75*
G03*
X15900000Y-7200000I100000J0D01*
G01*
X15800000Y-7500000D02*
X15800000Y-11000000D01*
X13700000Y-9000000D02*
G75*
G03*
X13800000Y-8900000I0J100000D01*
G01*
X12400000Y-5000000D02*
G75*
G03*
X12000000Y-5400000I0J-400000D01*
G01*
X15600000Y-5600000D02*
X15600000Y-7100000D01*
X15500000Y-7200000D02*
G75*
G03*
X15600000Y-7100000I0J100000D01*
G01*
X15200000Y-9000000D02*
X14100000Y-9000000D01*
X14000000Y-8600000D02*
X14000000Y-8900000D01*
X15600000Y-11000000D02*
G75*
G03*
X15800000Y-11000000I100000J0D01*
G01*
X15800000Y-5600000D02*
X15800000Y-7100000D01*
X15900000Y-7400000D02*
G75*
G03*
X15800000Y-7500000I0J-100000D01*
G01*
X12600000Y-9000000D02*
G75*
G03*
X12600000Y-9200000I0J-100000D01*
G01*
X14000000Y-11000000D02*
X14000000Y-9300000D01*
X14100000Y-9200000D02*
G75*
G03*
X14000000Y-9300000I0J-100000D01*
G01*
X15200000Y-9200000D02*
G75*
G03*
X15200000Y-9000000I0J100000D01*
G01*
D11*
D12*
X14428500Y-5477500D02*
X14493500Y-5542500D01*
X14493500Y-5477500D02*
X14428500Y-5542500D01*
X15006500Y-5477500D02*
X15071500Y-5542500D01*
X15071500Y-5477500D02*
X15006500Y-5542500D01*
D13*
X12257600Y-8500000D02*
G75*
G03*
X12257600Y-8500000I-57600J0D01*
G01*
X14807600Y-12000000D02*
G75*
G03*
X14807600Y-12000000I-57600J0D01*
G01*
X15307600Y-6500000D02*
G75*
G03*
X15307600Y-6500000I-57600J0D01*
G01*
X16657600Y-5200000D02*
G75*
G03*
X16657600Y-5200000I-57600J0D01*
G01*
D11*
X12255777Y-13316484D02*
X12255777Y-13116484D01*
X12255777Y-13116484D02*
X12303396Y-13116484D01*
X12303396Y-13116484D02*
X12331967Y-13126008D01*
X12331967Y-13126008D02*
X12351015Y-13145055D01*
X12351015Y-13145055D02*
X12360539Y-13164103D01*
X12360539Y-13164103D02*
X12370062Y-13202198D01*
X12370062Y-13202198D02*
X12370062Y-13230769D01*
X12370062Y-13230769D02*
X12360539Y-13268865D01*
X12360539Y-13268865D02*
X12351015Y-13287912D01*
X12351015Y-13287912D02*
X12331967Y-13306960D01*
X12331967Y-13306960D02*
X12303396Y-13316484D01*
X12303396Y-13316484D02*
X12255777Y-13316484D01*
X12455777Y-13316484D02*
X12455777Y-13183150D01*
X12455777Y-13221246D02*
X12465301Y-13202198D01*
X12465301Y-13202198D02*
X12474824Y-13192674D01*
X12474824Y-13192674D02*
X12493872Y-13183150D01*
X12493872Y-13183150D02*
X12512920Y-13183150D01*
X12579586Y-13316484D02*
X12579586Y-13183150D01*
X12579586Y-13116484D02*
X12570062Y-13126008D01*
X12570062Y-13126008D02*
X12579586Y-13135531D01*
X12579586Y-13135531D02*
X12589110Y-13126008D01*
X12589110Y-13126008D02*
X12579586Y-13116484D01*
X12579586Y-13116484D02*
X12579586Y-13135531D01*
X12703396Y-13316484D02*
X12684348Y-13306960D01*
X12684348Y-13306960D02*
X12674824Y-13287912D01*
X12674824Y-13287912D02*
X12674824Y-13116484D01*
X12808158Y-13316484D02*
X12789110Y-13306960D01*
X12789110Y-13306960D02*
X12779586Y-13287912D01*
X12779586Y-13287912D02*
X12779586Y-13116484D01*
X13036729Y-13316484D02*
X13036729Y-13116484D01*
X13036729Y-13116484D02*
X13103396Y-13259341D01*
X13103396Y-13259341D02*
X13170062Y-13116484D01*
X13170062Y-13116484D02*
X13170062Y-13316484D01*
X13351015Y-13316484D02*
X13351015Y-13211722D01*
X13351015Y-13211722D02*
X13341491Y-13192674D01*
X13341491Y-13192674D02*
X13322443Y-13183150D01*
X13322443Y-13183150D02*
X13284348Y-13183150D01*
X13284348Y-13183150D02*
X13265301Y-13192674D01*
X13351015Y-13306960D02*
X13331967Y-13316484D01*
X13331967Y-13316484D02*
X13284348Y-13316484D01*
X13284348Y-13316484D02*
X13265301Y-13306960D01*
X13265301Y-13306960D02*
X13255777Y-13287912D01*
X13255777Y-13287912D02*
X13255777Y-13268865D01*
X13255777Y-13268865D02*
X13265301Y-13249817D01*
X13265301Y-13249817D02*
X13284348Y-13240293D01*
X13284348Y-13240293D02*
X13331967Y-13240293D01*
X13331967Y-13240293D02*
X13351015Y-13230769D01*
X13446253Y-13183150D02*
X13446253Y-13383150D01*
X13446253Y-13192674D02*
X13465301Y-13183150D01*
X13465301Y-13183150D02*
X13503396Y-13183150D01*
X13503396Y-13183150D02*
X13522443Y-13192674D01*
X13522443Y-13192674D02*
X13531967Y-13202198D01*
X13531967Y-13202198D02*
X13541491Y-13221246D01*
X13541491Y-13221246D02*
X13541491Y-13278388D01*
X13541491Y-13278388D02*
X13531967Y-13297436D01*
X13531967Y-13297436D02*
X13522443Y-13306960D01*
X13522443Y-13306960D02*
X13503396Y-13316484D01*
X13503396Y-13316484D02*
X13465301Y-13316484D01*
X13465301Y-13316484D02*
X13446253Y-13306960D01*
X13627205Y-13297436D02*
X13636729Y-13306960D01*
X13636729Y-13306960D02*
X13627205Y-13316484D01*
X13627205Y-13316484D02*
X13617682Y-13306960D01*
X13617682Y-13306960D02*
X13627205Y-13297436D01*
X13627205Y-13297436D02*
X13627205Y-13316484D01*
X13627205Y-13192674D02*
X13636729Y-13202198D01*
X13636729Y-13202198D02*
X13627205Y-13211722D01*
X13627205Y-13211722D02*
X13617682Y-13202198D01*
X13617682Y-13202198D02*
X13627205Y-13192674D01*
X13627205Y-13192674D02*
X13627205Y-13211722D01*
D12*
X11930000Y-13612500D02*
X11995000Y-13677500D01*
X11995000Y-13612500D02*
X11930000Y-13677500D01*
D11*
X12293872Y-13536484D02*
X12312920Y-13536484D01*
X12312920Y-13536484D02*
X12331967Y-13546008D01*
X12331967Y-13546008D02*
X12341491Y-13555531D01*
X12341491Y-13555531D02*
X12351015Y-13574579D01*
X12351015Y-13574579D02*
X12360539Y-13612674D01*
X12360539Y-13612674D02*
X12360539Y-13660293D01*
X12360539Y-13660293D02*
X12351015Y-13698388D01*
X12351015Y-13698388D02*
X12341491Y-13717436D01*
X12341491Y-13717436D02*
X12331967Y-13726960D01*
X12331967Y-13726960D02*
X12312920Y-13736484D01*
X12312920Y-13736484D02*
X12293872Y-13736484D01*
X12293872Y-13736484D02*
X12274824Y-13726960D01*
X12274824Y-13726960D02*
X12265301Y-13717436D01*
X12265301Y-13717436D02*
X12255777Y-13698388D01*
X12255777Y-13698388D02*
X12246253Y-13660293D01*
X12246253Y-13660293D02*
X12246253Y-13612674D01*
X12246253Y-13612674D02*
X12255777Y-13574579D01*
X12255777Y-13574579D02*
X12265301Y-13555531D01*
X12265301Y-13555531D02*
X12274824Y-13546008D01*
X12274824Y-13546008D02*
X12293872Y-13536484D01*
X12446253Y-13717436D02*
X12455777Y-13726960D01*
X12455777Y-13726960D02*
X12446253Y-13736484D01*
X12446253Y-13736484D02*
X12436729Y-13726960D01*
X12436729Y-13726960D02*
X12446253Y-13717436D01*
X12446253Y-13717436D02*
X12446253Y-13736484D01*
X12627205Y-13536484D02*
X12589110Y-13536484D01*
X12589110Y-13536484D02*
X12570062Y-13546008D01*
X12570062Y-13546008D02*
X12560539Y-13555531D01*
X12560539Y-13555531D02*
X12541491Y-13584103D01*
X12541491Y-13584103D02*
X12531967Y-13622198D01*
X12531967Y-13622198D02*
X12531967Y-13698388D01*
X12531967Y-13698388D02*
X12541491Y-13717436D01*
X12541491Y-13717436D02*
X12551015Y-13726960D01*
X12551015Y-13726960D02*
X12570062Y-13736484D01*
X12570062Y-13736484D02*
X12608158Y-13736484D01*
X12608158Y-13736484D02*
X12627205Y-13726960D01*
X12627205Y-13726960D02*
X12636729Y-13717436D01*
X12636729Y-13717436D02*
X12646253Y-13698388D01*
X12646253Y-13698388D02*
X12646253Y-13650769D01*
X12646253Y-13650769D02*
X12636729Y-13631722D01*
X12636729Y-13631722D02*
X12627205Y-13622198D01*
X12627205Y-13622198D02*
X12608158Y-13612674D01*
X12608158Y-13612674D02*
X12570062Y-13612674D01*
X12570062Y-13612674D02*
X12551015Y-13622198D01*
X12551015Y-13622198D02*
X12541491Y-13631722D01*
X12541491Y-13631722D02*
X12531967Y-13650769D01*
X12827205Y-13536484D02*
X12731967Y-13536484D01*
X12731967Y-13536484D02*
X12722443Y-13631722D01*
X12722443Y-13631722D02*
X12731967Y-13622198D01*
X12731967Y-13622198D02*
X12751015Y-13612674D01*
X12751015Y-13612674D02*
X12798634Y-13612674D01*
X12798634Y-13612674D02*
X12817682Y-13622198D01*
X12817682Y-13622198D02*
X12827205Y-13631722D01*
X12827205Y-13631722D02*
X12836729Y-13650769D01*
X12836729Y-13650769D02*
X12836729Y-13698388D01*
X12836729Y-13698388D02*
X12827205Y-13717436D01*
X12827205Y-13717436D02*
X12817682Y-13726960D01*
X12817682Y-13726960D02*
X12798634Y-13736484D01*
X12798634Y-13736484D02*
X12751015Y-13736484D01*
X12751015Y-13736484D02*
X12731967Y-13726960D01*
X12731967Y-13726960D02*
X12722443Y-13717436D01*
X12960539Y-13536484D02*
X12979586Y-13536484D01*
X12979586Y-13536484D02*
X12998634Y-13546008D01*
X12998634Y-13546008D02*
X13008158Y-13555531D01*
X13008158Y-13555531D02*
X13017682Y-13574579D01*
X13017682Y-13574579D02*
X13027205Y-13612674D01*
X13027205Y-13612674D02*
X13027205Y-13660293D01*
X13027205Y-13660293D02*
X13017682Y-13698388D01*
X13017682Y-13698388D02*
X13008158Y-13717436D01*
X13008158Y-13717436D02*
X12998634Y-13726960D01*
X12998634Y-13726960D02*
X12979586Y-13736484D01*
X12979586Y-13736484D02*
X12960539Y-13736484D01*
X12960539Y-13736484D02*
X12941491Y-13726960D01*
X12941491Y-13726960D02*
X12931967Y-13717436D01*
X12931967Y-13717436D02*
X12922443Y-13698388D01*
X12922443Y-13698388D02*
X12912920Y-13660293D01*
X12912920Y-13660293D02*
X12912920Y-13612674D01*
X12912920Y-13612674D02*
X12922443Y-13574579D01*
X12922443Y-13574579D02*
X12931967Y-13555531D01*
X12931967Y-13555531D02*
X12941491Y-13546008D01*
X12941491Y-13546008D02*
X12960539Y-13536484D01*
X13112920Y-13736484D02*
X13112920Y-13603150D01*
X13112920Y-13622198D02*
X13122443Y-13612674D01*
X13122443Y-13612674D02*
X13141491Y-13603150D01*
X13141491Y-13603150D02*
X13170063Y-13603150D01*
X13170063Y-13603150D02*
X13189110Y-13612674D01*
X13189110Y-13612674D02*
X13198634Y-13631722D01*
X13198634Y-13631722D02*
X13198634Y-13736484D01*
X13198634Y-13631722D02*
X13208158Y-13612674D01*
X13208158Y-13612674D02*
X13227205Y-13603150D01*
X13227205Y-13603150D02*
X13255777Y-13603150D01*
X13255777Y-13603150D02*
X13274824Y-13612674D01*
X13274824Y-13612674D02*
X13284348Y-13631722D01*
X13284348Y-13631722D02*
X13284348Y-13736484D01*
X13379586Y-13736484D02*
X13379586Y-13603150D01*
X13379586Y-13622198D02*
X13389110Y-13612674D01*
X13389110Y-13612674D02*
X13408158Y-13603150D01*
X13408158Y-13603150D02*
X13436729Y-13603150D01*
X13436729Y-13603150D02*
X13455777Y-13612674D01*
X13455777Y-13612674D02*
X13465301Y-13631722D01*
X13465301Y-13631722D02*
X13465301Y-13736484D01*
X13465301Y-13631722D02*
X13474824Y-13612674D01*
X13474824Y-13612674D02*
X13493872Y-13603150D01*
X13493872Y-13603150D02*
X13522443Y-13603150D01*
X13522443Y-13603150D02*
X13541491Y-13612674D01*
X13541491Y-13612674D02*
X13551015Y-13631722D01*
X13551015Y-13631722D02*
X13551015Y-13736484D01*
X13941491Y-13526960D02*
X13770063Y-13784103D01*
X14198634Y-13536484D02*
X14217682Y-13536484D01*
X14217682Y-13536484D02*
X14236729Y-13546008D01*
X14236729Y-13546008D02*
X14246253Y-13555531D01*
X14246253Y-13555531D02*
X14255777Y-13574579D01*
X14255777Y-13574579D02*
X14265301Y-13612674D01*
X14265301Y-13612674D02*
X14265301Y-13660293D01*
X14265301Y-13660293D02*
X14255777Y-13698388D01*
X14255777Y-13698388D02*
X14246253Y-13717436D01*
X14246253Y-13717436D02*
X14236729Y-13726960D01*
X14236729Y-13726960D02*
X14217682Y-13736484D01*
X14217682Y-13736484D02*
X14198634Y-13736484D01*
X14198634Y-13736484D02*
X14179586Y-13726960D01*
X14179586Y-13726960D02*
X14170063Y-13717436D01*
X14170063Y-13717436D02*
X14160539Y-13698388D01*
X14160539Y-13698388D02*
X14151015Y-13660293D01*
X14151015Y-13660293D02*
X14151015Y-13612674D01*
X14151015Y-13612674D02*
X14160539Y-13574579D01*
X14160539Y-13574579D02*
X14170063Y-13555531D01*
X14170063Y-13555531D02*
X14179586Y-13546008D01*
X14179586Y-13546008D02*
X14198634Y-13536484D01*
X14351015Y-13717436D02*
X14360539Y-13726960D01*
X14360539Y-13726960D02*
X14351015Y-13736484D01*
X14351015Y-13736484D02*
X14341491Y-13726960D01*
X14341491Y-13726960D02*
X14351015Y-13717436D01*
X14351015Y-13717436D02*
X14351015Y-13736484D01*
X14484348Y-13536484D02*
X14503396Y-13536484D01*
X14503396Y-13536484D02*
X14522444Y-13546008D01*
X14522444Y-13546008D02*
X14531967Y-13555531D01*
X14531967Y-13555531D02*
X14541491Y-13574579D01*
X14541491Y-13574579D02*
X14551015Y-13612674D01*
X14551015Y-13612674D02*
X14551015Y-13660293D01*
X14551015Y-13660293D02*
X14541491Y-13698388D01*
X14541491Y-13698388D02*
X14531967Y-13717436D01*
X14531967Y-13717436D02*
X14522444Y-13726960D01*
X14522444Y-13726960D02*
X14503396Y-13736484D01*
X14503396Y-13736484D02*
X14484348Y-13736484D01*
X14484348Y-13736484D02*
X14465301Y-13726960D01*
X14465301Y-13726960D02*
X14455777Y-13717436D01*
X14455777Y-13717436D02*
X14446253Y-13698388D01*
X14446253Y-13698388D02*
X14436729Y-13660293D01*
X14436729Y-13660293D02*
X14436729Y-13612674D01*
X14436729Y-13612674D02*
X14446253Y-13574579D01*
X14446253Y-13574579D02*
X14455777Y-13555531D01*
X14455777Y-13555531D02*
X14465301Y-13546008D01*
X14465301Y-13546008D02*
X14484348Y-13536484D01*
X14627206Y-13555531D02*
X14636729Y-13546008D01*
X14636729Y-13546008D02*
X14655777Y-13536484D01*
X14655777Y-13536484D02*
X14703396Y-13536484D01*
X14703396Y-13536484D02*
X14722444Y-13546008D01*
X14722444Y-13546008D02*
X14731967Y-13555531D01*
X14731967Y-13555531D02*
X14741491Y-13574579D01*
X14741491Y-13574579D02*
X14741491Y-13593627D01*
X14741491Y-13593627D02*
X14731967Y-13622198D01*
X14731967Y-13622198D02*
X14617682Y-13736484D01*
X14617682Y-13736484D02*
X14741491Y-13736484D01*
X14922444Y-13536484D02*
X14827206Y-13536484D01*
X14827206Y-13536484D02*
X14817682Y-13631722D01*
X14817682Y-13631722D02*
X14827206Y-13622198D01*
X14827206Y-13622198D02*
X14846253Y-13612674D01*
X14846253Y-13612674D02*
X14893872Y-13612674D01*
X14893872Y-13612674D02*
X14912920Y-13622198D01*
X14912920Y-13622198D02*
X14922444Y-13631722D01*
X14922444Y-13631722D02*
X14931967Y-13650769D01*
X14931967Y-13650769D02*
X14931967Y-13698388D01*
X14931967Y-13698388D02*
X14922444Y-13717436D01*
X14922444Y-13717436D02*
X14912920Y-13726960D01*
X14912920Y-13726960D02*
X14893872Y-13736484D01*
X14893872Y-13736484D02*
X14846253Y-13736484D01*
X14846253Y-13736484D02*
X14827206Y-13726960D01*
X14827206Y-13726960D02*
X14817682Y-13717436D01*
X15103396Y-13536484D02*
X15065301Y-13536484D01*
X15065301Y-13536484D02*
X15046253Y-13546008D01*
X15046253Y-13546008D02*
X15036729Y-13555531D01*
X15036729Y-13555531D02*
X15017682Y-13584103D01*
X15017682Y-13584103D02*
X15008158Y-13622198D01*
X15008158Y-13622198D02*
X15008158Y-13698388D01*
X15008158Y-13698388D02*
X15017682Y-13717436D01*
X15017682Y-13717436D02*
X15027206Y-13726960D01*
X15027206Y-13726960D02*
X15046253Y-13736484D01*
X15046253Y-13736484D02*
X15084348Y-13736484D01*
X15084348Y-13736484D02*
X15103396Y-13726960D01*
X15103396Y-13726960D02*
X15112920Y-13717436D01*
X15112920Y-13717436D02*
X15122444Y-13698388D01*
X15122444Y-13698388D02*
X15122444Y-13650769D01*
X15122444Y-13650769D02*
X15112920Y-13631722D01*
X15112920Y-13631722D02*
X15103396Y-13622198D01*
X15103396Y-13622198D02*
X15084348Y-13612674D01*
X15084348Y-13612674D02*
X15046253Y-13612674D01*
X15046253Y-13612674D02*
X15027206Y-13622198D01*
X15027206Y-13622198D02*
X15017682Y-13631722D01*
X15017682Y-13631722D02*
X15008158Y-13650769D01*
X15198634Y-13536484D02*
X15198634Y-13574579D01*
X15274825Y-13536484D02*
X15274825Y-13574579D01*
X15570063Y-13812674D02*
X15560539Y-13803150D01*
X15560539Y-13803150D02*
X15541491Y-13774579D01*
X15541491Y-13774579D02*
X15531968Y-13755531D01*
X15531968Y-13755531D02*
X15522444Y-13726960D01*
X15522444Y-13726960D02*
X15512920Y-13679341D01*
X15512920Y-13679341D02*
X15512920Y-13641246D01*
X15512920Y-13641246D02*
X15522444Y-13593627D01*
X15522444Y-13593627D02*
X15531968Y-13565055D01*
X15531968Y-13565055D02*
X15541491Y-13546008D01*
X15541491Y-13546008D02*
X15560539Y-13517436D01*
X15560539Y-13517436D02*
X15570063Y-13507912D01*
X15636729Y-13555531D02*
X15646253Y-13546008D01*
X15646253Y-13546008D02*
X15665301Y-13536484D01*
X15665301Y-13536484D02*
X15712920Y-13536484D01*
X15712920Y-13536484D02*
X15731968Y-13546008D01*
X15731968Y-13546008D02*
X15741491Y-13555531D01*
X15741491Y-13555531D02*
X15751015Y-13574579D01*
X15751015Y-13574579D02*
X15751015Y-13593627D01*
X15751015Y-13593627D02*
X15741491Y-13622198D01*
X15741491Y-13622198D02*
X15627206Y-13736484D01*
X15627206Y-13736484D02*
X15751015Y-13736484D01*
X15989110Y-13736484D02*
X15989110Y-13536484D01*
X16074825Y-13736484D02*
X16074825Y-13631722D01*
X16074825Y-13631722D02*
X16065301Y-13612674D01*
X16065301Y-13612674D02*
X16046253Y-13603150D01*
X16046253Y-13603150D02*
X16017682Y-13603150D01*
X16017682Y-13603150D02*
X15998634Y-13612674D01*
X15998634Y-13612674D02*
X15989110Y-13622198D01*
X16198634Y-13736484D02*
X16179587Y-13726960D01*
X16179587Y-13726960D02*
X16170063Y-13717436D01*
X16170063Y-13717436D02*
X16160539Y-13698388D01*
X16160539Y-13698388D02*
X16160539Y-13641246D01*
X16160539Y-13641246D02*
X16170063Y-13622198D01*
X16170063Y-13622198D02*
X16179587Y-13612674D01*
X16179587Y-13612674D02*
X16198634Y-13603150D01*
X16198634Y-13603150D02*
X16227206Y-13603150D01*
X16227206Y-13603150D02*
X16246253Y-13612674D01*
X16246253Y-13612674D02*
X16255777Y-13622198D01*
X16255777Y-13622198D02*
X16265301Y-13641246D01*
X16265301Y-13641246D02*
X16265301Y-13698388D01*
X16265301Y-13698388D02*
X16255777Y-13717436D01*
X16255777Y-13717436D02*
X16246253Y-13726960D01*
X16246253Y-13726960D02*
X16227206Y-13736484D01*
X16227206Y-13736484D02*
X16198634Y-13736484D01*
X16379587Y-13736484D02*
X16360539Y-13726960D01*
X16360539Y-13726960D02*
X16351015Y-13707912D01*
X16351015Y-13707912D02*
X16351015Y-13536484D01*
X16531968Y-13726960D02*
X16512920Y-13736484D01*
X16512920Y-13736484D02*
X16474825Y-13736484D01*
X16474825Y-13736484D02*
X16455777Y-13726960D01*
X16455777Y-13726960D02*
X16446253Y-13707912D01*
X16446253Y-13707912D02*
X16446253Y-13631722D01*
X16446253Y-13631722D02*
X16455777Y-13612674D01*
X16455777Y-13612674D02*
X16474825Y-13603150D01*
X16474825Y-13603150D02*
X16512920Y-13603150D01*
X16512920Y-13603150D02*
X16531968Y-13612674D01*
X16531968Y-13612674D02*
X16541491Y-13631722D01*
X16541491Y-13631722D02*
X16541491Y-13650769D01*
X16541491Y-13650769D02*
X16446253Y-13669817D01*
X16617682Y-13726960D02*
X16636730Y-13736484D01*
X16636730Y-13736484D02*
X16674825Y-13736484D01*
X16674825Y-13736484D02*
X16693872Y-13726960D01*
X16693872Y-13726960D02*
X16703396Y-13707912D01*
X16703396Y-13707912D02*
X16703396Y-13698388D01*
X16703396Y-13698388D02*
X16693872Y-13679341D01*
X16693872Y-13679341D02*
X16674825Y-13669817D01*
X16674825Y-13669817D02*
X16646253Y-13669817D01*
X16646253Y-13669817D02*
X16627206Y-13660293D01*
X16627206Y-13660293D02*
X16617682Y-13641246D01*
X16617682Y-13641246D02*
X16617682Y-13631722D01*
X16617682Y-13631722D02*
X16627206Y-13612674D01*
X16627206Y-13612674D02*
X16646253Y-13603150D01*
X16646253Y-13603150D02*
X16674825Y-13603150D01*
X16674825Y-13603150D02*
X16693872Y-13612674D01*
X16770063Y-13812674D02*
X16779587Y-13803150D01*
X16779587Y-13803150D02*
X16798634Y-13774579D01*
X16798634Y-13774579D02*
X16808158Y-13755531D01*
X16808158Y-13755531D02*
X16817682Y-13726960D01*
X16817682Y-13726960D02*
X16827206Y-13679341D01*
X16827206Y-13679341D02*
X16827206Y-13641246D01*
X16827206Y-13641246D02*
X16817682Y-13593627D01*
X16817682Y-13593627D02*
X16808158Y-13565055D01*
X16808158Y-13565055D02*
X16798634Y-13546008D01*
X16798634Y-13546008D02*
X16779587Y-13517436D01*
X16779587Y-13517436D02*
X16770063Y-13507912D01*
X17131968Y-13812674D02*
X17122444Y-13803150D01*
X17122444Y-13803150D02*
X17103396Y-13774579D01*
X17103396Y-13774579D02*
X17093873Y-13755531D01*
X17093873Y-13755531D02*
X17084349Y-13726960D01*
X17084349Y-13726960D02*
X17074825Y-13679341D01*
X17074825Y-13679341D02*
X17074825Y-13641246D01*
X17074825Y-13641246D02*
X17084349Y-13593627D01*
X17084349Y-13593627D02*
X17093873Y-13565055D01*
X17093873Y-13565055D02*
X17103396Y-13546008D01*
X17103396Y-13546008D02*
X17122444Y-13517436D01*
X17122444Y-13517436D02*
X17131968Y-13507912D01*
X17208158Y-13603150D02*
X17208158Y-13736484D01*
X17208158Y-13622198D02*
X17217682Y-13612674D01*
X17217682Y-13612674D02*
X17236730Y-13603150D01*
X17236730Y-13603150D02*
X17265301Y-13603150D01*
X17265301Y-13603150D02*
X17284349Y-13612674D01*
X17284349Y-13612674D02*
X17293873Y-13631722D01*
X17293873Y-13631722D02*
X17293873Y-13736484D01*
X17417682Y-13736484D02*
X17398634Y-13726960D01*
X17398634Y-13726960D02*
X17389111Y-13717436D01*
X17389111Y-13717436D02*
X17379587Y-13698388D01*
X17379587Y-13698388D02*
X17379587Y-13641246D01*
X17379587Y-13641246D02*
X17389111Y-13622198D01*
X17389111Y-13622198D02*
X17398634Y-13612674D01*
X17398634Y-13612674D02*
X17417682Y-13603150D01*
X17417682Y-13603150D02*
X17446254Y-13603150D01*
X17446254Y-13603150D02*
X17465301Y-13612674D01*
X17465301Y-13612674D02*
X17474825Y-13622198D01*
X17474825Y-13622198D02*
X17484349Y-13641246D01*
X17484349Y-13641246D02*
X17484349Y-13698388D01*
X17484349Y-13698388D02*
X17474825Y-13717436D01*
X17474825Y-13717436D02*
X17465301Y-13726960D01*
X17465301Y-13726960D02*
X17446254Y-13736484D01*
X17446254Y-13736484D02*
X17417682Y-13736484D01*
X17541492Y-13603150D02*
X17617682Y-13603150D01*
X17570063Y-13536484D02*
X17570063Y-13707912D01*
X17570063Y-13707912D02*
X17579587Y-13726960D01*
X17579587Y-13726960D02*
X17598634Y-13736484D01*
X17598634Y-13736484D02*
X17617682Y-13736484D01*
X17836730Y-13603150D02*
X17836730Y-13803150D01*
X17836730Y-13612674D02*
X17855777Y-13603150D01*
X17855777Y-13603150D02*
X17893873Y-13603150D01*
X17893873Y-13603150D02*
X17912920Y-13612674D01*
X17912920Y-13612674D02*
X17922444Y-13622198D01*
X17922444Y-13622198D02*
X17931968Y-13641246D01*
X17931968Y-13641246D02*
X17931968Y-13698388D01*
X17931968Y-13698388D02*
X17922444Y-13717436D01*
X17922444Y-13717436D02*
X17912920Y-13726960D01*
X17912920Y-13726960D02*
X17893873Y-13736484D01*
X17893873Y-13736484D02*
X17855777Y-13736484D01*
X17855777Y-13736484D02*
X17836730Y-13726960D01*
X18046254Y-13736484D02*
X18027206Y-13726960D01*
X18027206Y-13726960D02*
X18017682Y-13707912D01*
X18017682Y-13707912D02*
X18017682Y-13536484D01*
X18208158Y-13736484D02*
X18208158Y-13631722D01*
X18208158Y-13631722D02*
X18198635Y-13612674D01*
X18198635Y-13612674D02*
X18179587Y-13603150D01*
X18179587Y-13603150D02*
X18141492Y-13603150D01*
X18141492Y-13603150D02*
X18122444Y-13612674D01*
X18208158Y-13726960D02*
X18189111Y-13736484D01*
X18189111Y-13736484D02*
X18141492Y-13736484D01*
X18141492Y-13736484D02*
X18122444Y-13726960D01*
X18122444Y-13726960D02*
X18112920Y-13707912D01*
X18112920Y-13707912D02*
X18112920Y-13688865D01*
X18112920Y-13688865D02*
X18122444Y-13669817D01*
X18122444Y-13669817D02*
X18141492Y-13660293D01*
X18141492Y-13660293D02*
X18189111Y-13660293D01*
X18189111Y-13660293D02*
X18208158Y-13650769D01*
X18274825Y-13603150D02*
X18351015Y-13603150D01*
X18303396Y-13536484D02*
X18303396Y-13707912D01*
X18303396Y-13707912D02*
X18312920Y-13726960D01*
X18312920Y-13726960D02*
X18331968Y-13736484D01*
X18331968Y-13736484D02*
X18351015Y-13736484D01*
X18493873Y-13726960D02*
X18474825Y-13736484D01*
X18474825Y-13736484D02*
X18436730Y-13736484D01*
X18436730Y-13736484D02*
X18417682Y-13726960D01*
X18417682Y-13726960D02*
X18408158Y-13707912D01*
X18408158Y-13707912D02*
X18408158Y-13631722D01*
X18408158Y-13631722D02*
X18417682Y-13612674D01*
X18417682Y-13612674D02*
X18436730Y-13603150D01*
X18436730Y-13603150D02*
X18474825Y-13603150D01*
X18474825Y-13603150D02*
X18493873Y-13612674D01*
X18493873Y-13612674D02*
X18503396Y-13631722D01*
X18503396Y-13631722D02*
X18503396Y-13650769D01*
X18503396Y-13650769D02*
X18408158Y-13669817D01*
X18674825Y-13736484D02*
X18674825Y-13536484D01*
X18674825Y-13726960D02*
X18655777Y-13736484D01*
X18655777Y-13736484D02*
X18617682Y-13736484D01*
X18617682Y-13736484D02*
X18598635Y-13726960D01*
X18598635Y-13726960D02*
X18589111Y-13717436D01*
X18589111Y-13717436D02*
X18579587Y-13698388D01*
X18579587Y-13698388D02*
X18579587Y-13641246D01*
X18579587Y-13641246D02*
X18589111Y-13622198D01*
X18589111Y-13622198D02*
X18598635Y-13612674D01*
X18598635Y-13612674D02*
X18617682Y-13603150D01*
X18617682Y-13603150D02*
X18655777Y-13603150D01*
X18655777Y-13603150D02*
X18674825Y-13612674D01*
X18751016Y-13812674D02*
X18760539Y-13803150D01*
X18760539Y-13803150D02*
X18779587Y-13774579D01*
X18779587Y-13774579D02*
X18789111Y-13755531D01*
X18789111Y-13755531D02*
X18798635Y-13726960D01*
X18798635Y-13726960D02*
X18808158Y-13679341D01*
X18808158Y-13679341D02*
X18808158Y-13641246D01*
X18808158Y-13641246D02*
X18798635Y-13593627D01*
X18798635Y-13593627D02*
X18789111Y-13565055D01*
X18789111Y-13565055D02*
X18779587Y-13546008D01*
X18779587Y-13546008D02*
X18760539Y-13517436D01*
X18760539Y-13517436D02*
X18751016Y-13507912D01*
D13*
X11995000Y-13909000D02*
G75*
G03*
X11995000Y-13909000I-57600J0D01*
G01*
D11*
X12360539Y-14000484D02*
X12246253Y-14000484D01*
X12303396Y-14000484D02*
X12303396Y-13800484D01*
X12303396Y-13800484D02*
X12284348Y-13829055D01*
X12284348Y-13829055D02*
X12265301Y-13848103D01*
X12265301Y-13848103D02*
X12246253Y-13857627D01*
X12446253Y-13981436D02*
X12455777Y-13990960D01*
X12455777Y-13990960D02*
X12446253Y-14000484D01*
X12446253Y-14000484D02*
X12436729Y-13990960D01*
X12436729Y-13990960D02*
X12446253Y-13981436D01*
X12446253Y-13981436D02*
X12446253Y-14000484D01*
X12646253Y-14000484D02*
X12531967Y-14000484D01*
X12589110Y-14000484D02*
X12589110Y-13800484D01*
X12589110Y-13800484D02*
X12570062Y-13829055D01*
X12570062Y-13829055D02*
X12551015Y-13848103D01*
X12551015Y-13848103D02*
X12531967Y-13857627D01*
X12827205Y-13800484D02*
X12731967Y-13800484D01*
X12731967Y-13800484D02*
X12722443Y-13895722D01*
X12722443Y-13895722D02*
X12731967Y-13886198D01*
X12731967Y-13886198D02*
X12751015Y-13876674D01*
X12751015Y-13876674D02*
X12798634Y-13876674D01*
X12798634Y-13876674D02*
X12817682Y-13886198D01*
X12817682Y-13886198D02*
X12827205Y-13895722D01*
X12827205Y-13895722D02*
X12836729Y-13914769D01*
X12836729Y-13914769D02*
X12836729Y-13962388D01*
X12836729Y-13962388D02*
X12827205Y-13981436D01*
X12827205Y-13981436D02*
X12817682Y-13990960D01*
X12817682Y-13990960D02*
X12798634Y-14000484D01*
X12798634Y-14000484D02*
X12751015Y-14000484D01*
X12751015Y-14000484D02*
X12731967Y-13990960D01*
X12731967Y-13990960D02*
X12722443Y-13981436D01*
X12912920Y-13819531D02*
X12922443Y-13810008D01*
X12922443Y-13810008D02*
X12941491Y-13800484D01*
X12941491Y-13800484D02*
X12989110Y-13800484D01*
X12989110Y-13800484D02*
X13008158Y-13810008D01*
X13008158Y-13810008D02*
X13017682Y-13819531D01*
X13017682Y-13819531D02*
X13027205Y-13838579D01*
X13027205Y-13838579D02*
X13027205Y-13857627D01*
X13027205Y-13857627D02*
X13017682Y-13886198D01*
X13017682Y-13886198D02*
X12903396Y-14000484D01*
X12903396Y-14000484D02*
X13027205Y-14000484D01*
X13112920Y-14000484D02*
X13112920Y-13867150D01*
X13112920Y-13886198D02*
X13122443Y-13876674D01*
X13122443Y-13876674D02*
X13141491Y-13867150D01*
X13141491Y-13867150D02*
X13170063Y-13867150D01*
X13170063Y-13867150D02*
X13189110Y-13876674D01*
X13189110Y-13876674D02*
X13198634Y-13895722D01*
X13198634Y-13895722D02*
X13198634Y-14000484D01*
X13198634Y-13895722D02*
X13208158Y-13876674D01*
X13208158Y-13876674D02*
X13227205Y-13867150D01*
X13227205Y-13867150D02*
X13255777Y-13867150D01*
X13255777Y-13867150D02*
X13274824Y-13876674D01*
X13274824Y-13876674D02*
X13284348Y-13895722D01*
X13284348Y-13895722D02*
X13284348Y-14000484D01*
X13379586Y-14000484D02*
X13379586Y-13867150D01*
X13379586Y-13886198D02*
X13389110Y-13876674D01*
X13389110Y-13876674D02*
X13408158Y-13867150D01*
X13408158Y-13867150D02*
X13436729Y-13867150D01*
X13436729Y-13867150D02*
X13455777Y-13876674D01*
X13455777Y-13876674D02*
X13465301Y-13895722D01*
X13465301Y-13895722D02*
X13465301Y-14000484D01*
X13465301Y-13895722D02*
X13474824Y-13876674D01*
X13474824Y-13876674D02*
X13493872Y-13867150D01*
X13493872Y-13867150D02*
X13522443Y-13867150D01*
X13522443Y-13867150D02*
X13541491Y-13876674D01*
X13541491Y-13876674D02*
X13551015Y-13895722D01*
X13551015Y-13895722D02*
X13551015Y-14000484D01*
X13941491Y-13790960D02*
X13770063Y-14048103D01*
X14198634Y-13800484D02*
X14217682Y-13800484D01*
X14217682Y-13800484D02*
X14236729Y-13810008D01*
X14236729Y-13810008D02*
X14246253Y-13819531D01*
X14246253Y-13819531D02*
X14255777Y-13838579D01*
X14255777Y-13838579D02*
X14265301Y-13876674D01*
X14265301Y-13876674D02*
X14265301Y-13924293D01*
X14265301Y-13924293D02*
X14255777Y-13962388D01*
X14255777Y-13962388D02*
X14246253Y-13981436D01*
X14246253Y-13981436D02*
X14236729Y-13990960D01*
X14236729Y-13990960D02*
X14217682Y-14000484D01*
X14217682Y-14000484D02*
X14198634Y-14000484D01*
X14198634Y-14000484D02*
X14179586Y-13990960D01*
X14179586Y-13990960D02*
X14170063Y-13981436D01*
X14170063Y-13981436D02*
X14160539Y-13962388D01*
X14160539Y-13962388D02*
X14151015Y-13924293D01*
X14151015Y-13924293D02*
X14151015Y-13876674D01*
X14151015Y-13876674D02*
X14160539Y-13838579D01*
X14160539Y-13838579D02*
X14170063Y-13819531D01*
X14170063Y-13819531D02*
X14179586Y-13810008D01*
X14179586Y-13810008D02*
X14198634Y-13800484D01*
X14351015Y-13981436D02*
X14360539Y-13990960D01*
X14360539Y-13990960D02*
X14351015Y-14000484D01*
X14351015Y-14000484D02*
X14341491Y-13990960D01*
X14341491Y-13990960D02*
X14351015Y-13981436D01*
X14351015Y-13981436D02*
X14351015Y-14000484D01*
X14484348Y-13800484D02*
X14503396Y-13800484D01*
X14503396Y-13800484D02*
X14522444Y-13810008D01*
X14522444Y-13810008D02*
X14531967Y-13819531D01*
X14531967Y-13819531D02*
X14541491Y-13838579D01*
X14541491Y-13838579D02*
X14551015Y-13876674D01*
X14551015Y-13876674D02*
X14551015Y-13924293D01*
X14551015Y-13924293D02*
X14541491Y-13962388D01*
X14541491Y-13962388D02*
X14531967Y-13981436D01*
X14531967Y-13981436D02*
X14522444Y-13990960D01*
X14522444Y-13990960D02*
X14503396Y-14000484D01*
X14503396Y-14000484D02*
X14484348Y-14000484D01*
X14484348Y-14000484D02*
X14465301Y-13990960D01*
X14465301Y-13990960D02*
X14455777Y-13981436D01*
X14455777Y-13981436D02*
X14446253Y-13962388D01*
X14446253Y-13962388D02*
X14436729Y-13924293D01*
X14436729Y-13924293D02*
X14436729Y-13876674D01*
X14436729Y-13876674D02*
X14446253Y-13838579D01*
X14446253Y-13838579D02*
X14455777Y-13819531D01*
X14455777Y-13819531D02*
X14465301Y-13810008D01*
X14465301Y-13810008D02*
X14484348Y-13800484D01*
X14722444Y-13867150D02*
X14722444Y-14000484D01*
X14674825Y-13790960D02*
X14627206Y-13933817D01*
X14627206Y-13933817D02*
X14751015Y-13933817D01*
X14922444Y-13800484D02*
X14827206Y-13800484D01*
X14827206Y-13800484D02*
X14817682Y-13895722D01*
X14817682Y-13895722D02*
X14827206Y-13886198D01*
X14827206Y-13886198D02*
X14846253Y-13876674D01*
X14846253Y-13876674D02*
X14893872Y-13876674D01*
X14893872Y-13876674D02*
X14912920Y-13886198D01*
X14912920Y-13886198D02*
X14922444Y-13895722D01*
X14922444Y-13895722D02*
X14931967Y-13914769D01*
X14931967Y-13914769D02*
X14931967Y-13962388D01*
X14931967Y-13962388D02*
X14922444Y-13981436D01*
X14922444Y-13981436D02*
X14912920Y-13990960D01*
X14912920Y-13990960D02*
X14893872Y-14000484D01*
X14893872Y-14000484D02*
X14846253Y-14000484D01*
X14846253Y-14000484D02*
X14827206Y-13990960D01*
X14827206Y-13990960D02*
X14817682Y-13981436D01*
X15103396Y-13867150D02*
X15103396Y-14000484D01*
X15055777Y-13790960D02*
X15008158Y-13933817D01*
X15008158Y-13933817D02*
X15131967Y-13933817D01*
X15198634Y-13800484D02*
X15198634Y-13838579D01*
X15274825Y-13800484D02*
X15274825Y-13838579D01*
X15570063Y-14076674D02*
X15560539Y-14067150D01*
X15560539Y-14067150D02*
X15541491Y-14038579D01*
X15541491Y-14038579D02*
X15531968Y-14019531D01*
X15531968Y-14019531D02*
X15522444Y-13990960D01*
X15522444Y-13990960D02*
X15512920Y-13943341D01*
X15512920Y-13943341D02*
X15512920Y-13905246D01*
X15512920Y-13905246D02*
X15522444Y-13857627D01*
X15522444Y-13857627D02*
X15531968Y-13829055D01*
X15531968Y-13829055D02*
X15541491Y-13810008D01*
X15541491Y-13810008D02*
X15560539Y-13781436D01*
X15560539Y-13781436D02*
X15570063Y-13771912D01*
X15731968Y-13867150D02*
X15731968Y-14000484D01*
X15684348Y-13790960D02*
X15636729Y-13933817D01*
X15636729Y-13933817D02*
X15760539Y-13933817D01*
X15989110Y-14000484D02*
X15989110Y-13800484D01*
X16074825Y-14000484D02*
X16074825Y-13895722D01*
X16074825Y-13895722D02*
X16065301Y-13876674D01*
X16065301Y-13876674D02*
X16046253Y-13867150D01*
X16046253Y-13867150D02*
X16017682Y-13867150D01*
X16017682Y-13867150D02*
X15998634Y-13876674D01*
X15998634Y-13876674D02*
X15989110Y-13886198D01*
X16198634Y-14000484D02*
X16179587Y-13990960D01*
X16179587Y-13990960D02*
X16170063Y-13981436D01*
X16170063Y-13981436D02*
X16160539Y-13962388D01*
X16160539Y-13962388D02*
X16160539Y-13905246D01*
X16160539Y-13905246D02*
X16170063Y-13886198D01*
X16170063Y-13886198D02*
X16179587Y-13876674D01*
X16179587Y-13876674D02*
X16198634Y-13867150D01*
X16198634Y-13867150D02*
X16227206Y-13867150D01*
X16227206Y-13867150D02*
X16246253Y-13876674D01*
X16246253Y-13876674D02*
X16255777Y-13886198D01*
X16255777Y-13886198D02*
X16265301Y-13905246D01*
X16265301Y-13905246D02*
X16265301Y-13962388D01*
X16265301Y-13962388D02*
X16255777Y-13981436D01*
X16255777Y-13981436D02*
X16246253Y-13990960D01*
X16246253Y-13990960D02*
X16227206Y-14000484D01*
X16227206Y-14000484D02*
X16198634Y-14000484D01*
X16379587Y-14000484D02*
X16360539Y-13990960D01*
X16360539Y-13990960D02*
X16351015Y-13971912D01*
X16351015Y-13971912D02*
X16351015Y-13800484D01*
X16531968Y-13990960D02*
X16512920Y-14000484D01*
X16512920Y-14000484D02*
X16474825Y-14000484D01*
X16474825Y-14000484D02*
X16455777Y-13990960D01*
X16455777Y-13990960D02*
X16446253Y-13971912D01*
X16446253Y-13971912D02*
X16446253Y-13895722D01*
X16446253Y-13895722D02*
X16455777Y-13876674D01*
X16455777Y-13876674D02*
X16474825Y-13867150D01*
X16474825Y-13867150D02*
X16512920Y-13867150D01*
X16512920Y-13867150D02*
X16531968Y-13876674D01*
X16531968Y-13876674D02*
X16541491Y-13895722D01*
X16541491Y-13895722D02*
X16541491Y-13914769D01*
X16541491Y-13914769D02*
X16446253Y-13933817D01*
X16617682Y-13990960D02*
X16636730Y-14000484D01*
X16636730Y-14000484D02*
X16674825Y-14000484D01*
X16674825Y-14000484D02*
X16693872Y-13990960D01*
X16693872Y-13990960D02*
X16703396Y-13971912D01*
X16703396Y-13971912D02*
X16703396Y-13962388D01*
X16703396Y-13962388D02*
X16693872Y-13943341D01*
X16693872Y-13943341D02*
X16674825Y-13933817D01*
X16674825Y-13933817D02*
X16646253Y-13933817D01*
X16646253Y-13933817D02*
X16627206Y-13924293D01*
X16627206Y-13924293D02*
X16617682Y-13905246D01*
X16617682Y-13905246D02*
X16617682Y-13895722D01*
X16617682Y-13895722D02*
X16627206Y-13876674D01*
X16627206Y-13876674D02*
X16646253Y-13867150D01*
X16646253Y-13867150D02*
X16674825Y-13867150D01*
X16674825Y-13867150D02*
X16693872Y-13876674D01*
X16770063Y-14076674D02*
X16779587Y-14067150D01*
X16779587Y-14067150D02*
X16798634Y-14038579D01*
X16798634Y-14038579D02*
X16808158Y-14019531D01*
X16808158Y-14019531D02*
X16817682Y-13990960D01*
X16817682Y-13990960D02*
X16827206Y-13943341D01*
X16827206Y-13943341D02*
X16827206Y-13905246D01*
X16827206Y-13905246D02*
X16817682Y-13857627D01*
X16817682Y-13857627D02*
X16808158Y-13829055D01*
X16808158Y-13829055D02*
X16798634Y-13810008D01*
X16798634Y-13810008D02*
X16779587Y-13781436D01*
X16779587Y-13781436D02*
X16770063Y-13771912D01*
X17131968Y-14076674D02*
X17122444Y-14067150D01*
X17122444Y-14067150D02*
X17103396Y-14038579D01*
X17103396Y-14038579D02*
X17093873Y-14019531D01*
X17093873Y-14019531D02*
X17084349Y-13990960D01*
X17084349Y-13990960D02*
X17074825Y-13943341D01*
X17074825Y-13943341D02*
X17074825Y-13905246D01*
X17074825Y-13905246D02*
X17084349Y-13857627D01*
X17084349Y-13857627D02*
X17093873Y-13829055D01*
X17093873Y-13829055D02*
X17103396Y-13810008D01*
X17103396Y-13810008D02*
X17122444Y-13781436D01*
X17122444Y-13781436D02*
X17131968Y-13771912D01*
X17208158Y-13867150D02*
X17208158Y-14000484D01*
X17208158Y-13886198D02*
X17217682Y-13876674D01*
X17217682Y-13876674D02*
X17236730Y-13867150D01*
X17236730Y-13867150D02*
X17265301Y-13867150D01*
X17265301Y-13867150D02*
X17284349Y-13876674D01*
X17284349Y-13876674D02*
X17293873Y-13895722D01*
X17293873Y-13895722D02*
X17293873Y-14000484D01*
X17417682Y-14000484D02*
X17398634Y-13990960D01*
X17398634Y-13990960D02*
X17389111Y-13981436D01*
X17389111Y-13981436D02*
X17379587Y-13962388D01*
X17379587Y-13962388D02*
X17379587Y-13905246D01*
X17379587Y-13905246D02*
X17389111Y-13886198D01*
X17389111Y-13886198D02*
X17398634Y-13876674D01*
X17398634Y-13876674D02*
X17417682Y-13867150D01*
X17417682Y-13867150D02*
X17446254Y-13867150D01*
X17446254Y-13867150D02*
X17465301Y-13876674D01*
X17465301Y-13876674D02*
X17474825Y-13886198D01*
X17474825Y-13886198D02*
X17484349Y-13905246D01*
X17484349Y-13905246D02*
X17484349Y-13962388D01*
X17484349Y-13962388D02*
X17474825Y-13981436D01*
X17474825Y-13981436D02*
X17465301Y-13990960D01*
X17465301Y-13990960D02*
X17446254Y-14000484D01*
X17446254Y-14000484D02*
X17417682Y-14000484D01*
X17541492Y-13867150D02*
X17617682Y-13867150D01*
X17570063Y-13800484D02*
X17570063Y-13971912D01*
X17570063Y-13971912D02*
X17579587Y-13990960D01*
X17579587Y-13990960D02*
X17598634Y-14000484D01*
X17598634Y-14000484D02*
X17617682Y-14000484D01*
X17836730Y-13867150D02*
X17836730Y-14067150D01*
X17836730Y-13876674D02*
X17855777Y-13867150D01*
X17855777Y-13867150D02*
X17893873Y-13867150D01*
X17893873Y-13867150D02*
X17912920Y-13876674D01*
X17912920Y-13876674D02*
X17922444Y-13886198D01*
X17922444Y-13886198D02*
X17931968Y-13905246D01*
X17931968Y-13905246D02*
X17931968Y-13962388D01*
X17931968Y-13962388D02*
X17922444Y-13981436D01*
X17922444Y-13981436D02*
X17912920Y-13990960D01*
X17912920Y-13990960D02*
X17893873Y-14000484D01*
X17893873Y-14000484D02*
X17855777Y-14000484D01*
X17855777Y-14000484D02*
X17836730Y-13990960D01*
X18046254Y-14000484D02*
X18027206Y-13990960D01*
X18027206Y-13990960D02*
X18017682Y-13971912D01*
X18017682Y-13971912D02*
X18017682Y-13800484D01*
X18208158Y-14000484D02*
X18208158Y-13895722D01*
X18208158Y-13895722D02*
X18198635Y-13876674D01*
X18198635Y-13876674D02*
X18179587Y-13867150D01*
X18179587Y-13867150D02*
X18141492Y-13867150D01*
X18141492Y-13867150D02*
X18122444Y-13876674D01*
X18208158Y-13990960D02*
X18189111Y-14000484D01*
X18189111Y-14000484D02*
X18141492Y-14000484D01*
X18141492Y-14000484D02*
X18122444Y-13990960D01*
X18122444Y-13990960D02*
X18112920Y-13971912D01*
X18112920Y-13971912D02*
X18112920Y-13952865D01*
X18112920Y-13952865D02*
X18122444Y-13933817D01*
X18122444Y-13933817D02*
X18141492Y-13924293D01*
X18141492Y-13924293D02*
X18189111Y-13924293D01*
X18189111Y-13924293D02*
X18208158Y-13914769D01*
X18274825Y-13867150D02*
X18351015Y-13867150D01*
X18303396Y-13800484D02*
X18303396Y-13971912D01*
X18303396Y-13971912D02*
X18312920Y-13990960D01*
X18312920Y-13990960D02*
X18331968Y-14000484D01*
X18331968Y-14000484D02*
X18351015Y-14000484D01*
X18493873Y-13990960D02*
X18474825Y-14000484D01*
X18474825Y-14000484D02*
X18436730Y-14000484D01*
X18436730Y-14000484D02*
X18417682Y-13990960D01*
X18417682Y-13990960D02*
X18408158Y-13971912D01*
X18408158Y-13971912D02*
X18408158Y-13895722D01*
X18408158Y-13895722D02*
X18417682Y-13876674D01*
X18417682Y-13876674D02*
X18436730Y-13867150D01*
X18436730Y-13867150D02*
X18474825Y-13867150D01*
X18474825Y-13867150D02*
X18493873Y-13876674D01*
X18493873Y-13876674D02*
X18503396Y-13895722D01*
X18503396Y-13895722D02*
X18503396Y-13914769D01*
X18503396Y-13914769D02*
X18408158Y-13933817D01*
X18674825Y-14000484D02*
X18674825Y-13800484D01*
X18674825Y-13990960D02*
X18655777Y-14000484D01*
X18655777Y-14000484D02*
X18617682Y-14000484D01*
X18617682Y-14000484D02*
X18598635Y-13990960D01*
X18598635Y-13990960D02*
X18589111Y-13981436D01*
X18589111Y-13981436D02*
X18579587Y-13962388D01*
X18579587Y-13962388D02*
X18579587Y-13905246D01*
X18579587Y-13905246D02*
X18589111Y-13886198D01*
X18589111Y-13886198D02*
X18598635Y-13876674D01*
X18598635Y-13876674D02*
X18617682Y-13867150D01*
X18617682Y-13867150D02*
X18655777Y-13867150D01*
X18655777Y-13867150D02*
X18674825Y-13876674D01*
X18751016Y-14076674D02*
X18760539Y-14067150D01*
X18760539Y-14067150D02*
X18779587Y-14038579D01*
X18779587Y-14038579D02*
X18789111Y-14019531D01*
X18789111Y-14019531D02*
X18798635Y-13990960D01*
X18798635Y-13990960D02*
X18808158Y-13943341D01*
X18808158Y-13943341D02*
X18808158Y-13905246D01*
X18808158Y-13905246D02*
X18798635Y-13857627D01*
X18798635Y-13857627D02*
X18789111Y-13829055D01*
X18789111Y-13829055D02*
X18779587Y-13810008D01*
X18779587Y-13810008D02*
X18760539Y-13781436D01*
X18760539Y-13781436D02*
X18751016Y-13771912D01*
M02*
